<?xml version="1.0" standalone="no"?>
<!DOCTYPE svg PUBLIC "-//W3C//DTD SVG 1.1//EN" "http://www.w3.org/Graphics/SVG/1.1/DTD/svg11.dtd" >
<svg>
<metadata>
Created by FontForge 20110222 at Wed Feb 11 06:25:39 2015
 By deploy user
(c) 2008 Microsoft Corporation. All Rights Reserved. Portions (c) 2008 Mamoun Sakkal, Sakkal Design.
</metadata>
<defs>
<font id="SakkalMajallaBold" horiz-adv-x="0" >
  <font-face 
    font-family="Sakkal Majalla"
    font-weight="700"
    font-stretch="normal"
    units-per-em="2048"
    panose-1="2 0 0 0 0 0 0 0 0 0"
    ascent="1395"
    descent="-653"
    x-height="684"
    cap-height="1024"
    bbox="-385 -923 3734 1648"
    underline-thickness="119"
    underline-position="-229"
    unicode-range="U+0020-FEFC"
  />
<missing-glyph horiz-adv-x="684" 
d="M293 156v90h76v-90h-76zM300 313l-2 22q0 74 22 117q7 13 21 30.5t36 39.5q43 43 55 64q12 22 12 48q0 50 -31 81q-30 33 -69 33q-45 0 -74.5 -30t-36.5 -97l-67 11q9 95 58.5 139t121.5 44q71 0 119 -49q48 -48 48 -126q0 -45 -16 -76q-8 -16 -25 -36t-42 -45
q-51 -48 -58 -76q-10 -19 -10 -94h-62zM627 57v846h-570v-846h570zM684 960v-960h-684v960h684z" />
    <glyph glyph-name="uni06440627" unicode="&#xfedf;&#xfe8e;" horiz-adv-x="1020" arabic-form="isolated" 
d="M747 207q-4 16 -12.5 35.5t-18.5 39.5t-21 39.5t-21 35.5q-15 -15 -37.5 -34.5t-48 -38.5t-51 -36t-46.5 -29v-12h256zM280 0q4 22 9 53t10 62.5t10 59.5t8 44l46 17q71 46 136 97.5t116 101.5q-27 33 -62.5 68t-73.5 67.5t-75.5 60t-68.5 47.5l-6 -59l-179 113
q-33 24 -51.5 55.5t-18.5 87.5q0 13 2.5 33.5t6 43t8.5 46.5t11 45q47 -16 101 -49t110 -76t111.5 -94t105.5 -102.5t92 -101t71 -90.5q13 15 25.5 34.5t22.5 45t16.5 56t6.5 68.5q0 5 -0.5 24.5t-2 45t-3 53.5t-3.5 49q-15 16 -23 30t-12 26.5t-5 24.5t-1 25l112 145h16
q1 -21 4.5 -38t18 -37.5t42.5 -48t77 -68.5l-112 -148v-77q0 -59 -10 -104t-25.5 -80.5t-35 -63t-38.5 -50.5q10 -19 22.5 -44.5t23.5 -53.5t18.5 -56t7.5 -52q0 -13 -1 -27t-3 -29q-6 -45 -17 -93.5t-22 -86.5h-518z" />
    <glyph glyph-name="uni06440627.fina" unicode="&#xfee0;&#xfe8e;" horiz-adv-x="1070" arabic-form="final" 
d="M956 0q-12 0 -24 4.5t-22.5 11t-18.5 14t-12 12.5q-15 18 -21.5 51t-9.5 78l-12 200q-2 45 -4.5 89t-4.5 68h-12l-4 -15q-34 -128 -77 -237.5t-97 -177.5q-30 -38 -62 -63.5t-65.5 -42t-67.5 -26.5t-68 -16q-26 -5 -62 -8.5t-74 -6.5t-75 -5t-66 -3l-8 33q31 14 68 32
t74 38t72 40.5t63 40.5q60 42 112 88t97 99q-20 56 -44.5 106.5t-56.5 98t-74 93t-96 92.5l-8 -58q-52 32 -92.5 58.5t-68 53t-42 55t-14.5 64.5q0 23 4.5 50.5t10 54t11.5 48t9 33.5q110 -72 213 -167t187 -216q25 -36 43.5 -77t32 -82.5t22.5 -81.5t15 -73
q21 30 45.5 68.5t47 80.5t41 85t26.5 82q5 24 8 45t6 43l-15 205l143 195l43 -892q1 -23 12 -39t40 -16h46v-207h-114z" />
    <glyph glyph-name="uni06440622" unicode="&#xfedf;&#xfe82;" horiz-adv-x="952" arabic-form="isolated" 
d="M679 207q-4 16 -10.5 36.5t-15.5 42t-20 42.5t-23 38q-15 -15 -38 -35.5t-49.5 -41.5t-52.5 -39.5t-47 -30.5v-12h256zM212 0q4 22 9 53t10 62.5t10 59.5t8 44l46 17q71 46 138 102t118 106q-27 33 -52.5 58.5t-51.5 46t-53.5 38.5t-58.5 38l-6 -59l-179 113
q-33 24 -51.5 55.5t-18.5 87.5q0 13 2.5 33.5t6 43t8.5 46.5t11 45q66 -27 140 -79t144.5 -116t133 -134t105.5 -131q13 15 25.5 34.5t22.5 45t16.5 56t6.5 68.5q0 5 -0.5 24.5t-2 45t-3 53.5t-3.5 49q-15 16 -23 30t-12 26.5t-5 24.5t-1 25l112 145h16q1 -21 4.5 -38
t18 -37.5t42.5 -48t77 -68.5l-112 -148v-77q0 -59 -10 -104t-25.5 -80.5t-35 -63t-38.5 -50.5q10 -19 22.5 -44.5t23.5 -53.5t18.5 -56t7.5 -52q0 -13 -1 -27t-3 -29q-6 -45 -17 -93.5t-22 -86.5h-518zM392 1116q-8 -5 -15.5 -10.5t-15.5 -10.5q-46 -31 -85.5 -53.5
t-74.5 -22.5q-37 0 -70 13.5t-50 43.5l-71 -58v46l93 90h14q20 -27 53.5 -43t79.5 -16q24 0 62 15t80 38v-32z" />
    <glyph glyph-name="uni06440622.fina" unicode="&#xfee0;&#xfe82;" horiz-adv-x="1070" arabic-form="final" 
d="M956 0q-12 0 -24 4.5t-22.5 11t-18.5 14t-12 12.5q-15 18 -21.5 51t-9.5 78l-12 200q-2 45 -4.5 89t-4.5 68h-12l-4 -15q-34 -128 -77 -237.5t-97 -177.5q-30 -38 -62 -63.5t-65.5 -42t-67.5 -26.5t-68 -16q-26 -5 -62 -8.5t-74 -6.5t-75 -5t-66 -3l-8 33q31 14 68 32
t74 38t72 40.5t63 40.5q30 21 56.5 40.5t50.5 39.5t46.5 42t44.5 48q-12 50 -27 95t-39 88.5t-60 87t-90 90.5l-8 -58q-52 32 -92.5 58.5t-68 53t-42 55t-14.5 64.5q0 23 4.5 50.5t10 54t11.5 48t9 33.5q42 -29 87.5 -66t91 -82t90 -99t84.5 -115q16 -25 33.5 -62t32.5 -79
t26 -85t13 -80q21 30 47 71t51 86.5t45 91t28 84.5q5 24 8 45t6 43l-15 205l143 195l43 -892q1 -23 12 -39t40 -16h46v-207h-114zM429 1116q-8 -5 -15.5 -10.5t-15.5 -10.5q-46 -31 -85.5 -53.5t-74.5 -22.5q-37 0 -70 13.5t-50 43.5l-71 -58v46l93 90h14q20 -27 53.5 -43
t79.5 -16q24 0 62 15t80 38v-32z" />
    <glyph glyph-name="uni06440623" unicode="&#xfedf;&#xfe84;" horiz-adv-x="952" arabic-form="isolated" 
d="M679 207q-4 16 -10.5 36.5t-15.5 42t-20 42.5t-23 38q-15 -15 -38 -35.5t-49.5 -41.5t-52.5 -39.5t-47 -30.5v-12h256zM212 0q4 22 9 53t10 62.5t10 59.5t8 44l46 17q71 46 138 102t118 106q-27 33 -52.5 58.5t-51.5 46t-53.5 38.5t-58.5 38l-6 -59l-179 113
q-33 24 -51.5 55.5t-18.5 87.5q0 13 2.5 33.5t6 43t8.5 46.5t11 45q66 -27 140 -79t144.5 -116t133 -134t105.5 -131q13 15 25.5 34.5t22.5 45t16.5 56t6.5 68.5q0 5 -0.5 24.5t-2 45t-3 53.5t-3.5 49q-15 16 -23 30t-12 26.5t-5 24.5t-1 25l112 145h16q1 -21 4.5 -38
t18 -37.5t42.5 -48t77 -68.5l-112 -148v-77q0 -59 -10 -104t-25.5 -80.5t-35 -63t-38.5 -50.5q10 -19 22.5 -44.5t23.5 -53.5t18.5 -56t7.5 -52q0 -13 -1 -27t-3 -29q-6 -45 -17 -93.5t-22 -86.5h-518zM344 1098q-32 -8 -71 -19.5t-66 -25.5q-20 -10 -38 -28.5t-32 -38.5
l-25 11q4 19 17 45t32 44q-29 11 -48 30.5t-19 41.5t16 51t40 54.5t52 43.5t52 18q25 0 37.5 -13.5t12.5 -31.5q0 -26 -21 -51q-14 11 -31 17.5t-36 6.5q-21 0 -41 -12t-20 -35q0 -13 8.5 -23.5t22 -18t30 -11.5t31.5 -4q23 0 56.5 9t74.5 23z" />
    <glyph glyph-name="uni06440623.fina" unicode="&#xfee0;&#xfe84;" horiz-adv-x="1070" arabic-form="final" 
d="M956 0q-12 0 -24 4.5t-22.5 11t-18.5 14t-12 12.5q-15 18 -21.5 51t-9.5 78l-12 200q-2 45 -4.5 89t-4.5 68h-12l-4 -15q-34 -128 -77 -237.5t-97 -177.5q-30 -38 -62 -63.5t-65.5 -42t-67.5 -26.5t-68 -16q-26 -5 -62 -8.5t-74 -6.5t-75 -5t-66 -3l-8 33q31 14 68 32
t74 38t72 40.5t63 40.5q30 21 56.5 40.5t50.5 39.5t46.5 42t44.5 48q-12 50 -27 95t-39 88.5t-60 87t-90 90.5l-8 -58q-52 32 -92.5 58.5t-68 53t-42 55t-14.5 64.5q0 23 4.5 50.5t10 54t11.5 48t9 33.5q42 -29 87.5 -66t91 -82t90 -99t84.5 -115q16 -25 33.5 -62t32.5 -79
t26 -85t13 -80q21 30 47 71t51 86.5t45 91t28 84.5q5 24 8 45t6 43l-15 205l143 195l43 -892q1 -23 12 -39t40 -16h46v-207h-114zM392 1108q-32 -8 -71 -19.5t-66 -25.5q-20 -10 -38 -28.5t-32 -38.5l-25 11q4 19 17 45t32 44q-29 11 -48 30.5t-19 41.5t16 51t40 54.5
t52 43.5t52 18q25 0 37.5 -13.5t12.5 -31.5q0 -26 -21 -51q-14 11 -31 17.5t-36 6.5q-21 0 -41 -12t-20 -35q0 -13 8.5 -23.5t22 -18t30 -11.5t31.5 -4q23 0 56.5 9t74.5 23z" />
    <glyph glyph-name="uni06440625" unicode="&#xfedf;&#xfe88;" horiz-adv-x="1020" arabic-form="isolated" 
d="M747 207q-4 16 -12.5 35.5t-18.5 39.5t-21 39.5t-21 35.5q-15 -15 -37.5 -34.5t-48 -38.5t-51 -36t-46.5 -29v-12h256zM280 0q4 22 9 53t10 62.5t10 59.5t8 44l46 17q71 46 136 97.5t116 101.5q-27 33 -62.5 68t-73.5 67.5t-75.5 60t-68.5 47.5l-6 -59l-179 113
q-33 24 -51.5 55.5t-18.5 87.5q0 13 2.5 33.5t6 43t8.5 46.5t11 45q47 -16 101 -49t110 -76t111.5 -94t105.5 -102.5t92 -101t71 -90.5q13 15 25.5 34.5t22.5 45t16.5 56t6.5 68.5q0 5 -0.5 24.5t-2 45t-3 53.5t-3.5 49q-15 16 -23 30t-12 26.5t-5 24.5t-1 25l112 145h16
q1 -21 4.5 -38t18 -37.5t42.5 -48t77 -68.5l-112 -148v-77q0 -59 -10 -104t-25.5 -80.5t-35 -63t-38.5 -50.5q10 -19 22.5 -44.5t23.5 -53.5t18.5 -56t7.5 -52q0 -13 -1 -27t-3 -29q-6 -45 -17 -93.5t-22 -86.5h-518zM511 -278q-32 -8 -71 -19.5t-66 -25.5
q-20 -10 -38 -28.5t-32 -38.5l-25 11q4 19 17 45t32 44q-29 11 -48 30.5t-19 41.5t16 51t40 54.5t52 43.5t52 18q25 0 37.5 -13.5t12.5 -31.5q0 -26 -21 -51q-14 11 -31 17.5t-36 6.5q-21 0 -41 -12t-20 -35q0 -13 8.5 -23.5t22 -18t30 -11.5t31.5 -4q23 0 56.5 9t74.5 23z
" />
    <glyph glyph-name="uni06440625.fina" unicode="&#xfee0;&#xfe88;" horiz-adv-x="1070" arabic-form="final" 
d="M956 0q-12 0 -24 4.5t-22.5 11t-18.5 14t-12 12.5q-15 18 -21.5 51t-9.5 78l-12 200q-2 45 -4.5 89t-4.5 68h-12l-4 -15q-34 -128 -77 -237.5t-97 -177.5q-30 -38 -62 -63.5t-65.5 -42t-67.5 -26.5t-68 -16q-26 -5 -62 -8.5t-74 -6.5t-75 -5t-66 -3l-8 33q31 14 68 32
t74 38t72 40.5t63 40.5q60 42 112 88t97 99q-20 56 -44.5 106.5t-56.5 98t-74 93t-96 92.5l-8 -58q-52 32 -92.5 58.5t-68 53t-42 55t-14.5 64.5q0 23 4.5 50.5t10 54t11.5 48t9 33.5q110 -72 213 -167t187 -216q25 -36 43.5 -77t32 -82.5t22.5 -81.5t15 -73
q21 30 45.5 68.5t47 80.5t41 85t26.5 82q5 24 8 45t6 43l-15 205l143 195l43 -892q1 -23 12 -39t40 -16h46v-207h-114zM361 -336q-32 -8 -71 -19.5t-66 -25.5q-20 -10 -38 -28.5t-32 -38.5l-25 11q4 19 17 45t32 44q-29 11 -48 30.5t-19 41.5t16 51t40 54.5t52 43.5t52 18
q25 0 37.5 -13.5t12.5 -31.5q0 -26 -21 -51q-14 11 -31 17.5t-36 6.5q-21 0 -41 -12t-20 -35q0 -13 8.5 -23.5t22 -18t30 -11.5t31.5 -4q23 0 56.5 9t74.5 23z" />
    <glyph glyph-name="uni06440671" unicode="&#xfedf;&#xfb51;" horiz-adv-x="952" 
d="M679 207q-4 16 -10.5 36.5t-15.5 42t-20 42.5t-23 38q-15 -15 -38 -35.5t-49.5 -41.5t-52.5 -39.5t-47 -30.5v-12h256zM212 0q4 22 9 53t10 62.5t10 59.5t8 44l46 17q71 46 138 102t118 106q-27 33 -52.5 58.5t-51.5 46t-53.5 38.5t-58.5 38l-6 -59l-179 113
q-33 24 -51.5 55.5t-18.5 87.5q0 13 2.5 33.5t6 43t8.5 46.5t11 45q66 -27 140 -79t144.5 -116t133 -134t105.5 -131q13 15 25.5 34.5t22.5 45t16.5 56t6.5 68.5q0 5 -0.5 24.5t-2 45t-3 53.5t-3.5 49q-15 16 -23 30t-12 26.5t-5 24.5t-1 25l112 145h16q1 -21 4.5 -38
t18 -37.5t42.5 -48t77 -68.5l-112 -148v-77q0 -59 -10 -104t-25.5 -80.5t-35 -63t-38.5 -50.5q10 -19 22.5 -44.5t23.5 -53.5t18.5 -56t7.5 -52q0 -13 -1 -27t-3 -29q-6 -45 -17 -93.5t-22 -86.5h-518zM472 1107q2 1 6 5l6 6q0 5 -5.5 16t-15 22t-22.5 19t-28 8
q-8 0 -22 -6.5t-30.5 -17t-33.5 -24.5t-32 -28h177zM188 1030q-36 0 -58.5 18.5t-35.5 43.5q-13 -7 -22.5 -16.5t-17.5 -18.5q-11 -14 -18.5 -28.5t-15.5 -29.5q-6 3 -14.5 7.5t-13.5 7.5q7 22 15.5 46t25.5 50q15 23 33.5 37t41.5 26h31q4 -7 10.5 -16.5t15 -18.5
t18.5 -15.5t21 -7.5h8q18 12 36.5 26t35.5 28q40 31 79.5 56.5t73.5 25.5q16 0 35 -10t35.5 -25t27.5 -33.5t11 -35.5q0 -14 -7 -30t-17 -32t-22 -30t-21 -25h-291z" />
    <glyph glyph-name="uni06440671.fina" unicode="&#xfee0;&#xfb51;" horiz-adv-x="1070" 
d="M956 0q-12 0 -24 4.5t-22.5 11t-18.5 14t-12 12.5q-15 18 -21.5 51t-9.5 78l-12 200q-2 45 -4.5 89t-4.5 68h-12l-4 -15q-34 -128 -77 -237.5t-97 -177.5q-30 -38 -62 -63.5t-65.5 -42t-67.5 -26.5t-68 -16q-26 -5 -62 -8.5t-74 -6.5t-75 -5t-66 -3l-8 33q31 14 68 32
t74 38t72 40.5t63 40.5q30 21 56.5 40.5t50.5 39.5t46.5 42t44.5 48q-12 50 -27 95t-39 88.5t-60 87t-90 90.5l-8 -58q-52 32 -92.5 58.5t-68 53t-42 55t-14.5 64.5q0 23 4.5 50.5t10 54t11.5 48t9 33.5q42 -29 87.5 -66t91 -82t90 -99t84.5 -115q16 -25 33.5 -62t32.5 -79
t26 -85t13 -80q21 30 47 71t51 86.5t45 91t28 84.5q5 24 8 45t6 43l-15 205l143 195l43 -892q1 -23 12 -39t40 -16h46v-207h-114zM492 1107q2 1 6 5l6 6q0 5 -5.5 16t-15 22t-22.5 19t-28 8q-8 0 -22 -6.5t-30.5 -17t-33.5 -24.5t-32 -28h177zM208 1030q-36 0 -58.5 18.5
t-35.5 43.5q-13 -7 -22.5 -16.5t-17.5 -18.5q-11 -14 -18.5 -28.5t-15.5 -29.5q-6 3 -14.5 7.5t-13.5 7.5q7 22 15.5 46t25.5 50q15 23 33.5 37t41.5 26h31q4 -7 10.5 -16.5t15 -18.5t18.5 -15.5t21 -7.5h8q18 12 36.5 26t35.5 28q40 31 79.5 56.5t73.5 25.5q16 0 35 -10
t35.5 -25t27.5 -33.5t11 -35.5q0 -14 -7 -30t-17 -32t-22 -30t-21 -25h-291z" />
    <glyph glyph-name="uniFDF2" unicode="&#x627;&#xfedf;&#xfee0;&#xfbab;" horiz-adv-x="1859" arabic-form="isolated" 
d="M488 527q-5 -7 -12 -17l-14 -20t-12.5 -17t-8.5 -8q-4 -2 -29.5 -9.5t-58.5 -17t-67.5 -19t-56.5 -13.5l-7 -10q22 -6 53 -15t65 -17.5t68 -16t62 -10.5l13 7zM1357 0h-218q-36 0 -67.5 22t-49.5 61h-18l-36 -83h-304q-41 0 -77 19t-56 44q-25 30 -34 78t-12 102h-16
l-66 -99l-221 56q-38 10 -61 20t-35 22t-16 25t-4 29q0 29 18 61.5t38 62.5q23 35 40.5 61.5t30.5 39.5q11 11 38.5 23.5t62 24.5t70 22.5t63.5 17.5l66 16v58l117 120v-527q0 -15 7 -29t17 -20q13 -9 32.5 -14.5t50.5 -5.5h249l-73 457l116 140l72 -564q3 -22 23.5 -27.5
t48.5 -5.5h155l-93 542l115 151l94 -673zM1040 1069q0 -23 -1 -43.5t-4 -34.5q5 -4 12.5 -6.5t17.5 -2.5q15 0 26.5 13t20 33.5t14 44t7.5 44.5l54 26q0 -37 -5.5 -82t-20.5 -84.5t-40.5 -66t-65.5 -26.5q-20 0 -34.5 6t-24.5 13q-7 -12 -16.5 -25t-22 -23.5t-30 -17.5
t-40.5 -7q-12 0 -24 3t-21.5 13t-15 28t-5.5 47q0 15 4 33t9.5 35.5t12.5 32.5t13 23l35 -17q-4 -14 -8 -33t-4 -29q0 -12 6 -20.5t20 -8.5q18 0 31.5 14.5t23.5 35.5t16.5 43.5t11.5 38.5h48zM1007 1090q0 15 -0.5 34t-2 39t-4.5 39t-9 34q-11 26 -26.5 44.5t-32.5 33.5
q5 30 10 60.5t10 59.5q56 -51 79 -115t23 -128q0 -23 -4.5 -52.5t-8.5 -48.5h-34zM1632 -27l-81 973l148 211q9 -178 15.5 -310t11 -227t7 -157.5t4 -99.5t2 -54t0.5 -22q0 -46 -7.5 -93t-20 -89t-29.5 -76.5t-35 -55.5h-15z" />
    <glyph glyph-name="uniFDF2.alt1" unicode="&#x627;&#xfedf;&#xfee0;&#xfba7;" horiz-adv-x="1807" 
d="M1296 0h-228q-32 0 -54.5 7.5t-38 21t-25 30.5t-14.5 37h-19l-42 -96h-273q-35 0 -68 15.5t-59 35.5q-10 9 -20.5 23t-21 30.5t-20.5 34.5t-18 33l-14 24.5t-9 10.5q-14 0 -42.5 -29t-62 -72.5t-68 -93.5t-59.5 -92l-61 29q20 51 43.5 102.5t48.5 97t48.5 83t43.5 60.5
v-1q12 15 31.5 35.5t41 39.5t41.5 32.5t33 13.5q12 0 25 -9t26 -23t25 -31.5t22 -34.5q12 -20 25 -39.5t29 -34.5t36.5 -24t47.5 -9h229l-67 379l109 180q3 -19 8.5 -60t12.5 -93t15 -110t15.5 -110.5t13.5 -93.5t9 -61q4 -20 24.5 -25.5t48.5 -5.5h189l-92 542l109 186
l100 -708zM1580 -27l-81 973l148 211q9 -178 15.5 -310t11 -227t7 -157.5t4 -99.5t2 -54t0.5 -22q0 -46 -7.5 -93t-20 -89t-29.5 -76.5t-35 -55.5h-15z" />
    <glyph glyph-name="uni064406440647" unicode="&#xfedf;&#xfee0;&#xfbab;" horiz-adv-x="1509" 
d="M488 527q-5 -7 -12 -17l-14 -20t-12.5 -17t-8.5 -8q-4 -2 -29.5 -9.5t-58.5 -17t-67.5 -19t-56.5 -13.5l-7 -10q22 -6 53 -15t65 -17.5t68 -16t62 -10.5l13 7zM1357 0h-218q-36 0 -67.5 22t-49.5 61h-18l-36 -83h-304q-41 0 -77 19t-56 44q-25 30 -34 78t-12 102h-16
l-66 -99l-221 56q-38 10 -61 20t-35 22t-16 25t-4 29q0 29 18 61.5t38 62.5q23 35 40.5 61.5t30.5 39.5q11 11 38.5 23.5t62 24.5t70 22.5t63.5 17.5l66 16v58l117 120v-527q0 -15 7 -29t17 -20q13 -9 32.5 -14.5t50.5 -5.5h249l-73 457l116 140l72 -564q3 -22 23.5 -27.5
t48.5 -5.5h155l-93 542l115 151l94 -673zM1040 1069q0 -23 -1 -43.5t-4 -34.5q5 -4 12.5 -6.5t17.5 -2.5q15 0 26.5 13t20 33.5t14 44t7.5 44.5l54 26q0 -37 -5.5 -82t-20.5 -84.5t-40.5 -66t-65.5 -26.5q-20 0 -34.5 6t-24.5 13q-7 -12 -16.5 -25t-22 -23.5t-30 -17.5
t-40.5 -7q-12 0 -24 3t-21.5 13t-15 28t-5.5 47q0 15 4 33t9.5 35.5t12.5 32.5t13 23l35 -17q-4 -14 -8 -33t-4 -29q0 -12 6 -20.5t20 -8.5q18 0 31.5 14.5t23.5 35.5t16.5 43.5t11.5 38.5h48zM1007 1090q0 15 -0.5 34t-2 39t-4.5 39t-9 34q-11 26 -26.5 44.5t-32.5 33.5
q5 30 10 60.5t10 59.5q56 -51 79 -115t23 -128q0 -23 -4.5 -52.5t-8.5 -48.5h-34z" />
    <glyph glyph-name="uni064406440647.alt1" unicode="&#xfedf;&#xfee0;&#xfba7;" horiz-adv-x="1455" 
d="M1296 0h-228q-32 0 -54.5 7.5t-38 21t-25 30.5t-14.5 37h-19l-42 -96h-273q-35 0 -68 15.5t-59 35.5q-10 9 -20.5 23t-21 30.5t-20.5 34.5t-18 33l-14 24.5t-9 10.5q-14 0 -42.5 -29t-62 -72.5t-68 -93.5t-59.5 -92l-61 29q20 51 43.5 102.5t48.5 97t48.5 83t43.5 60.5
v-1q12 15 31.5 35.5t41 39.5t41.5 32.5t33 13.5q12 0 25 -9t26 -23t25 -31.5t22 -34.5q12 -20 25 -39.5t29 -34.5t36.5 -24t47.5 -9h229l-67 379l109 180q3 -19 8.5 -60t12.5 -93t15 -110t15.5 -110.5t13.5 -93.5t9 -61q4 -20 24.5 -25.5t48.5 -5.5h189l-92 542l109 186
l100 -708z" />
    <glyph glyph-name="uniFDFC" unicode="&#x631;&#xfef3;&#xfe8e;&#x644;" horiz-adv-x="1767" arabic-form="isolated" 
d="M1516 537q30 -31 59 -69.5t52 -85.5t37 -104t14 -124q0 -53 -10.5 -108.5t-29 -108t-45 -99.5t-58 -82t-67.5 -55.5t-75 -20.5q-46 0 -97.5 19.5t-119.5 57.5l-48 -69l-97 62l-43 -62l-125 79l91 132l94 -63l45 63l103 -67q18 -5 34.5 -8t37.5 -3q43 0 84.5 18.5t79 47.5
t69 65t54.5 71.5t36 67t13 51.5q0 16 -15.5 41.5t-39.5 54t-53.5 56.5t-57.5 49zM1004 1q-23 0 -41.5 15t-26.5 26v-2q-14 18 -20 48.5t-9 75.5q-4 63 -8 118.5t-8 108.5q-5 67 -10 135t-10 138t-10.5 144t-11.5 155l104 186l56 -893q2 -27 12.5 -46.5t39.5 -19.5h150
q-4 22 -13 42.5t-21 39.5t-25 35.5t-25 30.5l75 192q19 -29 37.5 -65.5t33.5 -75t24 -76t9 -68.5q0 -30 -5 -62.5t-13.5 -64t-18.5 -62t-19 -55.5h-246zM694 807q7 -120 13.5 -234.5t12 -205t8.5 -148.5t3 -64q0 -54 -4.5 -92.5t-11.5 -68t-16 -52.5t-19 -45
q-5 -10 -9.5 -20.5t-9.5 -20.5q-36 -27 -75.5 -51t-82.5 -42.5t-88 -29.5t-91 -11q-70 0 -116.5 24t-75 63t-40.5 88t-12 99q0 59 10.5 111.5t27 99t36.5 87.5t39 76l33 -13q-13 -39 -22 -70.5t-15 -61.5t-9 -60.5t-3 -66.5q0 -46 13 -80t36.5 -56t55.5 -33t71 -11
q36 0 76.5 9t80 23.5t75.5 33.5t63 39l-78 877q-16 18 -26 42t-10 48l102 143h19q1 -20 4 -36t16.5 -35t42 -45.5t80.5 -67.5z" />
    <glyph glyph-name="uni06440645.init" unicode="&#xfedf;&#xfee4;" horiz-adv-x="692" arabic-form="initial" 
d="M297 789l25 -397q2 -27 9.5 -52t24.5 -34q27 -14 51 -24.5t47 -20.5q32 -14 60 -27.5t48.5 -30.5t32.5 -40t12 -56q0 -59 -21 -110.5t-58 -110.5q-27 19 -58 41.5t-62.5 43t-61 38t-53.5 27.5q-22 9 -45 12t-43 3q-19 0 -35 -5.5t-33 -13.5q-26 -11 -62.5 -21.5
t-74.5 -10.5q-8 0 -22.5 4t-28.5 13t-24 22.5t-10 32.5v61q0 20 10 34t24 23t28.5 13t22.5 4q14 0 31.5 2t35 5.5t34 7.5t28.5 9q22 8 45.5 16t46.5 10l-65 644q-23 23 -32 52t-9 58l114 146h25q0 -23 5 -44t21.5 -44.5t47.5 -53t84 -70.5z" />
    <glyph glyph-name="uni062806D2.fina" unicode="&#xfe92;&#xfbaf;" horiz-adv-x="944" 
d="M890 0q-30 0 -54 7.5t-44 23t-37.5 40t-35.5 59.5q-15 29 -26 51.5t-21 38t-20 23.5t-22 8q-7 0 -17 -9.5t-21.5 -23.5t-23.5 -30.5t-22 -31.5q-19 -28 -34 -47t-23 -27q-19 -16 -46.5 -27.5t-56.5 -24.5q-23 -10 -49 -21t-51 -24t-45 -26.5t-29 -27.5q12 -6 31 -10.5
t42.5 -7.5t48.5 -4.5t48 -1.5h1135l7 -38q-31 -12 -77.5 -31t-99 -39.5t-106 -38.5t-97.5 -29q-22 -5 -40.5 -8.5t-32.5 -3.5h-748q-99 0 -159.5 32t-83.5 76q13 30 36.5 78.5t49.5 98t50.5 90.5t39.5 57q22 17 60 35t80 38t77.5 37t46.5 23q11 7 23.5 26.5t20.5 32.5
q15 24 30.5 46t30.5 39t30 27.5t29 10.5q16 0 31 -7.5t32 -27.5t38.5 -55.5t50.5 -92.5q11 -21 20.5 -35.5t21.5 -23.5t27.5 -13t38.5 -4v-207h-54zM573 -584l-165 101l107 143l165 -103z" />
    <glyph glyph-name="uni062A06D2.fina" unicode="&#xfe98;&#xfbaf;" horiz-adv-x="944" 
d="M890 0q-30 0 -54 7.5t-44 23t-37.5 40t-35.5 59.5q-15 29 -26 51.5t-21 38t-20 23.5t-22 8q-7 0 -17 -9.5t-21.5 -23.5t-23.5 -30.5t-22 -31.5q-19 -28 -34 -47t-23 -27q-19 -16 -46.5 -27.5t-56.5 -24.5q-23 -10 -49 -21t-51 -24t-45 -26.5t-29 -27.5q12 -6 31 -10.5
t42.5 -7.5t48.5 -4.5t48 -1.5h1135l7 -38q-31 -12 -77.5 -31t-99 -39.5t-106 -38.5t-97.5 -29q-22 -5 -40.5 -8.5t-32.5 -3.5h-748q-99 0 -159.5 32t-83.5 76q13 30 36.5 78.5t49.5 98t50.5 90.5t39.5 57q22 17 60 35t80 38t77.5 37t46.5 23q11 7 23.5 26.5t20.5 32.5
q15 24 30.5 46t30.5 39t30 27.5t29 10.5q16 0 31 -7.5t32 -27.5t38.5 -55.5t50.5 -92.5q11 -21 20.5 -35.5t21.5 -23.5t27.5 -13t38.5 -4v-207h-54zM802 586l-121 72l-55 -72l-150 89l103 137l119 -74l57 74l150 -92z" />
    <glyph glyph-name="uni062B06D2.fina" unicode="&#xfe9c;&#xfbaf;" horiz-adv-x="944" 
d="M890 0q-30 0 -54 7.5t-44 23t-37.5 40t-35.5 59.5q-15 29 -26 51.5t-21 38t-20 23.5t-22 8q-7 0 -17 -9.5t-21.5 -23.5t-23.5 -30.5t-22 -31.5q-19 -28 -34 -47t-23 -27q-19 -16 -46.5 -27.5t-56.5 -24.5q-23 -10 -49 -21t-51 -24t-45 -26.5t-29 -27.5q12 -6 31 -10.5
t42.5 -7.5t48.5 -4.5t48 -1.5h1135l7 -38q-31 -12 -77.5 -31t-99 -39.5t-106 -38.5t-97.5 -29q-22 -5 -40.5 -8.5t-32.5 -3.5h-748q-99 0 -159.5 32t-83.5 76q13 30 36.5 78.5t49.5 98t50.5 90.5t39.5 57q22 17 60 35t80 38t77.5 37t46.5 23q11 7 23.5 26.5t20.5 32.5
q15 24 30.5 46t30.5 39t30 27.5t29 10.5q16 0 31 -7.5t32 -27.5t38.5 -55.5t50.5 -92.5q11 -21 20.5 -35.5t21.5 -23.5t27.5 -13t38.5 -4v-207h-54zM693 767l-153 93l100 133l153 -95zM805 557l-121 72l-55 -72l-150 89l103 137l119 -74l57 74l150 -92z" />
    <glyph glyph-name="uni064606D2.fina" unicode="&#xfee8;&#xfbaf;" horiz-adv-x="944" 
d="M890 0q-30 0 -54 7.5t-44 23t-37.5 40t-35.5 59.5q-15 29 -26 51.5t-21 38t-20 23.5t-22 8q-7 0 -17 -9.5t-21.5 -23.5t-23.5 -30.5t-22 -31.5q-19 -28 -34 -47t-23 -27q-19 -16 -46.5 -27.5t-56.5 -24.5q-23 -10 -49 -21t-51 -24t-45 -26.5t-29 -27.5q12 -6 31 -10.5
t42.5 -7.5t48.5 -4.5t48 -1.5h1135l7 -38q-31 -12 -77.5 -31t-99 -39.5t-106 -38.5t-97.5 -29q-22 -5 -40.5 -8.5t-32.5 -3.5h-748q-99 0 -159.5 32t-83.5 76q13 30 36.5 78.5t49.5 98t50.5 90.5t39.5 57q22 17 60 35t80 38t77.5 37t46.5 23q11 7 23.5 26.5t20.5 32.5
q15 24 30.5 46t30.5 39t30 27.5t29 10.5q16 0 31 -7.5t32 -27.5t38.5 -55.5t50.5 -92.5q11 -21 20.5 -35.5t21.5 -23.5t27.5 -13t38.5 -4v-207h-54zM732 558l-165 101l107 143l165 -103z" />
    <glyph glyph-name="uni064A06D2.fina" unicode="&#xfef4;&#xfbaf;" horiz-adv-x="944" 
d="M890 0q-30 0 -54 7.5t-44 23t-37.5 40t-35.5 59.5q-15 29 -26 51.5t-21 38t-20 23.5t-22 8q-7 0 -17 -9.5t-21.5 -23.5t-23.5 -30.5t-22 -31.5q-19 -28 -34 -47t-23 -27q-19 -16 -46.5 -27.5t-56.5 -24.5q-23 -10 -49 -21t-51 -24t-45 -26.5t-29 -27.5q12 -6 31 -10.5
t42.5 -7.5t48.5 -4.5t48 -1.5h1135l7 -38q-31 -12 -77.5 -31t-99 -39.5t-106 -38.5t-97.5 -29q-22 -5 -40.5 -8.5t-32.5 -3.5h-748q-99 0 -159.5 32t-83.5 76q13 30 36.5 78.5t49.5 98t50.5 90.5t39.5 57q22 17 60 35t80 38t77.5 37t46.5 23q11 7 23.5 26.5t20.5 32.5
q15 24 30.5 46t30.5 39t30 27.5t29 10.5q16 0 31 -7.5t32 -27.5t38.5 -55.5t50.5 -92.5q11 -21 20.5 -35.5t21.5 -23.5t27.5 -13t38.5 -4v-207h-54zM643 -567l-121 72l-55 -72l-150 89l103 137l119 -74l57 74l150 -92z" />
    <glyph glyph-name="uni067906D2.fina" unicode="&#xfb69;&#xfbaf;" horiz-adv-x="944" 
d="M890 0q-30 0 -54 7.5t-44 23t-37.5 40t-35.5 59.5q-15 29 -26 51.5t-21 38t-20 23.5t-22 8q-7 0 -17 -9.5t-21.5 -23.5t-23.5 -30.5t-22 -31.5q-19 -28 -34 -47t-23 -27q-19 -16 -46.5 -27.5t-56.5 -24.5q-23 -10 -49 -21t-51 -24t-45 -26.5t-29 -27.5q12 -6 31 -10.5
t42.5 -7.5t48.5 -4.5t48 -1.5h1135l7 -38q-31 -12 -77.5 -31t-99 -39.5t-106 -38.5t-97.5 -29q-22 -5 -40.5 -8.5t-32.5 -3.5h-748q-99 0 -159.5 32t-83.5 76q13 30 36.5 78.5t49.5 98t50.5 90.5t39.5 57q22 17 60 35t80 38t77.5 37t46.5 23q11 7 23.5 26.5t20.5 32.5
q15 24 30.5 46t30.5 39t30 27.5t29 10.5q16 0 31 -7.5t32 -27.5t38.5 -55.5t50.5 -92.5q11 -21 20.5 -35.5t21.5 -23.5t27.5 -13t38.5 -4v-207h-54zM823 647q6 4 11 8t5 7q0 6 -4 16.5t-12.5 20t-22.5 16.5t-33 7q-17 0 -49 -22.5t-69 -52.5h174zM574 647q8 5 15 10t15 10
l-21 211l45 60h5q1 -15 2.5 -40.5t3.5 -57t4.5 -68t4.5 -73.5q20 15 39.5 30t38.5 27t36.5 19.5t34.5 7.5q14 0 31.5 -9t32.5 -22.5t25 -30.5t10 -32q0 -13 -6.5 -27.5t-16 -28.5t-20 -27.5t-19.5 -23.5h-284q-14 14 -30 26.5t-30 29.5l3 9h81z" />
    <glyph glyph-name="uni067A06D2.fina" unicode="&#xfb61;&#xfbaf;" horiz-adv-x="944" 
d="M890 0q-30 0 -54 7.5t-44 23t-37.5 40t-35.5 59.5q-15 29 -26 51.5t-21 38t-20 23.5t-22 8q-7 0 -17 -9.5t-21.5 -23.5t-23.5 -30.5t-22 -31.5q-19 -28 -34 -47t-23 -27q-19 -16 -46.5 -27.5t-56.5 -24.5q-23 -10 -49 -21t-51 -24t-45 -26.5t-29 -27.5q12 -6 31 -10.5
t42.5 -7.5t48.5 -4.5t48 -1.5h1135l7 -38q-31 -12 -77.5 -31t-99 -39.5t-106 -38.5t-97.5 -29q-22 -5 -40.5 -8.5t-32.5 -3.5h-748q-99 0 -159.5 32t-83.5 76q13 30 36.5 78.5t49.5 98t50.5 90.5t39.5 57q22 17 60 35t80 38t77.5 37t46.5 23q11 7 23.5 26.5t20.5 32.5
q15 24 30.5 46t30.5 39t30 27.5t29 10.5q16 0 31 -7.5t32 -27.5t38.5 -55.5t50.5 -92.5q11 -21 20.5 -35.5t21.5 -23.5t27.5 -13t38.5 -4v-207h-54zM719 571l-150 89l79 105l-88 52l103 137l150 -92l-79 -104l88 -53z" />
    <glyph glyph-name="uni067F06D2.fina" unicode="&#xfb65;&#xfbaf;" horiz-adv-x="944" 
d="M890 0q-30 0 -54 7.5t-44 23t-37.5 40t-35.5 59.5q-15 29 -26 51.5t-21 38t-20 23.5t-22 8q-7 0 -17 -9.5t-21.5 -23.5t-23.5 -30.5t-22 -31.5q-19 -28 -34 -47t-23 -27q-19 -16 -46.5 -27.5t-56.5 -24.5q-23 -10 -49 -21t-51 -24t-45 -26.5t-29 -27.5q12 -6 31 -10.5
t42.5 -7.5t48.5 -4.5t48 -1.5h1135l7 -38q-31 -12 -77.5 -31t-99 -39.5t-106 -38.5t-97.5 -29q-22 -5 -40.5 -8.5t-32.5 -3.5h-748q-99 0 -159.5 32t-83.5 76q13 30 36.5 78.5t49.5 98t50.5 90.5t39.5 57q22 17 60 35t80 38t77.5 37t46.5 23q11 7 23.5 26.5t20.5 32.5
q15 24 30.5 46t30.5 39t30 27.5t29 10.5q16 0 31 -7.5t32 -27.5t38.5 -55.5t50.5 -92.5q11 -21 20.5 -35.5t21.5 -23.5t27.5 -13t38.5 -4v-207h-54zM607 773l96 -59l60 80l-96 56zM802 586l-121 72l-55 -72l-150 89l85 113l-94 55l103 137l120 -74l56 74l150 -92l-85 -111
l94 -57z" />
    <glyph glyph-name="uni067E06D2.fina" unicode="&#xfb59;&#xfbaf;" horiz-adv-x="944" 
d="M890 0q-30 0 -54 7.5t-44 23t-37.5 40t-35.5 59.5q-15 29 -26 51.5t-21 38t-20 23.5t-22 8q-7 0 -17 -9.5t-21.5 -23.5t-23.5 -30.5t-22 -31.5q-19 -28 -34 -47t-23 -27q-19 -16 -46.5 -27.5t-56.5 -24.5q-23 -10 -49 -21t-51 -24t-45 -26.5t-29 -27.5q12 -6 31 -10.5
t42.5 -7.5t48.5 -4.5t48 -1.5h1135l7 -38q-31 -12 -77.5 -31t-99 -39.5t-106 -38.5t-97.5 -29q-22 -5 -40.5 -8.5t-32.5 -3.5h-748q-99 0 -159.5 32t-83.5 76q13 30 36.5 78.5t49.5 98t50.5 90.5t39.5 57q22 17 60 35t80 38t77.5 37t46.5 23q11 7 23.5 26.5t20.5 32.5
q15 24 30.5 46t30.5 39t30 27.5t29 10.5q16 0 31 -7.5t32 -27.5t38.5 -55.5t50.5 -92.5q11 -21 20.5 -35.5t21.5 -23.5t27.5 -13t38.5 -4v-207h-54zM578 -769l-153 93l100 133l153 -95zM640 -560l-121 72l-55 -72l-150 89l103 137l119 -74l57 74l150 -92z" />
    <glyph glyph-name="uni0621" unicode="&#x621;" horiz-adv-x="638" arabic-form="isolated" 
d="M507 90q-59 -13 -119 -29.5t-118 -45.5q-33 -17 -69 -46t-58 -59l-37 15q8 38 25 79.5t39 72.5q-39 20 -64.5 53.5t-25.5 71.5q0 26 13 58.5t34.5 66t50 65.5t59.5 57t63.5 40t61.5 15q42 0 63.5 -27.5t21.5 -65.5q0 -29 -9.5 -53t-29.5 -47q-17 14 -38 22t-43 12
q-21 3 -46.5 0.5t-46.5 -11t-34.5 -22t-10.5 -31.5q0 -17 13 -30.5t33 -23t45.5 -14.5t51.5 -5q15 0 36 3q42 6 97.5 21.5t114.5 35.5z" />
    <glyph glyph-name="uni0622" unicode="&#x622;" horiz-adv-x="469" arabic-form="isolated" 
d="M216 -27l-81 973l148 211q9 -178 15.5 -310t11 -227t7 -157.5t4 -99.5t2 -54t0.5 -22q0 -46 -7.5 -93t-20 -89t-29.5 -76.5t-35 -55.5h-15zM410 1284q-8 -5 -15.5 -10.5t-15.5 -10.5q-46 -31 -85.5 -53.5t-74.5 -22.5q-37 0 -70 13.5t-50 43.5l-71 -58v46l93 90h14
q20 -27 53.5 -43t79.5 -16q24 0 62 15t80 38v-32z" />
    <glyph glyph-name="uni0622.fina" unicode="&#x622;" horiz-adv-x="497" arabic-form="final" 
d="M278 0q-14 0 -27 4.5t-24.5 11.5t-20 14t-12.5 13q-17 21 -23 52t-10 76q-17 195 -32 397t-32 401l130 188l50 -895q2 -23 10 -39t32 -16h178v-207h-219zM382 1276q-8 -5 -15.5 -10.5t-15.5 -10.5q-46 -31 -85.5 -53.5t-74.5 -22.5q-37 0 -70 13.5t-50 43.5l-71 -58v46
l93 90h14q20 -27 53.5 -43t79.5 -16q24 0 62 15t80 38v-32z" />
    <glyph glyph-name="uni0623" unicode="&#x623;" horiz-adv-x="464" arabic-form="isolated" 
d="M214 -27l-79 863l144 205q2 -41 4.5 -95t5.5 -115t6.5 -126t6.5 -127t6 -117.5t5 -98.5t3.5 -69t1.5 -30q0 -51 -10 -95.5t-23.5 -81.5t-29 -66t-25.5 -47h-16zM306 1130q-32 -8 -71 -19.5t-66 -25.5q-20 -10 -38 -28.5t-32 -38.5l-25 11q4 19 17 45t32 44
q-29 11 -48 30.5t-19 41.5t16 51t40 54.5t52 43.5t52 18q25 0 37.5 -13.5t12.5 -31.5q0 -26 -21 -51q-14 11 -31 17.5t-36 6.5q-21 0 -41 -12t-20 -35q0 -13 8.5 -23.5t22 -18t30 -11.5t31.5 -4q23 0 56.5 9t74.5 23z" />
    <glyph glyph-name="uni0623.fina" unicode="&#x623;" horiz-adv-x="497" arabic-form="final" 
d="M278 0q-14 0 -27 4.5t-24.5 11.5t-20 14t-12.5 13q-17 21 -23 52t-10 76q-8 97 -15 175.5t-13 153.5t-13 154.5t-15 178.5l130 175l42 -746q2 -23 10 -39t32 -16h178v-207h-219zM278 1128q-32 -8 -71 -19.5t-66 -25.5q-20 -10 -38 -28.5t-32 -38.5l-25 11q4 19 17 45
t32 44q-29 11 -48 30.5t-19 41.5t16 51t40 54.5t52 43.5t52 18q25 0 37.5 -13.5t12.5 -31.5q0 -26 -21 -51q-14 11 -31 17.5t-36 6.5q-21 0 -41 -12t-20 -35q0 -13 8.5 -23.5t22 -18t30 -11.5t31.5 -4q23 0 56.5 9t74.5 23z" />
    <glyph glyph-name="uni0624" unicode="&#x624;" horiz-adv-x="772" arabic-form="isolated" 
d="M602 256q-8 19 -23.5 43t-34 46t-38.5 37t-37 15q-18 0 -35 -9t-31 -22.5t-23.5 -29t-12.5 -28.5q3 -8 17 -18.5t35 -19.5t48.5 -15t57.5 -6q11 0 34.5 2t42.5 5zM606 183q-8 -19 -20.5 -39t-29 -36t-35.5 -26.5t-41 -10.5q-45 0 -82.5 11t-64.5 31t-42 48.5t-15 64.5
q0 76 22.5 142t57.5 115t77.5 77t81.5 28q44 0 82 -39.5t65.5 -100t43.5 -131.5t16 -134q0 -62 -11.5 -127.5t-33.5 -127.5t-53.5 -117t-71 -96.5t-87.5 -65.5t-102 -24q-33 0 -77.5 9.5t-97 27t-110.5 42t-118 54.5l16 39q31 -9 55 -16.5t45 -12.5t39.5 -7.5t38.5 -2.5
q62 0 136.5 32.5t144.5 85t127 118t84 131.5q-2 14 -7 31t-9 27h-24zM544 732q-32 -8 -71 -19.5t-66 -25.5q-20 -10 -38 -28.5t-32 -38.5l-25 11q4 19 17 45t32 44q-29 11 -48 30.5t-19 41.5t16 51t40 54.5t52 43.5t52 18q25 0 37.5 -13.5t12.5 -31.5q0 -26 -21 -51
q-14 11 -31 17.5t-36 6.5q-21 0 -41 -12t-20 -35q0 -13 8.5 -23.5t22 -18t30 -11.5t31.5 -4q23 0 56.5 9t74.5 23z" />
    <glyph glyph-name="uni0624.fina" unicode="&#x624;" horiz-adv-x="917" arabic-form="final" 
d="M618 207q-5 21 -19 46.5t-32 47.5t-38.5 36.5t-38.5 14.5q-24 0 -42.5 -9t-32 -22t-21.5 -28t-12 -27q10 -17 39.5 -32t90.5 -23q6 -1 19.5 -1.5t29 -1l31 -1t26.5 -0.5zM731 0q-12 -80 -45.5 -160t-82 -143.5t-108.5 -103t-125 -39.5q-34 0 -81 10t-101.5 27.5
t-112.5 42t-114 53.5l16 39q31 -9 55 -16t45 -11.5t40.5 -6.5t39.5 -2q36 0 81 12t92 33t93.5 50.5t86.5 64.5t70.5 74t45.5 80q-26 0 -56.5 0.5t-62.5 3.5q-46 5 -85.5 15.5t-69 30.5t-46.5 50.5t-17 75.5q0 76 26.5 142.5t65.5 116t83.5 78t81.5 28.5q36 0 69.5 -30
t60 -78t44 -108.5t22.5 -121.5h175v-207h-186zM544 672q-32 -8 -71 -19.5t-66 -25.5q-20 -10 -38 -28.5t-32 -38.5l-25 11q4 19 17 45t32 44q-29 11 -48 30.5t-19 41.5t16 51t40 54.5t52 43.5t52 18q25 0 37.5 -13.5t12.5 -31.5q0 -26 -21 -51q-14 11 -31 17.5t-36 6.5
q-21 0 -41 -12t-20 -35q0 -13 8.5 -23.5t22 -18t30 -11.5t31.5 -4q23 0 56.5 9t74.5 23z" />
    <glyph glyph-name="uni0625" unicode="&#x625;" horiz-adv-x="469" arabic-form="isolated" 
d="M216 -27l-81 973l148 211q9 -178 15.5 -310t11 -227t7 -157.5t4 -99.5t2 -54t0.5 -22q0 -46 -7.5 -93t-20 -89t-29.5 -76.5t-35 -55.5h-15zM311 -308q-32 -8 -71 -19.5t-66 -25.5q-20 -10 -38 -28.5t-32 -38.5l-25 11q4 19 17 45t32 44q-29 11 -48 30.5t-19 41.5t16 51
t40 54.5t52 43.5t52 18q25 0 37.5 -13.5t12.5 -31.5q0 -26 -21 -51q-14 11 -31 17.5t-36 6.5q-21 0 -41 -12t-20 -35q0 -13 8.5 -23.5t22 -18t30 -11.5t31.5 -4q23 0 56.5 9t74.5 23z" />
    <glyph glyph-name="uni0625.fina" unicode="&#x625;" horiz-adv-x="497" arabic-form="final" 
d="M278 0q-14 0 -27 4.5t-24.5 11.5t-20 14t-12.5 13q-17 21 -23 52t-10 76q-17 195 -32 397t-32 401l130 188l50 -895q2 -23 10 -39t32 -16h178v-207h-219zM337 -284q-32 -8 -71 -19.5t-66 -25.5q-20 -10 -38 -28.5t-32 -38.5l-25 11q4 19 17 45t32 44q-29 11 -48 30.5
t-19 41.5t16 51t40 54.5t52 43.5t52 18q25 0 37.5 -13.5t12.5 -31.5q0 -26 -21 -51q-14 11 -31 17.5t-36 6.5q-21 0 -41 -12t-20 -35q0 -13 8.5 -23.5t22 -18t30 -11.5t31.5 -4q23 0 56.5 9t74.5 23z" />
    <glyph glyph-name="uni0626" unicode="&#x626;" horiz-adv-x="1122" arabic-form="isolated" 
d="M975 406q-2 26 -20.5 37t-46.5 11q-18 0 -44.5 -10.5t-56 -27.5t-58.5 -38.5t-52 -44t-37.5 -44t-14.5 -37.5q0 -10 52 -28.5t161 -25.5q40 -3 72.5 -9t55 -22.5t34.5 -46.5t12 -79q0 -23 -6.5 -50.5t-16.5 -56.5t-22.5 -58t-24.5 -54q-41 -30 -104.5 -67t-138.5 -69.5
t-156 -54.5t-157 -22q-95 0 -158 27t-100.5 70.5t-52.5 98.5t-15 110q0 64 13.5 120t35 105.5t47 93t49.5 81.5l39 -16q-37 -81 -56.5 -149.5t-19.5 -134.5q0 -46 21 -82t55.5 -61t79.5 -38t93 -13q42 0 90 8t97 21t96 29.5t87.5 34t73 34.5t51.5 30q-12 4 -32 7t-44.5 5.5
t-52.5 4.5t-55 5q-42 4 -80 13.5t-66.5 25.5t-45 39.5t-16.5 55.5q0 54 19 115t51.5 120.5t75.5 114t90 96t95 66t92 24.5q74 0 74 -111q0 -10 -4 -28t-10 -39.5t-13 -44t-14 -41.5h-21zM371 460q-32 -8 -71 -19.5t-66 -25.5q-20 -10 -38 -28.5t-32 -38.5l-25 11q4 19 17 45
t32 44q-29 11 -48 30.5t-19 41.5t16 51t40 54.5t52 43.5t52 18q25 0 37.5 -13.5t12.5 -31.5q0 -26 -21 -51q-14 11 -31 17.5t-36 6.5q-21 0 -41 -12t-20 -35q0 -13 8.5 -23.5t22 -18t30 -11.5t31.5 -4q23 0 56.5 9t74.5 23z" />
    <glyph glyph-name="uni0626.init" unicode="&#x626;" horiz-adv-x="456" arabic-form="initial" 
d="M0 0q-12 0 -26 5t-26 14.5t-20 24t-8 32.5v55q0 19 8 33.5t20 24t26 14t26 4.5h268q-6 21 -19 47t-29 51.5t-33 47.5t-29 35l104 164q20 -29 39.5 -67.5t35 -79.5t25 -81.5t9.5 -73.5q0 -31 -6 -64t-15 -66t-20 -63.5t-21 -56.5h-309zM296 676q-32 -8 -71 -19.5
t-66 -25.5q-20 -10 -38 -28.5t-32 -38.5l-25 11q4 19 17 45t32 44q-29 11 -48 30.5t-19 41.5t16 51t40 54.5t52 43.5t52 18q25 0 37.5 -13.5t12.5 -31.5q0 -26 -21 -51q-14 11 -31 17.5t-36 6.5q-21 0 -41 -12t-20 -35q0 -13 8.5 -23.5t22 -18t30 -11.5t31.5 -4q23 0 56.5 9
t74.5 23z" />
    <glyph glyph-name="uni0626.medi" unicode="&#x626;" horiz-adv-x="560" arabic-form="medial" 
d="M383 0q-36 0 -57.5 3t-36.5 15t-25.5 36t-23.5 66h-14l-66 -120h-160q-10 0 -26 4.5t-31 13.5t-26 23t-11 32v58q0 19 11 33t26 23.5t30.5 14.5t25.5 5h194l27 241l155 83l-43 -262q3 -20 13 -32.5t24.5 -19t33 -8.5t38.5 -2h119v-207h-177zM351 636q-32 -8 -71 -19.5
t-66 -25.5q-20 -10 -38 -28.5t-32 -38.5l-25 11q4 19 17 45t32 44q-29 11 -48 30.5t-19 41.5t16 51t40 54.5t52 43.5t52 18q25 0 37.5 -13.5t12.5 -31.5q0 -26 -21 -51q-14 11 -31 17.5t-36 6.5q-21 0 -41 -12t-20 -35q0 -13 8.5 -23.5t22 -18t30 -11.5t31.5 -4q23 0 56.5 9
t74.5 23z" />
    <glyph glyph-name="uni0626.fina" unicode="&#x626;" horiz-adv-x="883" arabic-form="final" 
d="M883 124q20 -13 43.5 -32.5t46.5 -43.5q13 -14 29 -36.5t27 -46.5l-78 -224q-36 -28 -99.5 -55.5t-139.5 -49.5t-156.5 -35.5t-149.5 -13.5q-95 0 -158 27t-100.5 70.5t-52.5 98.5t-15 110q0 64 13 119t33.5 103.5t45 90.5t48.5 80l36 -14q-35 -81 -52 -147.5t-17 -131.5
q0 -45 20 -81t54 -61t79.5 -38.5t96.5 -13.5q78 0 155.5 8.5t144.5 22t118.5 31.5t77.5 38q-16 18 -48.5 38t-76 37t-95.5 29.5t-107 14.5q19 51 39.5 101t40.5 88h197v-83zM391 459q-32 -8 -71 -19.5t-66 -25.5q-20 -10 -38 -28.5t-32 -38.5l-25 11q4 19 17 45t32 44
q-29 11 -48 30.5t-19 41.5t16 51t40 54.5t52 43.5t52 18q25 0 37.5 -13.5t12.5 -31.5q0 -26 -21 -51q-14 11 -31 17.5t-36 6.5q-21 0 -41 -12t-20 -35q0 -13 8.5 -23.5t22 -18t30 -11.5t31.5 -4q23 0 56.5 9t74.5 23z" />
    <glyph glyph-name="uni0627" unicode="&#x627;" horiz-adv-x="469" arabic-form="isolated" 
d="M216 -27l-81 973l148 211q9 -178 15.5 -310t11 -227t7 -157.5t4 -99.5t2 -54t0.5 -22q0 -46 -7.5 -93t-20 -89t-29.5 -76.5t-35 -55.5h-15z" />
    <glyph glyph-name="uni0627.fina" unicode="&#x627;" horiz-adv-x="497" arabic-form="final" 
d="M278 0q-14 0 -27 4.5t-24.5 11.5t-20 14t-12.5 13q-17 21 -23 52t-10 76q-17 195 -32 397t-32 401l130 188l50 -895q2 -23 10 -39t32 -16h178v-207h-219z" />
    <glyph glyph-name="uni0628" unicode="&#x628;" horiz-adv-x="1275" arabic-form="isolated" 
d="M354 0q-86 0 -139.5 21.5t-83.5 53t-40.5 68.5t-10.5 68q0 37 6.5 71t18.5 66.5t29.5 65t39.5 67.5l36 -15q-17 -40 -30 -80.5t-13 -66.5q0 -17 8.5 -36.5t32.5 -36.5t68 -28t116 -11h700q0 21 -11 46.5t-28 50.5t-36.5 47t-36.5 37l104 168q21 -32 40 -70.5t34 -79
t23.5 -81t8.5 -75.5q0 -28 -4 -54t-11.5 -55t-19.5 -63t-27 -78h-774zM667 -370l-165 101l107 143l165 -103z" />
    <glyph glyph-name="uni0628.init" unicode="&#x628;" horiz-adv-x="456" arabic-form="initial" 
d="M0 0q-12 0 -26 5t-26 14.5t-20 24t-8 32.5v55q0 19 8 33.5t20 24t26 14t26 4.5h268q-6 21 -19 47t-29 51.5t-33 47.5t-29 35l104 164q20 -29 39.5 -67.5t35 -79.5t25 -81.5t9.5 -73.5q0 -31 -6 -64t-15 -66t-20 -63.5t-21 -56.5h-309zM192 -370l-165 101l107 143
l165 -103z" />
    <glyph glyph-name="uni0628.medi" unicode="&#x628;" horiz-adv-x="560" arabic-form="medial" 
d="M383 0q-36 0 -57.5 3t-36.5 15t-25.5 36t-23.5 66h-14l-66 -120h-160q-10 0 -26 4.5t-31 13.5t-26 23t-11 32v58q0 19 11 33t26 23.5t30.5 14.5t25.5 5h194l27 241l155 83l-43 -262q3 -20 13 -32.5t24.5 -19t33 -8.5t38.5 -2h119v-207h-177zM262 -340l-165 101l107 143
l165 -103z" />
    <glyph glyph-name="uni0628.fina" unicode="&#x628;" horiz-adv-x="1371" arabic-form="final" 
d="M1255 0q-36 0 -58 3t-37 15t-25.5 36t-23.5 66h-14l-66 -120h-676q-87 0 -140.5 21.5t-83.5 53t-40.5 68.5t-10.5 68q0 74 25.5 138t68.5 132l36 -15q-17 -38 -30 -77.5t-13 -68.5q0 -18 8.5 -37.5t32.5 -36.5t68 -28t115 -11h673l27 242l155 83l-43 -263q3 -20 12.5 -32
t24 -19t33.5 -9t41 -2h57v-207h-116zM667 -370l-165 101l107 143l165 -103z" />
    <glyph glyph-name="uni0629" unicode="&#x629;" horiz-adv-x="652" arabic-form="isolated" 
d="M293 664q-4 -10 -6 -15.5t-2 -15.5q0 -6 7.5 -18.5t30.5 -26.5q23 -15 43.5 -26.5t38.5 -22.5q45 -27 76 -47.5t50 -43.5t27.5 -54t8.5 -78q0 -11 -1.5 -26.5t-3.5 -32t-4.5 -31.5t-5.5 -25q-11 -41 -25.5 -79.5t-34.5 -77.5q-17 -14 -43.5 -28.5t-61.5 -26t-78 -19
t-94 -7.5q-72 0 -104.5 38.5t-32.5 113.5q0 45 9 92t23 91.5t31 85t33 73.5q-7 7 -10 14.5t-3 23.5q0 13 11 38t27 52.5t34 53.5t32 41zM492 216q0 15 -16.5 33t-43.5 37t-61.5 38t-69.5 35q-14 8 -35 19.5t-30 19.5q-9 -13 -22.5 -37t-26 -51t-22 -53.5t-9.5 -44.5
q0 -6 4.5 -15t14.5 -16.5t27 -13t43 -5.5q39 0 82 5.5t80 13.5t61 17.5t24 17.5zM410 796l-121 72l-55 -72l-150 89l103 137l119 -74l57 74l150 -92z" />
    <glyph glyph-name="uni0629.fina" unicode="&#x629;" horiz-adv-x="809" arabic-form="final" 
d="M488 352l-8 220q-4 -8 -9 -18.5t-10.5 -21.5t-11 -20t-10.5 -12t-21 -10t-38.5 -17t-48 -21t-50 -20.5t-44 -17.5t-29.5 -11l-7 -13q24 -8 55.5 -15.5t66 -14t70 -12t67.5 -9.5zM676 0q-20 0 -39 6.5t-35.5 16.5t-30.5 23t-24 26q-20 25 -33 76t-18 110h-26l-81 -124
q-20 4 -46.5 9.5t-54 12t-55 13.5t-49.5 14q-33 11 -53.5 21.5t-31.5 23.5t-15 28t-4 35t13 54.5t31 71t37 68t31 45.5q10 12 30 23t44.5 21.5t52.5 21t54 20.5t52.5 19.5t49.5 19.5q-1 9 -2 21.5t-1.5 26t-1.5 26t-1 20.5l105 123l13 -211q1 -14 2.5 -40t4.5 -59.5t6 -72.5
t6.5 -77.5t7 -74.5t7.5 -64q2 -15 10 -27.5t17 -17.5q14 -10 32.5 -15.5t52.5 -5.5h76v-207h-133zM397 856l-121 72l-55 -72l-150 89l103 137l119 -74l57 74l150 -92z" />
    <glyph glyph-name="uni062A" unicode="&#x62a;" horiz-adv-x="1275" arabic-form="isolated" 
d="M354 0q-86 0 -139.5 21.5t-83.5 53t-40.5 68.5t-10.5 68q0 37 6.5 71t18.5 66.5t29.5 65t39.5 67.5l36 -15q-17 -40 -30 -80.5t-13 -66.5q0 -17 8.5 -36.5t32.5 -36.5t68 -28t116 -11h700q0 21 -11 46.5t-28 50.5t-36.5 47t-36.5 37l104 168q21 -32 40 -70.5t34 -79
t23.5 -81t8.5 -75.5q0 -28 -4 -54t-11.5 -55t-19.5 -63t-27 -78h-774zM737 596l-121 72l-55 -72l-150 89l103 137l119 -74l57 74l150 -92z" />
    <glyph glyph-name="uni062A.init" unicode="&#x62a;" horiz-adv-x="456" arabic-form="initial" 
d="M0 0q-12 0 -26 5t-26 14.5t-20 24t-8 32.5v55q0 19 8 33.5t20 24t26 14t26 4.5h268q-6 21 -19 47t-29 51.5t-33 47.5t-29 35l104 164q20 -29 39.5 -67.5t35 -79.5t25 -81.5t9.5 -73.5q0 -31 -6 -64t-15 -66t-20 -63.5t-21 -56.5h-309zM312 652l-121 72l-55 -72l-150 89
l103 137l119 -74l57 74l150 -92z" />
    <glyph glyph-name="uni062A.medi" unicode="&#x62a;" horiz-adv-x="560" arabic-form="medial" 
d="M383 0q-36 0 -57.5 3t-36.5 15t-25.5 36t-23.5 66h-14l-66 -120h-160q-10 0 -26 4.5t-31 13.5t-26 23t-11 32v58q0 19 11 33t26 23.5t30.5 14.5t25.5 5h194l27 241l155 83l-43 -262q3 -20 13 -32.5t24.5 -19t33 -8.5t38.5 -2h119v-207h-177zM342 621l-121 72l-55 -72
l-150 89l103 137l119 -74l57 74l150 -92z" />
    <glyph glyph-name="uni062A.fina" unicode="&#x62a;" horiz-adv-x="1371" arabic-form="final" 
d="M1255 0q-36 0 -58 3t-37 15t-25.5 36t-23.5 66h-14l-66 -120h-676q-87 0 -140.5 21.5t-83.5 53t-40.5 68.5t-10.5 68q0 74 25.5 138t68.5 132l36 -15q-17 -38 -30 -77.5t-13 -68.5q0 -18 8.5 -37.5t32.5 -36.5t68 -28t115 -11h673l27 242l155 83l-43 -263q3 -20 12.5 -32
t24 -19t33.5 -9t41 -2h57v-207h-116zM737 596l-121 72l-55 -72l-150 89l103 137l119 -74l57 74l150 -92z" />
    <glyph glyph-name="uni062B" unicode="&#x62b;" horiz-adv-x="1275" arabic-form="isolated" 
d="M354 0q-86 0 -139.5 21.5t-83.5 53t-40.5 68.5t-10.5 68q0 37 6.5 71t18.5 66.5t29.5 65t39.5 67.5l36 -15q-17 -40 -30 -80.5t-13 -66.5q0 -17 8.5 -36.5t32.5 -36.5t68 -28t116 -11h700q0 21 -11 46.5t-28 50.5t-36.5 47t-36.5 37l104 168q21 -32 40 -70.5t34 -79
t23.5 -81t8.5 -75.5q0 -28 -4 -54t-11.5 -55t-19.5 -63t-27 -78h-774zM628 788l-153 93l100 133l153 -95zM740 578l-121 72l-55 -72l-150 89l103 137l119 -74l57 74l150 -92z" />
    <glyph glyph-name="uni062B.init" unicode="&#x62b;" horiz-adv-x="456" arabic-form="initial" 
d="M0 0q-12 0 -26 5t-26 14.5t-20 24t-8 32.5v55q0 19 8 33.5t20 24t26 14t26 4.5h268q-6 21 -19 47t-29 51.5t-33 47.5t-29 35l104 164q20 -29 39.5 -67.5t35 -79.5t25 -81.5t9.5 -73.5q0 -31 -6 -64t-15 -66t-20 -63.5t-21 -56.5h-309zM203 844l-153 93l100 133l153 -95z
M315 634l-121 72l-55 -72l-150 89l103 137l119 -74l57 74l150 -92z" />
    <glyph glyph-name="uni062B.medi" unicode="&#x62b;" horiz-adv-x="560" arabic-form="medial" 
d="M383 0q-36 0 -57.5 3t-36.5 15t-25.5 36t-23.5 66h-14l-66 -120h-160q-10 0 -26 4.5t-31 13.5t-26 23t-11 32v58q0 19 11 33t26 23.5t30.5 14.5t25.5 5h194l27 241l155 83l-43 -262q3 -20 13 -32.5t24.5 -19t33 -8.5t38.5 -2h119v-207h-177zM233 813l-153 93l100 133
l153 -95zM345 603l-121 72l-55 -72l-150 89l103 137l119 -74l57 74l150 -92z" />
    <glyph glyph-name="uni062B.fina" unicode="&#x62b;" horiz-adv-x="1371" arabic-form="final" 
d="M1255 0q-36 0 -58 3t-37 15t-25.5 36t-23.5 66h-14l-66 -120h-676q-87 0 -140.5 21.5t-83.5 53t-40.5 68.5t-10.5 68q0 74 25.5 138t68.5 132l36 -15q-17 -38 -30 -77.5t-13 -68.5q0 -18 8.5 -37.5t32.5 -36.5t68 -28t115 -11h673l27 242l155 83l-43 -263q3 -20 12.5 -32
t24 -19t33.5 -9t41 -2h57v-207h-116zM628 788l-153 93l100 133l153 -95zM740 578l-121 72l-55 -72l-150 89l103 137l119 -74l57 74l150 -92z" />
    <glyph glyph-name="uni062C" unicode="&#x62c;" horiz-adv-x="1052" arabic-form="isolated" 
d="M1047 -507q-55 -21 -125 -46.5t-139.5 -47.5t-130 -37t-96.5 -15q-97 0 -165.5 18.5t-115.5 50t-75 73t-43 87t-19.5 92t-4.5 88.5q0 99 19.5 176t47 134.5t59 97t55.5 64.5q10 10 27 25t37 31.5t42.5 31.5t42.5 25q-23 1 -55.5 3t-66.5 3.5t-65.5 3t-53.5 1.5
q-35 0 -63.5 -12.5t-43.5 -34.5l-35 19q21 60 42 104t45.5 73t54.5 43.5t69 14.5q22 0 49.5 -2t59.5 -6q66 -7 182.5 -14.5t291.5 -7.5l-76 -207q-20 -2 -43 -4t-52 -7t-64.5 -14t-80.5 -23q-80 -26 -145.5 -75.5t-112.5 -114t-73 -139t-26 -150.5q0 -59 33 -101t91.5 -71.5
t138 -47.5t172.5 -27.5t195.5 -13t206.5 -3.5zM621 -232l-165 101l107 143l165 -103z" />
    <glyph glyph-name="uni062C.init" unicode="&#x62c;" horiz-adv-x="1082" arabic-form="initial" 
d="M919 164q-20 0 -44.5 3.5t-48.5 7.5t-46 7.5t-37 3.5q-30 0 -56 -5.5t-49.5 -15t-45 -21.5t-43.5 -25q-33 -20 -72 -41t-87 -38.5t-106.5 -28.5t-131.5 -11h-152q-12 0 -26 5t-26 14.5t-20 24t-8 32.5v55q0 19 8 33.5t20 24t26 14t26 4.5h190q68 0 126.5 10t107 25
t87 31.5t67.5 29.5q-42 14 -82.5 30.5t-78.5 31t-72 24t-63 9.5q-23 0 -41 -8t-32 -19.5t-23.5 -23.5t-13.5 -19l-36 19q19 55 39.5 101t44.5 79t52 51t62 18q48 0 118 -25.5t148 -63.5q42 -20 89.5 -43.5t98.5 -43.5t103.5 -33.5t105.5 -13.5zM487 -340l-165 101l107 143
l165 -103z" />
    <glyph glyph-name="uni062C.medi" unicode="&#x62c;" horiz-adv-x="1102" arabic-form="medial" 
d="M802 0q-72 0 -112.5 9.5t-60 30.5t-24 55t-4.5 83v29q-57 -60 -110 -100t-106.5 -64t-110.5 -33.5t-123 -9.5h-151q-6 0 -18.5 5t-25 14.5t-22 24t-9.5 32.5v55q0 19 9.5 33.5t22 24t25 14t18.5 4.5h231q70 0 127.5 15.5t103 36.5t79.5 43t57 35l-44 11q-25 6 -61 16
t-75.5 19t-78.5 15.5t-70 6.5q-21 0 -36.5 -8.5t-26.5 -21t-19 -26.5t-14 -24l-36 20q19 64 38 113.5t41.5 83t49.5 51t62 17.5q45 0 104 -12.5t127 -30.5q94 -25 206.5 -47.5t249.5 -22.5l-71 -210q-33 0 -69.5 3.5t-65.5 8.5q-51 0 -82.5 -11.5t-59.5 -28.5q6 -30 37 -41
t90 -11h308v-207h-300zM487 -340l-165 101l107 143l165 -103z" />
    <glyph glyph-name="uni062C.fina" unicode="&#x62c;" horiz-adv-x="962" arabic-form="final" 
d="M751 0q-59 0 -98 5t-62 24t-33 56t-10 101q0 20 2.5 43t6.5 45q-79 -29 -144.5 -79t-113 -113.5t-73.5 -137t-26 -149.5q0 -59 33.5 -101t92 -71.5t138.5 -47.5t173 -27.5t196 -13t207 -3.5l9 -38q-37 -14 -81 -30.5t-91 -32.5t-94 -31t-90 -26.5t-78.5 -18.5t-59.5 -7
q-97 0 -165.5 18.5t-115.5 50t-75 73t-43 87t-19.5 92t-4.5 88.5q0 99 19.5 177t48 137t60 99.5t55.5 65.5q10 10 26 24.5t34.5 29t38 28t36.5 22.5q-23 2 -53.5 4t-62 4t-61.5 3.5t-52 1.5q-35 0 -63.5 -8.5t-42.5 -27.5l-35 19q21 60 43.5 102.5t47.5 69.5t54 39.5
t65 12.5q22 0 49.5 -2t59.5 -6q66 -7 182.5 -14.5t291.5 -7.5l-76 -207q-20 -2 -43 -5t-46 -6.5t-44.5 -8t-38.5 -8.5q-3 -12 -5 -22t-2 -16q0 -18 15 -28t40 -14.5t56 -5.5t63 -1h170v-207h-211zM549 -308l-165 101l107 143l165 -103z" />
    <glyph glyph-name="uni062D" unicode="&#x62d;" horiz-adv-x="1052" arabic-form="isolated" 
d="M1047 -507q-55 -21 -125 -46.5t-139.5 -47.5t-130 -37t-96.5 -15q-97 0 -165.5 18.5t-115.5 50t-75 73t-43 87t-19.5 92t-4.5 88.5q0 99 19.5 176t47 134.5t59 97t55.5 64.5q10 10 27 25t37 31.5t42.5 31.5t42.5 25q-23 1 -55.5 3t-66.5 3.5t-65.5 3t-53.5 1.5
q-35 0 -63.5 -12.5t-43.5 -34.5l-35 19q21 60 42 104t45.5 73t54.5 43.5t69 14.5q22 0 49.5 -2t59.5 -6q66 -7 182.5 -14.5t291.5 -7.5l-76 -207q-20 -2 -43 -4t-52 -7t-64.5 -14t-80.5 -23q-80 -26 -145.5 -75.5t-112.5 -114t-73 -139t-26 -150.5q0 -59 33 -101t91.5 -71.5
t138 -47.5t172.5 -27.5t195.5 -13t206.5 -3.5z" />
    <glyph glyph-name="uni062D.init" unicode="&#x62d;" horiz-adv-x="1082" arabic-form="initial" 
d="M919 164q-20 0 -44.5 3.5t-48.5 7.5t-46 7.5t-37 3.5q-30 0 -56 -5.5t-49.5 -15t-45 -21.5t-43.5 -25q-33 -20 -72 -41t-87 -38.5t-106.5 -28.5t-131.5 -11h-152q-12 0 -26 5t-26 14.5t-20 24t-8 32.5v55q0 19 8 33.5t20 24t26 14t26 4.5h190q68 0 126.5 10t107 25
t87 31.5t67.5 29.5q-42 14 -82.5 30.5t-78.5 31t-72 24t-63 9.5q-23 0 -41 -8t-32 -19.5t-23.5 -23.5t-13.5 -19l-36 19q19 55 39.5 101t44.5 79t52 51t62 18q48 0 118 -25.5t148 -63.5q42 -20 89.5 -43.5t98.5 -43.5t103.5 -33.5t105.5 -13.5z" />
    <glyph glyph-name="uni062D.medi" unicode="&#x62d;" horiz-adv-x="1102" arabic-form="medial" 
d="M802 0q-72 0 -112.5 9.5t-60 30.5t-24 55t-4.5 83v29q-57 -60 -110 -100t-106.5 -64t-110.5 -33.5t-123 -9.5h-151q-6 0 -18.5 5t-25 14.5t-22 24t-9.5 32.5v55q0 19 9.5 33.5t22 24t25 14t18.5 4.5h231q70 0 127.5 15.5t103 36.5t79.5 43t57 35l-44 11q-25 6 -61 16
t-75.5 19t-78.5 15.5t-70 6.5q-21 0 -36.5 -8.5t-26.5 -21t-19 -26.5t-14 -24l-36 20q19 64 38 113.5t41.5 83t49.5 51t62 17.5q45 0 104 -12.5t127 -30.5q94 -25 206.5 -47.5t249.5 -22.5l-71 -210q-33 0 -69.5 3.5t-65.5 8.5q-51 0 -82.5 -11.5t-59.5 -28.5q6 -30 37 -41
t90 -11h308v-207h-300z" />
    <glyph glyph-name="uni062D.fina" unicode="&#x62d;" horiz-adv-x="962" arabic-form="final" 
d="M751 0q-59 0 -98 5t-62 24t-33 56t-10 101q0 20 2.5 43t6.5 45q-79 -29 -144.5 -79t-113 -113.5t-73.5 -137t-26 -149.5q0 -59 33.5 -101t92 -71.5t138.5 -47.5t173 -27.5t196 -13t207 -3.5l9 -38q-37 -14 -81 -30.5t-91 -32.5t-94 -31t-90 -26.5t-78.5 -18.5t-59.5 -7
q-97 0 -165.5 18.5t-115.5 50t-75 73t-43 87t-19.5 92t-4.5 88.5q0 99 19.5 177t48 137t60 99.5t55.5 65.5q10 10 26 24.5t34.5 29t38 28t36.5 22.5q-23 2 -53.5 4t-62 4t-61.5 3.5t-52 1.5q-35 0 -63.5 -8.5t-42.5 -27.5l-35 19q21 60 43.5 102.5t47.5 69.5t54 39.5
t65 12.5q22 0 49.5 -2t59.5 -6q66 -7 182.5 -14.5t291.5 -7.5l-76 -207q-20 -2 -43 -5t-46 -6.5t-44.5 -8t-38.5 -8.5q-3 -12 -5 -22t-2 -16q0 -18 15 -28t40 -14.5t56 -5.5t63 -1h170v-207h-211z" />
    <glyph glyph-name="uni062E" unicode="&#x62e;" horiz-adv-x="1052" arabic-form="isolated" 
d="M1047 -507q-55 -21 -125 -46.5t-139.5 -47.5t-130 -37t-96.5 -15q-97 0 -165.5 18.5t-115.5 50t-75 73t-43 87t-19.5 92t-4.5 88.5q0 99 19.5 176t47 134.5t59 97t55.5 64.5q10 10 27 25t37 31.5t42.5 31.5t42.5 25q-23 1 -55.5 3t-66.5 3.5t-65.5 3t-53.5 1.5
q-35 0 -63.5 -12.5t-43.5 -34.5l-35 19q21 60 42 104t45.5 73t54.5 43.5t69 14.5q22 0 49.5 -2t59.5 -6q66 -7 182.5 -14.5t291.5 -7.5l-76 -207q-20 -2 -43 -4t-52 -7t-64.5 -14t-80.5 -23q-80 -26 -145.5 -75.5t-112.5 -114t-73 -139t-26 -150.5q0 -59 33 -101t91.5 -71.5
t138 -47.5t172.5 -27.5t195.5 -13t206.5 -3.5zM497 694l-165 101l107 143l165 -103z" />
    <glyph glyph-name="uni062E.init" unicode="&#x62e;" horiz-adv-x="1082" arabic-form="initial" 
d="M919 164q-20 0 -44.5 3.5t-48.5 7.5t-46 7.5t-37 3.5q-30 0 -56 -5.5t-49.5 -15t-45 -21.5t-43.5 -25q-33 -20 -72 -41t-87 -38.5t-106.5 -28.5t-131.5 -11h-152q-12 0 -26 5t-26 14.5t-20 24t-8 32.5v55q0 19 8 33.5t20 24t26 14t26 4.5h190q68 0 126.5 10t107 25
t87 31.5t67.5 29.5q-42 14 -82.5 30.5t-78.5 31t-72 24t-63 9.5q-23 0 -41 -8t-32 -19.5t-23.5 -23.5t-13.5 -19l-36 19q19 55 39.5 101t44.5 79t52 51t62 18q48 0 118 -25.5t148 -63.5q42 -20 89.5 -43.5t98.5 -43.5t103.5 -33.5t105.5 -13.5zM487 694l-165 101l107 143
l165 -103z" />
    <glyph glyph-name="uni062E.medi" unicode="&#x62e;" horiz-adv-x="1102" arabic-form="medial" 
d="M802 0q-72 0 -112.5 9.5t-60 30.5t-24 55t-4.5 83v29q-57 -60 -110 -100t-106.5 -64t-110.5 -33.5t-123 -9.5h-151q-6 0 -18.5 5t-25 14.5t-22 24t-9.5 32.5v55q0 19 9.5 33.5t22 24t25 14t18.5 4.5h231q70 0 127.5 15.5t103 36.5t79.5 43t57 35l-44 11q-25 6 -61 16
t-75.5 19t-78.5 15.5t-70 6.5q-21 0 -36.5 -8.5t-26.5 -21t-19 -26.5t-14 -24l-36 20q19 64 38 113.5t41.5 83t49.5 51t62 17.5q45 0 104 -12.5t127 -30.5q94 -25 206.5 -47.5t249.5 -22.5l-71 -210q-33 0 -69.5 3.5t-65.5 8.5q-51 0 -82.5 -11.5t-59.5 -28.5q6 -30 37 -41
t90 -11h308v-207h-300zM487 694l-165 101l107 143l165 -103z" />
    <glyph glyph-name="uni062E.fina" unicode="&#x62e;" horiz-adv-x="962" arabic-form="final" 
d="M751 0q-59 0 -98 5t-62 24t-33 56t-10 101q0 20 2.5 43t6.5 45q-79 -29 -144.5 -79t-113 -113.5t-73.5 -137t-26 -149.5q0 -59 33.5 -101t92 -71.5t138.5 -47.5t173 -27.5t196 -13t207 -3.5l9 -38q-37 -14 -81 -30.5t-91 -32.5t-94 -31t-90 -26.5t-78.5 -18.5t-59.5 -7
q-97 0 -165.5 18.5t-115.5 50t-75 73t-43 87t-19.5 92t-4.5 88.5q0 99 19.5 177t48 137t60 99.5t55.5 65.5q10 10 26 24.5t34.5 29t38 28t36.5 22.5q-23 2 -53.5 4t-62 4t-61.5 3.5t-52 1.5q-35 0 -63.5 -8.5t-42.5 -27.5l-35 19q21 60 43.5 102.5t47.5 69.5t54 39.5
t65 12.5q22 0 49.5 -2t59.5 -6q66 -7 182.5 -14.5t291.5 -7.5l-76 -207q-20 -2 -43 -5t-46 -6.5t-44.5 -8t-38.5 -8.5q-3 -12 -5 -22t-2 -16q0 -18 15 -28t40 -14.5t56 -5.5t63 -1h170v-207h-211zM499 694l-165 101l107 143l165 -103z" />
    <glyph glyph-name="uni062F" unicode="&#x62f;" horiz-adv-x="739" arabic-form="isolated" 
d="M328 637q6 32 20 41.5t25 9.5q14 0 25 -5.5t18 -10.5q58 -43 102.5 -97.5t74.5 -113t45.5 -116t15.5 -106.5q0 -35 -6 -67.5t-15.5 -61.5t-20 -53.5t-19.5 -42.5q-16 -8 -53.5 -17.5t-85.5 -17.5t-102.5 -13.5t-103.5 -5.5q-47 0 -79 4t-51.5 16.5t-28.5 36t-9 62.5
q0 15 3 36t8.5 44.5t12 48t13.5 46.5l34 -11q0 -45 27.5 -60.5t92.5 -15.5q41 0 94 5t100 12t79 14t32 12q0 26 -14 55t-37.5 57t-53 54t-61 46t-62 31.5t-54.5 11.5z" />
    <glyph glyph-name="uni062F.fina" unicode="&#x62f;" horiz-adv-x="906" arabic-form="final" 
d="M768 0q-26 0 -49.5 11.5t-38.5 31.5t-24 52.5t-17 75.5h-25q-11 -45 -27 -88.5t-32 -74.5q-16 -7 -46.5 -16t-71.5 -17t-89 -13.5t-98 -5.5q-40 0 -71.5 4t-53.5 14t-33.5 27t-11.5 43q0 30 5 64.5t13 69t17 67.5t17 59l41 -11v-65q0 -23 22 -39.5t78 -16.5
q41 0 87.5 3.5t89.5 9.5t78.5 13.5t53.5 15.5q6 12 13.5 32.5t9.5 46.5l-66 332l103 146q20 -128 39.5 -248t39.5 -248q4 -25 19.5 -46.5t49.5 -21.5h116v-207h-138z" />
    <glyph glyph-name="uni0630" unicode="&#x630;" horiz-adv-x="739" arabic-form="isolated" 
d="M328 637q6 32 20 41.5t25 9.5q14 0 25 -5.5t18 -10.5q58 -43 102.5 -97.5t74.5 -113t45.5 -116t15.5 -106.5q0 -35 -6 -67.5t-15.5 -61.5t-20 -53.5t-19.5 -42.5q-16 -8 -53.5 -17.5t-85.5 -17.5t-102.5 -13.5t-103.5 -5.5q-47 0 -79 4t-51.5 16.5t-28.5 36t-9 62.5
q0 15 3 36t8.5 44.5t12 48t13.5 46.5l34 -11q0 -45 27.5 -60.5t92.5 -15.5q41 0 94 5t100 12t79 14t32 12q0 26 -14 55t-37.5 57t-53 54t-61 46t-62 31.5t-54.5 11.5zM392 814l-165 101l107 143l165 -103z" />
    <glyph glyph-name="uni0630.fina" unicode="&#x630;" horiz-adv-x="906" arabic-form="final" 
d="M768 0q-26 0 -49.5 11.5t-38.5 31.5t-24 52.5t-17 75.5h-25q-11 -45 -27 -88.5t-32 -74.5q-16 -7 -46.5 -16t-71.5 -17t-89 -13.5t-98 -5.5q-40 0 -71.5 4t-53.5 14t-33.5 27t-11.5 43q0 30 5 64.5t13 69t17 67.5t17 59l41 -11v-65q0 -23 22 -39.5t78 -16.5
q41 0 87.5 3.5t89.5 9.5t78.5 13.5t53.5 15.5q6 12 13.5 32.5t9.5 46.5l-66 332l103 146q20 -128 39.5 -248t39.5 -248q4 -25 19.5 -46.5t49.5 -21.5h116v-207h-138zM587 864l-165 101l107 143l165 -103z" />
    <glyph glyph-name="uni0631" unicode="&#x631;" horiz-adv-x="717" arabic-form="isolated" 
d="M481 514q31 -30 64 -70.5t60 -91t44.5 -110t17.5 -128.5q0 -50 -12.5 -105t-35 -108.5t-53.5 -102.5t-68.5 -86t-80.5 -59t-89 -22q-30 0 -70 9t-87 26t-100 40.5t-109 53.5l16 40q55 -18 94.5 -28t80.5 -10q37 0 83.5 19.5t94 51t93 70t81 76t57 71t21.5 53.5
q0 13 -19.5 40.5t-49.5 60t-65.5 64t-66.5 52.5z" />
    <glyph glyph-name="uni0631.fina" unicode="&#x631;" horiz-adv-x="848" arabic-form="final" 
d="M782 0q-23 0 -48.5 9t-47.5 35l-16 -9q0 -40 -12 -91t-34.5 -104.5t-53 -105t-68 -91.5t-80 -64.5t-88.5 -24.5q-30 0 -71 9.5t-89.5 27t-102.5 42t-110 54.5l17 40q28 -9 51 -16t42.5 -11.5t37.5 -6.5t37 -2q41 0 90 18.5t98.5 48.5t95.5 66.5t81.5 73t57 68t21.5 50.5
q0 4 -5.5 16.5t-14.5 28.5t-20.5 34t-23.5 33t-25 33t-26 37t-24.5 36.5t-20.5 30.5l104 197q11 -18 24.5 -40.5t20.5 -33.5q28 -43 51.5 -76.5t47.5 -57t51.5 -35.5t63.5 -12h55v-207h-66z" />
    <glyph glyph-name="uni0632" unicode="&#x632;" horiz-adv-x="717" arabic-form="isolated" 
d="M481 514q31 -30 64 -70.5t60 -91t44.5 -110t17.5 -128.5q0 -50 -12.5 -105t-35 -108.5t-53.5 -102.5t-68.5 -86t-80.5 -59t-89 -22q-30 0 -70 9t-87 26t-100 40.5t-109 53.5l16 40q55 -18 94.5 -28t80.5 -10q37 0 83.5 19.5t94 51t93 70t81 76t57 71t21.5 53.5
q0 13 -19.5 40.5t-49.5 60t-65.5 64t-66.5 52.5zM476 649l-165 101l107 143l165 -103z" />
    <glyph glyph-name="uni0632.fina" unicode="&#x632;" horiz-adv-x="848" arabic-form="final" 
d="M782 0q-23 0 -48.5 9t-47.5 35l-16 -9q0 -40 -12 -91t-34.5 -104.5t-53 -105t-68 -91.5t-80 -64.5t-88.5 -24.5q-30 0 -71 9.5t-89.5 27t-102.5 42t-110 54.5l17 40q28 -9 51 -16t42.5 -11.5t37.5 -6.5t37 -2q41 0 90 18.5t98.5 48.5t95.5 66.5t81.5 73t57 68t21.5 50.5
q0 4 -5.5 16.5t-14.5 28.5t-20.5 34t-23.5 33t-25 33t-26 37t-24.5 36.5t-20.5 30.5l104 197q11 -18 24.5 -40.5t20.5 -33.5q28 -43 51.5 -76.5t47.5 -57t51.5 -35.5t63.5 -12h55v-207h-66zM509 564l-165 101l107 143l165 -103z" />
    <glyph glyph-name="uni0633" unicode="&#x633;" horiz-adv-x="1617" arabic-form="isolated" 
d="M1466 464q7 -15 18 -44t21.5 -64.5t18.5 -73t8 -69.5q0 -45 -8.5 -88.5t-32.5 -86.5q-25 -45 -43 -67t-41 -22q-17 0 -51.5 14t-73.5 35t-75 44.5t-56 42.5q-21 -20 -50.5 -33.5t-62.5 -23t-66.5 -15t-61.5 -8.5v-29q0 -21 -5 -49t-14 -59.5t-22 -64t-29 -62.5
q-43 -30 -94.5 -56.5t-109.5 -46t-120.5 -30.5t-126.5 -11q-89 0 -148 24.5t-95 63.5t-51 87.5t-15 96.5q0 60 8.5 107t23.5 88.5t36.5 80t48.5 81.5l39 -15q-24 -54 -34.5 -110t-10.5 -101q0 -38 14.5 -72t43.5 -60.5t71.5 -42t99.5 -15.5q48 0 103 7.5t109 22t103.5 34.5
t86.5 45q0 68 -35 146t-102 159l97 182q29 -38 49 -77.5t29 -68.5q3 -10 6.5 -22t5.5 -23q5 -1 17.5 -2t31.5 -1q25 0 53 3t55 8.5t50.5 13.5t39.5 18q18 14 34 39t29 53.5t23.5 57t17.5 49.5l66 -19q-10 -52 -23.5 -106t-27.5 -89q18 -15 46.5 -32.5t56.5 -33.5t51 -26.5
t32 -10.5q17 0 17 15q0 5 -2 20t-9 38t-19 52t-33 61z" />
    <glyph glyph-name="uni0633.init" unicode="&#x633;" horiz-adv-x="1221" arabic-form="initial" 
d="M1070 492q7 -15 18 -44t21.5 -65t18.5 -74t8 -70q0 -45 -10 -91t-31 -84q-24 -42 -42 -65t-41 -23q-15 0 -47 12t-69.5 31.5t-75 44t-65.5 48.5q-25 -23 -67.5 -39t-90 -25.5t-93.5 -13.5t-79 -4q-40 0 -53.5 17t-13.5 40h-9q-20 -22 -58.5 -38t-86.5 -27t-101.5 -16.5
t-102.5 -5.5q-8 0 -21 3t-26.5 10t-23 17t-9.5 25v101q0 9 8 18.5t20 16.5t26 11.5t26 4.5q18 0 42 0.5t47 2.5q40 3 86 9.5t88 17t75 26t48 36.5q29 42 53 84.5t44 97.5l68 -24q-14 -55 -29.5 -100t-32.5 -79q-3 -6 -7 -15t-7 -14q2 -4 11 -7t20 -3q25 0 56 2.5t61 8
t56.5 13.5t42.5 19q18 13 34 37.5t29.5 53.5t24 58t17.5 50l66 -19q-5 -26 -11 -53t-12.5 -52.5t-13.5 -48.5t-14 -41q15 -13 43 -30.5t56.5 -33.5t53 -27.5t32.5 -11.5t13 2.5t5 7.5q0 2 -0.5 7t-1.5 13q-3 23 -16 64t-45 92z" />
    <glyph glyph-name="uni0633.medi" unicode="&#x633;" horiz-adv-x="1252" arabic-form="medial" 
d="M1166 0q-15 0 -34.5 5t-38.5 16t-35 27.5t-25 39.5h-13q-11 -32 -19.5 -55t-13.5 -33q-22 -41 -41.5 -54t-39.5 -13q-13 0 -31 17.5t-37.5 44.5t-38.5 59.5t-32 63.5q-26 -27 -69 -45.5t-91.5 -30t-96 -16t-83.5 -4.5q-33 0 -49.5 18t-16.5 44h-8q-23 -21 -62 -37
t-87 -26.5t-101 -15.5t-103 -5q-30 0 -55 16t-25 53v74q0 10 7 21t18 20.5t25.5 16t29.5 6.5h13.5t19.5 0.5t19 0.5h14q46 1 95.5 7.5t93.5 17.5t79.5 27.5t53.5 38.5q27 32 52 79.5t45 102.5l68 -24q-8 -30 -14.5 -53.5t-14 -44.5t-15.5 -40.5t-17 -41.5q-2 -5 -9.5 -17.5
t-7.5 -17.5q0 -2 5 -3t12 -1.5t14.5 -1t11.5 -0.5q24 0 53.5 2t57.5 6.5t53 12t40 18.5q18 13 34.5 39t30 56t24.5 60t18 51l66 -19q-10 -49 -22 -96t-23 -82q7 -17 19 -38t24.5 -40.5t23.5 -32.5t16 -13q8 0 11.5 4.5t6.5 10.5q8 19 19.5 54.5t23.5 77.5t23.5 84.5
t20.5 75.5l67 -15q-8 -58 -18 -108t-21 -92q15 -31 47 -38t80 -7h59v-207h-86z" />
    <glyph glyph-name="uni0633.fina" unicode="&#x633;" horiz-adv-x="1663" arabic-form="final" 
d="M1578 0q-17 0 -36.5 5t-38 16t-34.5 28.5t-26 42.5h-12q-6 -23 -13.5 -47t-18.5 -45q-21 -41 -42 -54t-40 -13q-12 0 -30.5 18t-38.5 45.5t-38.5 60t-31.5 61.5q-22 -24 -54 -42.5t-68.5 -32.5t-74.5 -23t-72 -13v-22q0 -23 -5.5 -54t-14.5 -64t-22 -65.5t-28 -60.5
q-36 -26 -85.5 -52t-107.5 -46.5t-123.5 -33t-133.5 -12.5q-87 0 -146 24t-95.5 62.5t-52 87t-15.5 98.5q0 63 8.5 110.5t24 87.5t36.5 77.5t47 81.5l39 -15q-23 -54 -34 -110t-11 -101q0 -38 14.5 -72t43 -60.5t72 -42t100.5 -15.5q50 0 107.5 8.5t112.5 23.5t103 34.5
t78 42.5q0 30 -11.5 71t-32 86t-48 90t-58.5 83l103 168q31 -50 57.5 -98.5t41.5 -95.5q8 -1 26 -1.5t30 -0.5q22 0 51 4.5t58 12t54.5 17t40.5 20.5q18 13 34.5 39t30 56t24.5 60t18 51l66 -19q-9 -49 -21.5 -96t-23.5 -82q7 -17 19 -38t25 -40.5t24 -32.5t15 -13
q11 0 18 15q9 21 20 56.5t23 76.5t23.5 82.5t20.5 76.5l67 -15q-8 -58 -18.5 -108t-20.5 -92q15 -31 48 -38t81 -7h57v-207h-85z" />
    <glyph glyph-name="uni0634" unicode="&#x634;" horiz-adv-x="1617" arabic-form="isolated" 
d="M1466 464q7 -15 18 -44t21.5 -64.5t18.5 -73t8 -69.5q0 -45 -8.5 -88.5t-32.5 -86.5q-25 -45 -43 -67t-41 -22q-17 0 -51.5 14t-73.5 35t-75 44.5t-56 42.5q-21 -20 -50.5 -33.5t-62.5 -23t-66.5 -15t-61.5 -8.5v-29q0 -21 -5 -49t-14 -59.5t-22 -64t-29 -62.5
q-43 -30 -94.5 -56.5t-109.5 -46t-120.5 -30.5t-126.5 -11q-89 0 -148 24.5t-95 63.5t-51 87.5t-15 96.5q0 60 8.5 107t23.5 88.5t36.5 80t48.5 81.5l39 -15q-24 -54 -34.5 -110t-10.5 -101q0 -38 14.5 -72t43.5 -60.5t71.5 -42t99.5 -15.5q48 0 103 7.5t109 22t103.5 34.5
t86.5 45q0 68 -35 146t-102 159l97 182q29 -38 49 -77.5t29 -68.5q3 -10 6.5 -22t5.5 -23q5 -1 17.5 -2t31.5 -1q25 0 53 3t55 8.5t50.5 13.5t39.5 18q18 14 34 39t29 53.5t23.5 57t17.5 49.5l66 -19q-10 -52 -23.5 -106t-27.5 -89q18 -15 46.5 -32.5t56.5 -33.5t51 -26.5
t32 -10.5q17 0 17 15q0 5 -2 20t-9 38t-19 52t-33 61zM1128 823l-153 93l100 133l153 -95zM1240 613l-121 72l-55 -72l-150 89l103 137l119 -74l57 74l150 -92z" />
    <glyph glyph-name="uni0634.init" unicode="&#x634;" horiz-adv-x="1221" arabic-form="initial" 
d="M1070 492q7 -15 18 -44t21.5 -65t18.5 -74t8 -70q0 -45 -10 -91t-31 -84q-24 -42 -42 -65t-41 -23q-15 0 -47 12t-69.5 31.5t-75 44t-65.5 48.5q-25 -23 -67.5 -39t-90 -25.5t-93.5 -13.5t-79 -4q-40 0 -53.5 17t-13.5 40h-9q-20 -22 -58.5 -38t-86.5 -27t-101.5 -16.5
t-102.5 -5.5q-8 0 -21 3t-26.5 10t-23 17t-9.5 25v101q0 9 8 18.5t20 16.5t26 11.5t26 4.5q18 0 42 0.5t47 2.5q40 3 86 9.5t88 17t75 26t48 36.5q29 42 53 84.5t44 97.5l68 -24q-14 -55 -29.5 -100t-32.5 -79q-3 -6 -7 -15t-7 -14q2 -4 11 -7t20 -3q25 0 56 2.5t61 8
t56.5 13.5t42.5 19q18 13 34 37.5t29.5 53.5t24 58t17.5 50l66 -19q-5 -26 -11 -53t-12.5 -52.5t-13.5 -48.5t-14 -41q15 -13 43 -30.5t56.5 -33.5t53 -27.5t32.5 -11.5t13 2.5t5 7.5q0 2 -0.5 7t-1.5 13q-3 23 -16 64t-45 92zM748 823l-153 93l100 133l153 -95zM860 613
l-121 72l-55 -72l-150 89l103 137l119 -74l57 74l150 -92z" />
    <glyph glyph-name="uni0634.medi" unicode="&#x634;" horiz-adv-x="1252" arabic-form="medial" 
d="M1166 0q-15 0 -34.5 5t-38.5 16t-35 27.5t-25 39.5h-13q-11 -32 -19.5 -55t-13.5 -33q-22 -41 -41.5 -54t-39.5 -13q-13 0 -31 17.5t-37.5 44.5t-38.5 59.5t-32 63.5q-26 -27 -69 -45.5t-91.5 -30t-96 -16t-83.5 -4.5q-33 0 -49.5 18t-16.5 44h-8q-23 -21 -62 -37
t-87 -26.5t-101 -15.5t-103 -5q-30 0 -55 16t-25 53v74q0 10 7 21t18 20.5t25.5 16t29.5 6.5h13.5t19.5 0.5t19 0.5h14q46 1 95.5 7.5t93.5 17.5t79.5 27.5t53.5 38.5q27 32 52 79.5t45 102.5l68 -24q-8 -30 -14.5 -53.5t-14 -44.5t-15.5 -40.5t-17 -41.5q-2 -5 -9.5 -17.5
t-7.5 -17.5q0 -2 5 -3t12 -1.5t14.5 -1t11.5 -0.5q24 0 53.5 2t57.5 6.5t53 12t40 18.5q18 13 34.5 39t30 56t24.5 60t18 51l66 -19q-10 -49 -22 -96t-23 -82q7 -17 19 -38t24.5 -40.5t23.5 -32.5t16 -13q8 0 11.5 4.5t6.5 10.5q8 19 19.5 54.5t23.5 77.5t23.5 84.5
t20.5 75.5l67 -15q-8 -58 -18 -108t-21 -92q15 -31 47 -38t80 -7h59v-207h-86zM748 823l-153 93l100 133l153 -95zM860 613l-121 72l-55 -72l-150 89l103 137l119 -74l57 74l150 -92z" />
    <glyph glyph-name="uni0634.fina" unicode="&#x634;" horiz-adv-x="1663" arabic-form="final" 
d="M1578 0q-17 0 -36.5 5t-38 16t-34.5 28.5t-26 42.5h-12q-6 -23 -13.5 -47t-18.5 -45q-21 -41 -42 -54t-40 -13q-12 0 -30.5 18t-38.5 45.5t-38.5 60t-31.5 61.5q-22 -24 -54 -42.5t-68.5 -32.5t-74.5 -23t-72 -13v-22q0 -23 -5.5 -54t-14.5 -64t-22 -65.5t-28 -60.5
q-36 -26 -85.5 -52t-107.5 -46.5t-123.5 -33t-133.5 -12.5q-87 0 -146 24t-95.5 62.5t-52 87t-15.5 98.5q0 63 8.5 110.5t24 87.5t36.5 77.5t47 81.5l39 -15q-23 -54 -34 -110t-11 -101q0 -38 14.5 -72t43 -60.5t72 -42t100.5 -15.5q50 0 107.5 8.5t112.5 23.5t103 34.5
t78 42.5q0 30 -11.5 71t-32 86t-48 90t-58.5 83l103 168q31 -50 57.5 -98.5t41.5 -95.5q8 -1 26 -1.5t30 -0.5q22 0 51 4.5t58 12t54.5 17t40.5 20.5q18 13 34.5 39t30 56t24.5 60t18 51l66 -19q-9 -49 -21.5 -96t-23.5 -82q7 -17 19 -38t25 -40.5t24 -32.5t15 -13
q11 0 18 15q9 21 20 56.5t23 76.5t23.5 82.5t20.5 76.5l67 -15q-8 -58 -18.5 -108t-20.5 -92q15 -31 48 -38t81 -7h57v-207h-85zM1158 823l-153 93l100 133l153 -95zM1270 613l-121 72l-55 -72l-150 89l103 137l119 -74l57 74l150 -92z" />
    <glyph glyph-name="uni0635" unicode="&#x635;" horiz-adv-x="1893" arabic-form="isolated" 
d="M1658 207q5 7 9 14t4 10t-10 16.5t-27.5 32.5t-41 39.5t-50 38.5t-55 29.5t-56.5 11.5t-68.5 -18.5t-85 -47t-89.5 -62t-81 -64.5h551zM923 0v-9q0 -26 -5.5 -59t-15.5 -67t-22.5 -67t-26.5 -58q-39 -26 -89.5 -51.5t-110 -46t-126 -33t-136.5 -12.5q-93 0 -153 25
t-95 65.5t-49 91.5t-14 102q0 53 8 97t23.5 84.5t37 80t48.5 83.5l39 -15q-22 -53 -33.5 -108t-11.5 -103t19 -84t51.5 -59.5t76 -35.5t92.5 -12q46 0 102.5 8.5t112 23.5t105.5 34.5t84 41.5q0 36 -12.5 80.5t-34 92t-51 94.5t-62.5 88l106 168q9 -13 21.5 -35t25.5 -46.5
t24 -49t19 -42.5q11 -28 21.5 -44t33.5 -16h28q39 34 88 74.5t103 81.5t110.5 79t110 67.5t102.5 47t88 17.5q20 0 47.5 -11t57.5 -30t59.5 -43t52.5 -51t37.5 -54t14.5 -51q0 -36 -16 -82t-39.5 -92.5t-49.5 -89t-47 -70.5h-749z" />
    <glyph glyph-name="uni0635.init" unicode="&#x635;" horiz-adv-x="1460" arabic-form="initial" 
d="M1209 207q5 5 9.5 12.5t4.5 10.5q0 8 -22 35.5t-56.5 57.5t-75.5 53.5t-79 23.5q-27 0 -70.5 -20t-91.5 -49t-93.5 -62.5t-75.5 -61.5h550zM482 0q-38 -39 -71.5 -91.5t-55.5 -108.5l-70 24q6 24 15.5 49t20 48t20.5 43.5t18 35.5h-98q-21 0 -36.5 12t-24.5 27
q-34 -17 -85.5 -28t-114.5 -11q-12 0 -26 5t-26 14.5t-20 24t-8 32.5v55q0 16 7.5 30t19.5 24t26 16t27 6q133 0 206.5 25.5t104.5 67.5q27 36 45.5 78t28.5 69l70 -24q-7 -36 -18 -72.5t-23 -64.5q-10 -23 -22.5 -46.5t-18.5 -32.5h131q43 38 94.5 80t106 83t110.5 78
t108.5 65t99 44.5t82.5 16.5q21 0 49.5 -11.5t58.5 -30t59 -43t52 -51t37 -53t14 -49.5q0 -38 -15.5 -84t-39 -92t-50 -88t-47.5 -72h-741z" />
    <glyph glyph-name="uni0635.medi" unicode="&#x635;" horiz-adv-x="1525" arabic-form="medial" 
d="M1209 207q4 4 9 11t5 12q0 6 -10 20.5t-27.5 33.5t-41 39.5t-49.5 37.5t-53 28t-52 11q-27 0 -70.5 -20t-91.5 -49t-93.5 -62.5t-75.5 -61.5h550zM482 0q-38 -39 -71.5 -91.5t-55.5 -108.5l-70 24q6 24 15.5 48.5t20 48t20.5 44t18 35.5h-98q-21 0 -36.5 12t-24.5 27
q-34 -17 -85.5 -28t-114.5 -11q-12 0 -26 5t-26 14.5t-20 24t-8 32.5v55q0 16 7.5 30t19.5 24t26 16t27 6q133 0 206.5 25.5t104.5 67.5q27 36 45.5 78t28.5 69l70 -24q-7 -36 -18 -72.5t-23 -64.5q-10 -23 -22.5 -46.5t-18.5 -32.5h131q43 38 94.5 80t106 83t110.5 78
t108.5 65t99 44.5t82.5 16.5q21 0 49.5 -11.5t58.5 -30t59 -43t52 -51t37 -53t14 -49.5q0 -33 -10 -67.5t-22 -61.5h182v-207h-1043z" />
    <glyph glyph-name="uni0635.fina" unicode="&#x635;" horiz-adv-x="2008" arabic-form="final" 
d="M1676 207q5 7 9 14t4 10t-10 16.5t-27.5 32.5t-41 39.5t-50 38.5t-55 29.5t-56.5 11.5t-68.5 -18.5t-85 -47t-89.5 -62t-81 -64.5h551zM923 0v-6q0 -28 -7 -63t-17.5 -70t-23.5 -68t-26 -57q-41 -25 -91.5 -49.5t-109 -44.5t-123.5 -32.5t-134 -12.5q-93 0 -153 25
t-95.5 65.5t-49 91.5t-13.5 102q0 54 8 98t23 84.5t36.5 79.5t49.5 83l39 -15q-22 -53 -33.5 -108t-11.5 -103t19 -84t51.5 -59.5t76 -35.5t92.5 -12q46 0 102 8.5t111.5 23.5t105 34.5t83.5 41.5q0 36 -11.5 80.5t-32 91t-49 92.5t-61.5 85l106 170q11 -13 23 -34t23.5 -45
t21.5 -48t18 -42q11 -28 21.5 -44t33.5 -16h46q39 34 88 74.5t103 81.5t110.5 79t110 67.5t102.5 47t88 17.5q20 0 47.5 -11t57.5 -30t59.5 -43t52.5 -51t37.5 -54t14.5 -51q0 -32 -9.5 -65.5t-23.5 -61.5h199v-207h-1085z" />
    <glyph glyph-name="uni0636" unicode="&#x636;" horiz-adv-x="1893" arabic-form="isolated" 
d="M1658 207q5 7 9 14t4 10t-10 16.5t-27.5 32.5t-41 39.5t-50 38.5t-55 29.5t-56.5 11.5t-68.5 -18.5t-85 -47t-89.5 -62t-81 -64.5h551zM923 0v-9q0 -26 -5.5 -59t-15.5 -67t-22.5 -67t-26.5 -58q-39 -26 -89.5 -51.5t-110 -46t-126 -33t-136.5 -12.5q-93 0 -153 25
t-95 65.5t-49 91.5t-14 102q0 53 8 97t23.5 84.5t37 80t48.5 83.5l39 -15q-22 -53 -33.5 -108t-11.5 -103t19 -84t51.5 -59.5t76 -35.5t92.5 -12q46 0 102.5 8.5t112 23.5t105.5 34.5t84 41.5q0 36 -12.5 80.5t-34 92t-51 94.5t-62.5 88l106 168q9 -13 21.5 -35t25.5 -46.5
t24 -49t19 -42.5q11 -28 21.5 -44t33.5 -16h28q39 34 88 74.5t103 81.5t110.5 79t110 67.5t102.5 47t88 17.5q20 0 47.5 -11t57.5 -30t59.5 -43t52.5 -51t37.5 -54t14.5 -51q0 -36 -16 -82t-39.5 -92.5t-49.5 -89t-47 -70.5h-749zM1249 631l-165 101l107 143l165 -103z" />
    <glyph glyph-name="uni0636.init" unicode="&#x636;" horiz-adv-x="1460" arabic-form="initial" 
d="M1209 207q5 5 9.5 12.5t4.5 10.5q0 8 -22 35.5t-56.5 57.5t-75.5 53.5t-79 23.5q-27 0 -70.5 -20t-91.5 -49t-93.5 -62.5t-75.5 -61.5h550zM482 0q-38 -39 -71.5 -91.5t-55.5 -108.5l-70 24q6 24 15.5 49t20 48t20.5 43.5t18 35.5h-98q-21 0 -36.5 12t-24.5 27
q-34 -17 -85.5 -28t-114.5 -11q-12 0 -26 5t-26 14.5t-20 24t-8 32.5v55q0 16 7.5 30t19.5 24t26 16t27 6q133 0 206.5 25.5t104.5 67.5q27 36 45.5 78t28.5 69l70 -24q-7 -36 -18 -72.5t-23 -64.5q-10 -23 -22.5 -46.5t-18.5 -32.5h131q43 38 94.5 80t106 83t110.5 78
t108.5 65t99 44.5t82.5 16.5q21 0 49.5 -11.5t58.5 -30t59 -43t52 -51t37 -53t14 -49.5q0 -38 -15.5 -84t-39 -92t-50 -88t-47.5 -72h-741zM785 631l-165 101l107 143l165 -103z" />
    <glyph glyph-name="uni0636.medi" unicode="&#x636;" horiz-adv-x="1525" arabic-form="medial" 
d="M1209 207q4 4 9 11t5 12q0 6 -10 20.5t-27.5 33.5t-41 39.5t-49.5 37.5t-53 28t-52 11q-27 0 -70.5 -20t-91.5 -49t-93.5 -62.5t-75.5 -61.5h550zM482 0q-38 -39 -71.5 -91.5t-55.5 -108.5l-70 24q6 24 15.5 48.5t20 48t20.5 44t18 35.5h-98q-21 0 -36.5 12t-24.5 27
q-34 -17 -85.5 -28t-114.5 -11q-12 0 -26 5t-26 14.5t-20 24t-8 32.5v55q0 16 7.5 30t19.5 24t26 16t27 6q133 0 206.5 25.5t104.5 67.5q27 36 45.5 78t28.5 69l70 -24q-7 -36 -18 -72.5t-23 -64.5q-10 -23 -22.5 -46.5t-18.5 -32.5h131q43 38 94.5 80t106 83t110.5 78
t108.5 65t99 44.5t82.5 16.5q21 0 49.5 -11.5t58.5 -30t59 -43t52 -51t37 -53t14 -49.5q0 -33 -10 -67.5t-22 -61.5h182v-207h-1043zM783 631l-165 101l107 143l165 -103z" />
    <glyph glyph-name="uni0636.fina" unicode="&#x636;" horiz-adv-x="2008" arabic-form="final" 
d="M1676 207q5 7 9 14t4 10t-10 16.5t-27.5 32.5t-41 39.5t-50 38.5t-55 29.5t-56.5 11.5t-68.5 -18.5t-85 -47t-89.5 -62t-81 -64.5h551zM923 0v-6q0 -28 -7 -63t-17.5 -70t-23.5 -68t-26 -57q-41 -25 -91.5 -49.5t-109 -44.5t-123.5 -32.5t-134 -12.5q-93 0 -153 25
t-95.5 65.5t-49 91.5t-13.5 102q0 54 8 98t23 84.5t36.5 79.5t49.5 83l39 -15q-22 -53 -33.5 -108t-11.5 -103t19 -84t51.5 -59.5t76 -35.5t92.5 -12q46 0 102 8.5t111.5 23.5t105 34.5t83.5 41.5q0 36 -11.5 80.5t-32 91t-49 92.5t-61.5 85l106 170q11 -13 23 -34t23.5 -45
t21.5 -48t18 -42q11 -28 21.5 -44t33.5 -16h46q39 34 88 74.5t103 81.5t110.5 79t110 67.5t102.5 47t88 17.5q20 0 47.5 -11t57.5 -30t59.5 -43t52.5 -51t37.5 -54t14.5 -51q0 -32 -9.5 -65.5t-23.5 -61.5h199v-207h-1085zM1253 631l-165 101l107 143l165 -103z" />
    <glyph glyph-name="uni0637" unicode="&#x637;" horiz-adv-x="1428" arabic-form="isolated" 
d="M1177 207q6 7 10 14t4 9q0 4 -10 18.5t-27.5 33.5t-40.5 39.5t-48.5 38t-52.5 29t-52 11.5q-30 0 -72 -18.5t-88 -47t-91.5 -62.5t-81.5 -65h550zM347 0q-28 0 -68 19t-83.5 46.5t-85 57.5t-72.5 52l9 32h400l59 40v83l-54 577q-11 11 -21.5 24.5t-18.5 27t-13 25.5
t-5 21l119 152h16q0 -23 7.5 -41.5t26.5 -38.5t52 -45t83 -61l-116 -141l15 -426q0 -25 -3 -48.5t-8 -49.5q57 42 120.5 89t127 87t124.5 66t113 26q22 0 50.5 -11.5t59 -30.5t59.5 -44t52 -52t37 -53.5t14 -49.5q0 -25 -8 -54.5t-20.5 -61t-29 -63t-33.5 -60t-33 -53
t-28 -41.5h-844z" />
    <glyph glyph-name="uni0637.init" unicode="&#x637;" horiz-adv-x="1065" arabic-form="initial" 
d="M814 207q6 7 10 14t4 9q0 4 -10 18.5t-27.5 33.5t-40.5 39.5t-48.5 38t-52.5 29t-52 11.5q-30 0 -72 -18.5t-88 -47t-91.5 -62.5t-81.5 -65h550zM0 0q-12 0 -25.5 5t-25.5 12.5t-19.5 17.5t-7.5 20v100q0 11 9 20.5t21 16.5t25.5 11t22.5 4h84l59 40v83l-54 577
q-15 12 -25 26.5t-15.5 29t-7.5 27.5t-2 22l111 145h16q0 -23 7.5 -41.5t26.5 -38.5t52 -45t83 -61l-116 -141l15 -426q-1 -25 -3.5 -48.5t-7.5 -49.5q57 42 120.5 89t127 87t124.5 66t113 26q22 0 50.5 -11.5t59 -30.5t59.5 -44t52 -52t37 -53.5t14 -49.5q0 -25 -8 -54.5
t-20.5 -61t-29 -63t-33.5 -60t-33 -53t-28 -41.5h-828z" />
    <glyph glyph-name="uni0637.medi" unicode="&#x637;" horiz-adv-x="1129" arabic-form="medial" 
d="M814 207q6 7 10 14t4 9q0 4 -10 18.5t-27.5 33.5t-40.5 39.5t-48.5 38t-52.5 29t-52 11.5q-30 0 -72 -18.5t-88 -47t-91.5 -62.5t-81.5 -65h550zM0 0q-12 0 -25.5 5t-25.5 12.5t-19.5 17.5t-7.5 20v100q0 11 9 20.5t21 16.5t25.5 11t22.5 4h84l59 40v83l-54 577
q-15 12 -25 26.5t-15.5 29t-7.5 27.5t-2 22l111 145h16q0 -23 7.5 -41.5t26.5 -38.5t52 -45t83 -61l-116 -141l15 -426q-1 -25 -3.5 -48.5t-7.5 -49.5q57 42 120.5 89t127 87t124.5 66t113 26q22 0 50.5 -11.5t59 -30.5t59.5 -44t52 -52t37 -53.5t14 -49.5q0 -14 -3 -30.5
t-7.5 -33.5t-10.5 -33t-12 -29h182v-207h-1129z" />
    <glyph glyph-name="uni0637.fina" unicode="&#x637;" horiz-adv-x="1491" arabic-form="final" 
d="M1177 207q6 7 10 14t4 9q0 4 -10 18.5t-27.5 33.5t-40.5 39.5t-48.5 38t-52.5 29t-52 11.5q-30 0 -72 -18.5t-88 -47t-91.5 -62.5t-81.5 -65h550zM347 0q-28 0 -68 19t-83.5 46.5t-85 57.5t-72.5 52l9 32h400l59 40v83l-54 577q-15 12 -25 26.5t-15.5 29t-7.5 27.5t-2 22
l111 145h16q0 -23 7.5 -41.5t26.5 -38.5t52 -45t83 -61l-116 -141l15 -426q-1 -25 -3.5 -48.5t-7.5 -49.5q57 42 120.5 89t127 87t124.5 66t113 26q22 0 50.5 -11.5t59 -30.5t59.5 -44t52 -52t37 -53.5t14 -49.5q0 -29 -10.5 -63t-23.5 -63h182v-207h-1144z" />
    <glyph glyph-name="uni0638" unicode="&#x638;" horiz-adv-x="1428" arabic-form="isolated" 
d="M1177 207q6 7 10 14t4 9q0 4 -10 18.5t-27.5 33.5t-40.5 39.5t-48.5 38t-52.5 29t-52 11.5q-30 0 -72 -18.5t-88 -47t-91.5 -62.5t-81.5 -65h550zM347 0q-28 0 -68 19t-83.5 46.5t-85 57.5t-72.5 52l9 32h400l59 40v83l-54 577q-11 11 -21.5 24.5t-18.5 27t-13 25.5
t-5 21l119 152h16q0 -23 7.5 -41.5t26.5 -38.5t52 -45t83 -61l-116 -141l15 -426q0 -25 -3 -48.5t-8 -49.5q57 42 120.5 89t127 87t124.5 66t113 26q22 0 50.5 -11.5t59 -30.5t59.5 -44t52 -52t37 -53.5t14 -49.5q0 -25 -8 -54.5t-20.5 -61t-29 -63t-33.5 -60t-33 -53
t-28 -41.5h-844zM937 694l-165 101l107 143l165 -103z" />
    <glyph glyph-name="uni0638.init" unicode="&#x638;" horiz-adv-x="1065" arabic-form="initial" 
d="M814 207q6 7 10 14t4 9q0 4 -10 18.5t-27.5 33.5t-40.5 39.5t-48.5 38t-52.5 29t-52 11.5q-30 0 -72 -18.5t-88 -47t-91.5 -62.5t-81.5 -65h550zM0 0q-12 0 -25.5 5t-25.5 12.5t-19.5 17.5t-7.5 20v100q0 11 9 20.5t21 16.5t25.5 11t22.5 4h84l59 40v83l-54 577
q-15 12 -25 26.5t-15.5 29t-7.5 27.5t-2 22l111 145h16q0 -23 7.5 -41.5t26.5 -38.5t52 -45t83 -61l-116 -141l15 -426q-1 -25 -3.5 -48.5t-7.5 -49.5q57 42 120.5 89t127 87t124.5 66t113 26q22 0 50.5 -11.5t59 -30.5t59.5 -44t52 -52t37 -53.5t14 -49.5q0 -25 -8 -54.5
t-20.5 -61t-29 -63t-33.5 -60t-33 -53t-28 -41.5h-828zM587 694l-165 101l107 143l165 -103z" />
    <glyph glyph-name="uni0638.medi" unicode="&#x638;" horiz-adv-x="1129" arabic-form="medial" 
d="M814 207q6 7 10 14t4 9q0 4 -10 18.5t-27.5 33.5t-40.5 39.5t-48.5 38t-52.5 29t-52 11.5q-30 0 -72 -18.5t-88 -47t-91.5 -62.5t-81.5 -65h550zM0 0q-12 0 -25.5 5t-25.5 12.5t-19.5 17.5t-7.5 20v100q0 11 9 20.5t21 16.5t25.5 11t22.5 4h84l59 40v83l-54 577
q-15 12 -25 26.5t-15.5 29t-7.5 27.5t-2 22l111 145h16q0 -23 7.5 -41.5t26.5 -38.5t52 -45t83 -61l-116 -141l15 -426q-1 -25 -3.5 -48.5t-7.5 -49.5q57 42 120.5 89t127 87t124.5 66t113 26q22 0 50.5 -11.5t59 -30.5t59.5 -44t52 -52t37 -53.5t14 -49.5q0 -14 -3 -30.5
t-7.5 -33.5t-10.5 -33t-12 -29h182v-207h-1129zM637 694l-165 101l107 143l165 -103z" />
    <glyph glyph-name="uni0638.fina" unicode="&#x638;" horiz-adv-x="1491" arabic-form="final" 
d="M1177 207q6 7 10 14t4 9q0 4 -10 18.5t-27.5 33.5t-40.5 39.5t-48.5 38t-52.5 29t-52 11.5q-30 0 -72 -18.5t-88 -47t-91.5 -62.5t-81.5 -65h550zM347 0q-28 0 -68 19t-83.5 46.5t-85 57.5t-72.5 52l9 32h400l59 40v83l-54 577q-15 12 -25 26.5t-15.5 29t-7.5 27.5t-2 22
l111 145h16q0 -23 7.5 -41.5t26.5 -38.5t52 -45t83 -61l-116 -141l15 -426q-1 -25 -3.5 -48.5t-7.5 -49.5q57 42 120.5 89t127 87t124.5 66t113 26q22 0 50.5 -11.5t59 -30.5t59.5 -44t52 -52t37 -53.5t14 -49.5q0 -29 -10.5 -63t-23.5 -63h182v-207h-1144zM987 694
l-165 101l107 143l165 -103z" />
    <glyph glyph-name="uni0639" unicode="&#x639;" horiz-adv-x="926" arabic-form="isolated" 
d="M667 279q-98 -41 -190 -93.5t-163.5 -116t-115 -136.5t-43.5 -153q0 -64 47.5 -111t146 -77.5t250 -45.5t358.5 -15l9 -38q-44 -20 -105.5 -45t-126.5 -47.5t-125.5 -38t-100.5 -15.5q-95 0 -163 18t-114.5 49t-75 71.5t-43.5 86.5t-20 94t-5 93q0 82 16 149.5
t39.5 121.5t51 94t50.5 67q-33 17 -67 41t-61 53t-44 61.5t-17 65.5q0 60 23.5 123.5t60.5 116.5t82 87t89 34q40 0 77.5 -12.5t70 -33t60.5 -47.5t49 -55l-19 -20q-12 6 -29.5 13t-37 13t-39.5 10t-38 4q-23 0 -57 -7t-70 -19.5t-70.5 -29.5t-58.5 -36q0 -24 14 -48
t35.5 -45t49 -39.5t54.5 -31.5t51.5 -20.5t39.5 -7.5q34 0 61 9l281 126z" />
    <glyph glyph-name="uni0639.init" unicode="&#x639;" horiz-adv-x="939" arabic-form="initial" 
d="M795 77q-29 -5 -77.5 -13t-107 -17t-121 -18t-118.5 -16q-33 -4 -84 -6.5t-105 -4t-103.5 -2t-78.5 -0.5q-12 0 -26 5t-26 14.5t-20 24t-8 32.5v55q0 19 8 33.5t20 24t26 14t26 4.5q22 0 52.5 0.5t61.5 1t59 2t46 3.5q-12 22 -25.5 47.5t-13.5 59.5t12.5 73.5t34.5 78.5
t51 75t62 64t68 44.5t68 16.5q48 0 86.5 -16t70.5 -42t59 -60.5t51 -70.5l-20 -19q-32 29 -69.5 47t-75.5 18q-28 0 -61.5 -1.5t-68.5 -7.5t-70 -17.5t-67 -31.5q9 -46 34.5 -84.5t58 -68t67.5 -49t62 -26.5q5 0 29.5 3t59 7.5t75 9t76.5 9l64 8t37 4.5z" />
    <glyph glyph-name="uni0639.medi" unicode="&#x639;" horiz-adv-x="841" arabic-form="medial" 
d="M673 0q-38 0 -71 3t-62.5 13.5t-56 30t-51.5 53.5q-30 -23 -69.5 -41.5t-84 -31.5t-91.5 -20t-91 -7h-96q-14 0 -28 5.5t-25.5 15.5t-19 22.5t-7.5 26.5v77q0 11 7.5 22t19 19.5t25.5 13.5t28 5h82q34 0 72 4t74 10.5t67.5 16t54.5 21.5q-8 14 -21 32t-28.5 33.5
t-31.5 26.5t-29 11q-12 0 -23 -2.5t-22 -6.5l-32 17l73 227q30 15 72 25t87 10q19 0 47.5 -6.5t60.5 -19t63.5 -29.5t57 -38.5t41.5 -46t16 -51.5q0 -18 -5 -46.5t-14.5 -59t-24.5 -57.5t-36 -42q19 -14 51 -21.5t54 -7.5h135v-207h-168z" />
    <glyph glyph-name="uni0639.fina" unicode="&#x639;" horiz-adv-x="831" arabic-form="final" 
d="M685 0q-41 0 -83.5 1.5t-80 9t-66.5 23.5t-43 46l-22 33q-51 -36 -95 -77t-76.5 -85.5t-51 -91.5t-18.5 -96q0 -64 41 -111t130 -77.5t229.5 -45.5t339.5 -15l9 -38q-37 -18 -91 -43t-112.5 -48t-114 -39t-95.5 -16q-92 0 -158 17.5t-111 47.5t-71.5 70.5t-40.5 86
t-18.5 94.5t-4.5 96q0 86 19.5 156t47 125t58 94.5t52.5 64.5q11 13 24.5 26t29.5 27q-6 11 -18 24.5t-26 25t-29.5 19.5t-29.5 8q-20 0 -45 -9l-32 17q8 22 19.5 52.5t23.5 63t23.5 63.5t20.5 55q23 14 56.5 25t77.5 11q21 0 50.5 -6.5t61.5 -18t64 -28t57 -36.5
t40.5 -43.5t15.5 -49.5q0 -20 -6 -44.5t-16.5 -49t-24 -45.5t-28.5 -33q21 -16 52 -22.5t65 -6.5h147v-207h-146z" />
    <glyph glyph-name="uni063A" unicode="&#x63a;" horiz-adv-x="926" arabic-form="isolated" 
d="M667 279q-98 -41 -190 -93.5t-163.5 -116t-115 -136.5t-43.5 -153q0 -64 47.5 -111t146 -77.5t250 -45.5t358.5 -15l9 -38q-44 -20 -105.5 -45t-126.5 -47.5t-125.5 -38t-100.5 -15.5q-95 0 -163 18t-114.5 49t-75 71.5t-43.5 86.5t-20 94t-5 93q0 82 16 149.5
t39.5 121.5t51 94t50.5 67q-33 17 -67 41t-61 53t-44 61.5t-17 65.5q0 60 23.5 123.5t60.5 116.5t82 87t89 34q40 0 77.5 -12.5t70 -33t60.5 -47.5t49 -55l-19 -20q-12 6 -29.5 13t-37 13t-39.5 10t-38 4q-23 0 -57 -7t-70 -19.5t-70.5 -29.5t-58.5 -36q0 -24 14 -48
t35.5 -45t49 -39.5t54.5 -31.5t51.5 -20.5t39.5 -7.5q34 0 61 9l281 126zM277 867l-165 101l107 143l165 -103z" />
    <glyph glyph-name="uni063A.init" unicode="&#x63a;" horiz-adv-x="939" arabic-form="initial" 
d="M795 77q-29 -5 -77.5 -13t-107 -17t-121 -18t-118.5 -16q-33 -4 -84 -6.5t-105 -4t-103.5 -2t-78.5 -0.5q-12 0 -26 5t-26 14.5t-20 24t-8 32.5v55q0 19 8 33.5t20 24t26 14t26 4.5q22 0 52.5 0.5t61.5 1t59 2t46 3.5q-12 22 -25.5 47.5t-13.5 59.5t12.5 73.5t34.5 78.5
t51 75t62 64t68 44.5t68 16.5q48 0 86.5 -16t70.5 -42t59 -60.5t51 -70.5l-20 -19q-32 29 -69.5 47t-75.5 18q-28 0 -61.5 -1.5t-68.5 -7.5t-70 -17.5t-67 -31.5q9 -46 34.5 -84.5t58 -68t67.5 -49t62 -26.5q5 0 29.5 3t59 7.5t75 9t76.5 9l64 8t37 4.5zM463 779l-165 101
l107 143l165 -103z" />
    <glyph glyph-name="uni063A.medi" unicode="&#x63a;" horiz-adv-x="841" arabic-form="medial" 
d="M673 0q-38 0 -71 3t-62.5 13.5t-56 30t-51.5 53.5q-30 -23 -69.5 -41.5t-84 -31.5t-91.5 -20t-91 -7h-96q-14 0 -28 5.5t-25.5 15.5t-19 22.5t-7.5 26.5v77q0 11 7.5 22t19 19.5t25.5 13.5t28 5h82q34 0 72 4t74 10.5t67.5 16t54.5 21.5q-8 14 -21 32t-28.5 33.5
t-31.5 26.5t-29 11q-12 0 -23 -2.5t-22 -6.5l-32 17l73 227q30 15 72 25t87 10q19 0 47.5 -6.5t60.5 -19t63.5 -29.5t57 -38.5t41.5 -46t16 -51.5q0 -18 -5 -46.5t-14.5 -59t-24.5 -57.5t-36 -42q19 -14 51 -21.5t54 -7.5h135v-207h-168zM455 740l-165 101l107 143l165 -103
z" />
    <glyph glyph-name="uni063A.fina" unicode="&#x63a;" horiz-adv-x="831" arabic-form="final" 
d="M685 0q-41 0 -83.5 1.5t-80 9t-66.5 23.5t-43 46l-22 33q-51 -36 -95 -77t-76.5 -85.5t-51 -91.5t-18.5 -96q0 -64 41 -111t130 -77.5t229.5 -45.5t339.5 -15l9 -38q-37 -18 -91 -43t-112.5 -48t-114 -39t-95.5 -16q-92 0 -158 17.5t-111 47.5t-71.5 70.5t-40.5 86
t-18.5 94.5t-4.5 96q0 86 19.5 156t47 125t58 94.5t52.5 64.5q11 13 24.5 26t29.5 27q-6 11 -18 24.5t-26 25t-29.5 19.5t-29.5 8q-20 0 -45 -9l-32 17q8 22 19.5 52.5t23.5 63t23.5 63.5t20.5 55q23 14 56.5 25t77.5 11q21 0 50.5 -6.5t61.5 -18t64 -28t57 -36.5
t40.5 -43.5t15.5 -49.5q0 -20 -6 -44.5t-16.5 -49t-24 -45.5t-28.5 -33q21 -16 52 -22.5t65 -6.5h147v-207h-146zM429 699l-165 101l107 143l165 -103z" />
    <glyph glyph-name="uni0641" unicode="&#x641;" horiz-adv-x="1445" arabic-form="isolated" 
d="M1089 601q-23 0 -42 -9t-34 -22.5t-25.5 -29.5t-14.5 -29q7 -10 25 -20.5t43 -19t54.5 -14t58.5 -5.5q13 0 29.5 2t30.5 4q-6 21 -19 45.5t-30 46.5t-36.5 36.5t-39.5 14.5zM354 0q-86 0 -139.5 21.5t-83.5 53t-40.5 68.5t-10.5 68q0 69 23 132.5t71 137.5l36 -15
q-8 -17 -14.5 -37.5t-12 -40.5t-8.5 -38t-3 -30q0 -14 6.5 -33t29 -37t66 -30.5t117.5 -12.5h862q1 10 1.5 19.5t0.5 15.5q0 30 -6 66t-14 61h-17q-10 -15 -20.5 -30.5t-23 -28t-26.5 -20.5t-31 -8q-33 0 -73.5 7t-76.5 22.5t-60 41.5t-24 64q0 45 12 89.5t32 84.5t46.5 74
t56 59t60.5 39t59 14q45 0 84 -40t67 -102t44 -137.5t16 -147.5q0 -24 -3 -51.5t-10.5 -67t-22 -95t-36.5 -136.5h-934zM1127 875l-165 101l107 143l165 -103z" />
    <glyph glyph-name="uni0641.init" unicode="&#x641;" horiz-adv-x="734" arabic-form="initial" 
d="M503 458q-6 21 -20.5 45.5t-33 46.5t-39 36.5t-39.5 14.5t-38 -9t-34.5 -22.5t-26 -29.5t-12.5 -30q8 -11 28 -21t45.5 -18.5t54.5 -13.5t55 -5q12 0 29 2t31 4zM0 0q-12 0 -26 5t-26 14.5t-20 24t-8 32.5v55q0 19 8 33.5t20 24t26 14t26 4.5h542q1 10 1.5 19.5t0.5 15.5
q0 30 -6 66t-14 61h-24q-9 -15 -20.5 -30.5t-24.5 -28t-28 -20.5t-31 -8q-33 0 -72.5 7t-73.5 22.5t-57 41.5t-23 64q0 72 26 137t65.5 114.5t86.5 79t89 29.5q45 0 84 -40t67.5 -102t44.5 -137.5t16 -147.5q0 -24 -3 -51.5t-10.5 -67t-22 -95t-36.5 -136.5h-577zM416 878
l-165 101l107 143l165 -103z" />
    <glyph glyph-name="uni0641.medi" unicode="&#x641;" horiz-adv-x="815" arabic-form="medial" 
d="M413 425q-21 0 -44.5 -7t-45.5 -18.5t-40.5 -27.5t-30.5 -34q0 -7 4 -19.5t14.5 -28.5t30 -35t52.5 -40q18 4 45.5 13t56 19.5t52.5 22.5t35 23q-4 19 -17.5 42.5t-32 43t-39.5 33t-40 13.5zM0 0q-8 0 -21 3.5t-26.5 12t-23 21.5t-9.5 32v67q0 19 9.5 32.5t23 22
t26.5 12.5t21 4h162q-1 4 -1 10v11q0 32 14 72.5t38 83.5t56.5 84t70 73.5t78.5 52t81 19.5q25 0 51 -20.5t47 -55t34.5 -79t13.5 -92.5q0 -9 -3.5 -22.5t-9 -29t-11.5 -31t-12 -26.5q-6 -12 -14 -25t-19 -25h239v-207h-815zM467 719l-165 101l107 143l165 -103z" />
    <glyph glyph-name="uni0641.fina" unicode="&#x641;" horiz-adv-x="1642" arabic-form="final" 
d="M1247 425q-20 0 -44 -6t-47 -17.5t-43 -27.5t-33 -35q1 -7 4.5 -19.5t14.5 -29t30.5 -35.5t52.5 -40q18 4 45.5 13t55.5 20t51.5 22.5t34.5 22.5q-3 21 -17.5 44t-33 42.5t-38 32.5t-33.5 13zM354 0q-86 0 -139.5 21.5t-83.5 53t-40.5 68.5t-10.5 68q0 37 6.5 71
t18.5 66.5t29.5 65t39.5 67.5l36 -15q-8 -19 -16 -39.5t-14 -40t-9.5 -37t-3.5 -30.5q0 -17 8.5 -36.5t32.5 -36.5t68.5 -28t116.5 -11h597v21q0 32 13.5 72.5t37.5 83.5t56.5 84t69.5 73.5t78 52t81 19.5q27 0 53.5 -22.5t47.5 -58t33.5 -80t12.5 -87.5q0 -11 -4 -26
t-9.5 -31t-12 -31t-11.5 -25q-6 -12 -16 -24t-20 -21h242v-207h-1288zM1308 719l-165 101l107 143l165 -103z" />
    <glyph glyph-name="uni0642" unicode="&#x642;" horiz-adv-x="1106" arabic-form="isolated" 
d="M633 348q8 -9 26.5 -19.5t41.5 -18.5t49 -13.5t49 -5.5q25 0 40 1.5t37 5.5q-11 27 -27 52.5t-35 46t-40 32.5t-43 12q-17 0 -32.5 -8.5t-28.5 -22t-22.5 -30t-14.5 -32.5zM875 220q-31 -49 -59.5 -78.5t-65.5 -29.5q-42 0 -80 7t-66.5 22t-45.5 38t-17 55q0 54 12.5 104
t33 94t47 80.5t55 62.5t56 40.5t50.5 14.5q35 0 66 -19.5t56 -53t44.5 -78.5t32.5 -95.5t20 -104.5t7 -106q0 -83 -16 -161.5t-48 -159.5q-40 -33 -93.5 -70t-121 -68.5t-148.5 -52.5t-177 -21q-105 0 -171 26t-103 68t-50 95t-13 107q0 65 14 123.5t36 109.5t48 95t49 81
l39 -15q-15 -35 -28.5 -68t-23.5 -66t-16 -68t-6 -73q0 -56 26 -94.5t66 -62.5t86.5 -34.5t87.5 -10.5q73 0 145.5 14.5t135.5 37t113.5 51t80.5 56.5q0 15 -0.5 40.5t-1.5 42.5q-2 35 -12 67.5t-20 57.5h-24zM889 733l-121 72l-55 -72l-150 89l103 137l119 -74l57 74
l150 -92z" />
    <glyph glyph-name="uni0642.init" unicode="&#x642;" horiz-adv-x="734" arabic-form="initial" 
d="M503 458q-6 21 -20.5 45.5t-33 46.5t-39 36.5t-39.5 14.5t-38 -9t-34.5 -22.5t-26 -29.5t-12.5 -30q8 -11 28 -21t45.5 -18.5t54.5 -13.5t55 -5q12 0 29 2t31 4zM0 0q-12 0 -26 5t-26 14.5t-20 24t-8 32.5v55q0 19 8 33.5t20 24t26 14t26 4.5h542q1 10 1.5 19.5t0.5 15.5
q0 30 -6 66t-14 61h-24q-9 -15 -20.5 -30.5t-24.5 -28t-28 -20.5t-31 -8q-33 0 -72.5 7t-73.5 22.5t-57 41.5t-23 64q0 72 26 137t65.5 114.5t86.5 79t89 29.5q45 0 84 -40t67.5 -102t44.5 -137.5t16 -147.5q0 -24 -3 -51.5t-10.5 -67t-22 -95t-36.5 -136.5h-577zM508 864
l-121 72l-55 -72l-150 89l103 137l119 -74l57 74l150 -92z" />
    <glyph glyph-name="uni0642.medi" unicode="&#x642;" horiz-adv-x="815" arabic-form="medial" 
d="M413 425q-21 0 -44.5 -7t-45.5 -18.5t-40.5 -27.5t-30.5 -34q0 -7 4 -19.5t14.5 -28.5t30 -35t52.5 -40q18 4 45.5 13t56 19.5t52.5 22.5t35 23q-4 19 -17.5 42.5t-32 43t-39.5 33t-40 13.5zM0 0q-8 0 -21 3.5t-26.5 12t-23 21.5t-9.5 32v67q0 19 9.5 32.5t23 22
t26.5 12.5t21 4h162q-1 4 -1 10v11q0 32 14 72.5t38 83.5t56.5 84t70 73.5t78.5 52t81 19.5q25 0 51 -20.5t47 -55t34.5 -79t13.5 -92.5q0 -9 -3.5 -22.5t-9 -29t-11.5 -31t-12 -26.5q-6 -12 -14 -25t-19 -25h239v-207h-815zM565 732l-121 72l-55 -72l-150 89l103 137
l119 -74l57 74l150 -92z" />
    <glyph glyph-name="uni0642.fina" unicode="&#x642;" horiz-adv-x="1098" arabic-form="final" 
d="M623 271q11 -23 50.5 -37t98.5 -22q9 -1 24.5 -2t32 -1.5t32.5 -1t27 -0.5q-15 33 -35.5 61.5t-42 49.5t-43.5 32.5t-40 11.5q-21 0 -38.5 -11t-31 -26t-22.5 -30.5t-12 -23.5zM998 0q-8 -66 -23 -119t-37 -108q-38 -31 -90.5 -67.5t-118 -68t-144 -52.5t-168.5 -21
q-97 0 -162 22.5t-104 62.5t-55 94.5t-16 117.5q0 65 13.5 122.5t34 106.5t44.5 89.5t45 72.5l39 -15q-28 -60 -46 -120t-18 -137q0 -56 25.5 -94.5t65 -62.5t86.5 -34.5t89 -10.5q73 0 142.5 14t129.5 36.5t107.5 50t77.5 54.5q3 19 3.5 34t1.5 35q-14 0 -36.5 0.5t-47.5 1
t-50 2t-43 4.5q-47 7 -86 16.5t-66.5 25.5t-42.5 41.5t-15 64.5q0 77 21.5 148t56 126t77 87.5t83.5 32.5q44 0 84 -31t71 -80.5t51.5 -111t25.5 -122.5h95v-207h-100zM865 655l-121 72l-55 -72l-150 89l103 137l119 -74l57 74l150 -92z" />
    <glyph glyph-name="uni0643" unicode="&#x643;" horiz-adv-x="1326" arabic-form="isolated" 
d="M710 766q-5 -4 -16.5 -11.5t-16.5 -11.5q-11 -8 -18.5 -16.5t-9.5 -16.5q5 -2 13.5 -3t14.5 -1q20 0 37.5 -1.5t30 -7t19.5 -16t7 -29.5t-5 -47t-16.5 -55.5t-28.5 -50t-41 -30.5q-16 -5 -46 -11.5t-63 -12.5t-64.5 -10t-50.5 -4l-7 19q56 25 110.5 54t96.5 57
q-21 0 -40 3t-33.5 10.5t-22.5 20.5t-8 34q0 43 22.5 85t51 77t55 58.5t35.5 28.5zM354 0q-86 0 -139.5 21.5t-83.5 53t-40.5 68.5t-10.5 68q0 37 6.5 71t18.5 66.5t29.5 65t39.5 67.5l36 -15q-17 -40 -30 -80.5t-13 -66.5q0 -17 8.5 -36.5t32.5 -36.5t68 -28t116 -11h711
l-70 702q-17 17 -28 45t-11 58l111 145h16q1 -21 6 -37.5t23 -36t52.5 -47t93.5 -69.5l-119 -148l47 -596l-73 -223h-797z" />
    <glyph glyph-name="uni0643.init" unicode="&#x643;" horiz-adv-x="785" arabic-form="initial" 
d="M760 974q-65 -26 -140.5 -56.5t-153 -62t-153 -63.5t-140.5 -60q45 -32 103 -73t116 -86.5t107.5 -92t78.5 -88.5q26 -37 41 -73t15 -86q0 -30 -6 -60t-15.5 -60t-20.5 -58.5t-21 -54.5h-571q-12 0 -26 5t-26 14.5t-20 24t-8 32.5v55q0 19 8 33.5t20 24t26 14t26 4.5h541
q-4 19 -21.5 40.5t-44.5 44t-60 46t-68 47t-69.5 45t-63.5 41.5l-6 -47q-30 15 -59.5 30.5t-59.5 29.5q-35 17 -53.5 54t-18.5 91q0 47 19 102.5t57 116.5q10 18 46.5 41t92.5 50t129 58t156 65q26 10 67.5 27t86 35t85 35t64.5 27z" />
    <glyph glyph-name="uni0643.medi" unicode="&#x643;" horiz-adv-x="878" arabic-form="medial" 
d="M726 0q-24 0 -43 9.5t-35 27.5t-31 43t-32 55q-10 18 -19 35t-21 37l-15 -2q0 -38 -15.5 -87.5t-52.5 -117.5h-462q-12 0 -26 5t-26 14.5t-20 24t-8 32.5v55q0 19 8 33.5t20 24t26 14t26 4.5h455q-7 30 -27.5 63.5t-50 68t-67 68.5t-79.5 64l-5 -47l-120 60
q-40 21 -56 57.5t-16 87.5q0 47 18.5 102.5t56.5 116.5q12 16 52 39.5t101.5 53t140.5 64t168 72.5q20 9 55 23.5t74 31t76.5 32t63.5 25.5l-65 -217q-58 -24 -132.5 -54.5t-153.5 -62.5t-156.5 -64.5t-140.5 -60.5q48 -32 89 -61t81 -62.5t82.5 -73.5t94.5 -94
q38 -38 65 -69.5t49 -58.5q16 -21 32.5 -39.5t32.5 -33t32.5 -23t33.5 -8.5h94v-207h-152z" />
    <glyph glyph-name="uni0643.fina" unicode="&#x643;" horiz-adv-x="1348" arabic-form="final" 
d="M1299 0q-28 0 -50.5 2t-32.5 4q-14 3 -25.5 9t-21.5 19.5t-20 36t-20 59.5h-13q-11 -25 -29.5 -58t-36.5 -62h-705q-77 0 -128 20t-81.5 51t-43 68t-12.5 72q0 69 24.5 134.5t69.5 135.5l36 -15q-14 -39 -29 -74t-15 -75q0 -24 10 -44t34 -34.5t65 -23t104 -8.5h638
q25 0 40.5 8.5t24 23t11.5 32t3 35.5q0 14 -3.5 47.5t-8.5 89.5q-4 41 -9.5 96t-11.5 120t-13 138t-14 150l140 200l47 -862q6 -49 28 -68.5t45 -19.5h52v-207h-49zM710 766q-5 -4 -16.5 -12.5t-16.5 -12.5q-7 -6 -16.5 -14.5t-11.5 -16.5q5 -2 13.5 -3t14.5 -1
q20 0 37.5 -1.5t30 -7t19.5 -16t7 -29.5t-5 -47t-16.5 -55.5t-28.5 -50t-41 -30.5q-16 -5 -46 -11.5t-63 -12.5t-64.5 -10t-50.5 -4l-7 19q56 25 110.5 54t96.5 57q-21 0 -40 3t-33.5 10.5t-22.5 20.5t-8 34q0 43 22.5 85t51 77t55 58.5t35.5 28.5z" />
    <glyph glyph-name="uni0644" unicode="&#x644;" horiz-adv-x="1010" arabic-form="isolated" 
d="M861 820q5 -78 10.5 -157.5t10 -154.5t8.5 -141t7.5 -116.5t5 -81.5t1.5 -35q0 -60 -9.5 -106.5t-23.5 -83.5t-29.5 -65.5t-27.5 -51.5q-37 -26 -85 -51.5t-103.5 -46t-116.5 -33.5t-123 -13q-90 0 -149 27t-94 69.5t-49 95t-14 103.5q0 61 11 112.5t28 96t37.5 81.5
t39.5 69l46 -19q-23 -56 -38.5 -117.5t-15.5 -113.5q0 -44 18.5 -79t49.5 -60t72.5 -38.5t88.5 -13.5q46 0 101 10.5t109 27.5t101.5 38t76.5 41l-86 896q-17 17 -28 45t-11 58l111 145h16q1 -21 6 -37.5t22.5 -36t51.5 -46.5t93 -69z" />
    <glyph glyph-name="uni0644.init" unicode="&#x644;" horiz-adv-x="488" arabic-form="initial" 
d="M0 0q-13 0 -28.5 5t-29 14.5t-23 24t-9.5 32.5v55q0 19 9.5 33.5t23 24t29 14t28.5 4.5h274l-70 701q-24 25 -32 49t-8 53l114 147h18q0 -23 7.5 -41t26.5 -38t52.5 -46t85.5 -65l-118 -147l37 -595l-73 -225h-314z" />
    <glyph glyph-name="uni0644.medi" unicode="&#x644;" horiz-adv-x="470" arabic-form="medial" 
d="M436 0q-34 0 -54.5 2t-34.5 13t-25 35.5t-25 69.5h-13l-67 -120h-217q-14 0 -29.5 4.5t-29.5 13.5t-23 23.5t-9 34.5v55q0 19 9 33.5t23 24t29.5 14t29.5 4.5h260l-66 762l128 188q3 -45 7 -109.5t8 -141t8.5 -160.5t8.5 -166.5t7.5 -159t6.5 -138.5q1 -15 4.5 -32
t11.5 -25q11 -11 25 -14.5t49 -3.5h10v-207h-32z" />
    <glyph glyph-name="uni0644.fina" unicode="&#x644;" horiz-adv-x="1043" arabic-form="final" 
d="M990 0q-32 0 -47 12.5t-25 42.5h-29q-3 -29 -8 -58.5t-16 -58.5q-9 -24 -19.5 -52.5t-25.5 -59.5q-37 -26 -86.5 -51.5t-106 -46t-118 -33.5t-123.5 -13q-90 0 -149 27t-94 69.5t-49 95t-14 103.5q0 61 9.5 109.5t25 91t36.5 81t45 79.5l49 -20q-26 -70 -42.5 -126.5
t-16.5 -114.5q0 -44 18 -77.5t49.5 -57t73.5 -35.5t90 -12q46 0 102.5 10.5t111.5 27.5t103.5 38t77.5 41l-85 937l123 187q4 -56 9 -133t10.5 -162.5t11.5 -173.5t11 -165t9 -137.5t7 -91.5q2 -22 9.5 -35t19.5 -20t29 -9t37 -2h40v-207h-53z" />
    <glyph glyph-name="uni0645" unicode="&#x645;" horiz-adv-x="835" arabic-form="isolated" 
d="M665 21q-30 6 -70.5 12t-81.5 11t-78 8.5t-61 3.5q-37 0 -65 -2.5t-50 -8t-40 -13.5t-35 -18q12 -53 24 -110.5t22.5 -121.5t17.5 -133t8 -144l-81 -193h-11q-1 73 -9.5 158t-20.5 170.5t-26.5 166t-27.5 145.5q4 24 10 50.5t13.5 51t17 46.5t20.5 39q20 31 41 55.5
t46.5 41.5t57 26t72.5 9q19 0 41.5 -3t45 -8t43 -11t36.5 -11l7 12q-4 1 -18.5 10.5t-32.5 22t-35 25t-24 20.5q-7 7 -19 17t-27 19t-31.5 15t-32.5 6q-15 0 -32.5 -7t-35 -18.5t-34.5 -27t-31 -32.5l-21 6q16 69 45.5 118t62.5 81t66.5 47t58.5 15q51 0 98 -37t99 -103
q35 -45 74 -85.5t89 -64.5z" />
    <glyph glyph-name="uni0645.init" unicode="&#x645;" horiz-adv-x="755" arabic-form="initial" 
d="M289 301q6 -4 19 -14t22 -15q50 -31 99.5 -57.5t87.5 -38.5q-8 32 -18.5 68.5t-25 67.5t-34.5 51.5t-47 20.5q-31 0 -57 -23.5t-46 -59.5zM559 -43q-36 10 -85 30.5t-103 46.5q-36 17 -79 43t-78 51q-8 -16 -15.5 -32.5t-19.5 -36.5q-18 -30 -42 -44.5t-46 -14.5h-91
q-12 0 -26 5t-26 14.5t-20 24t-8 32.5v55q0 19 8 33.5t20 24t26 14t26 4.5h87q30 0 53.5 15t30.5 30q18 40 46.5 92t64.5 99t78.5 79.5t87.5 32.5q18 0 38.5 -11t40 -31.5t36 -50.5t27.5 -68q6 -20 10.5 -40.5t9.5 -40.5q8 -35 22.5 -80.5t37.5 -88.5z" />
    <glyph glyph-name="uni0645.medi" unicode="&#x645;" horiz-adv-x="826" arabic-form="medial" 
d="M604 118q-47 52 -68.5 111t-23.5 109q-57 0 -101 -16t-64 -41q17 -17 49.5 -41.5t69 -49.5t73 -47.5t61.5 -34.5zM781 0q-38 0 -62.5 10t-53.5 37l-73 -126q-100 32 -190 81t-153 109q-25 -38 -44 -60.5t-39 -33.5t-44 -14t-58 -3h-64q-1 0 -12.5 1t-15.5 3
q-11 4 -20.5 9t-16.5 13t-11 20t-4 30v55q0 19 8 33.5t20 24t26 14t26 4.5h157q39 0 55 19q10 11 21.5 35t25.5 56q16 38 42.5 74t59.5 64.5t72.5 45.5t81.5 17q11 0 24 -2t24.5 -11t20.5 -27t13 -50q8 -63 34.5 -113.5t67.5 -89.5q9 -8 28 -13t54 -5h45v-207h-45z" />
    <glyph glyph-name="uni0645.fina" unicode="&#x645;" horiz-adv-x="895" arabic-form="final" 
d="M671 161q-14 15 -30 37t-31 45.5t-27 45t-17 35.5q-2 8 -14.5 12t-31.5 4q-20 0 -52 -10.5t-59 -21.5q22 -21 55 -46t68.5 -48t70 -41t60.5 -25zM843 0q-35 0 -68 19t-67 64l-77 -134q-50 17 -100.5 42t-98 54t-88 60.5t-69.5 61.5l48 105q-11 -6 -27 -15.5t-33 -19.5
t-32 -19.5t-23 -15.5q9 -55 17.5 -130t15 -156.5t11 -164t4.5 -152.5l-75 -201h-12q0 54 -4 122t-11.5 142t-16.5 150t-19 146.5t-20 132t-19 105.5q9 25 20.5 52t25.5 52.5t30 48.5t33 41q19 16 48.5 34t62.5 35t67.5 32t65 26.5t54.5 18.5t35 7q35 0 63.5 -24t42.5 -63
q7 -21 19 -46t25.5 -49t28 -45.5t26.5 -37.5q23 -29 52 -50t68 -21h49v-207h-52z" />
    <glyph glyph-name="uni0646" unicode="&#x646;" horiz-adv-x="1030" arabic-form="isolated" 
d="M825 495q64 -102 92 -195.5t28 -188.5q0 -30 -5 -64.5t-14.5 -69.5t-22 -68.5t-27.5 -60.5q-42 -29 -95.5 -57t-114 -50t-126.5 -36t-134 -14q-95 0 -158 27t-100.5 70.5t-52.5 98.5t-15 110q0 61 14.5 118t36.5 107.5t48 94t48 79.5l39 -15q-35 -80 -54.5 -147.5
t-19.5 -131.5q0 -46 20 -82.5t54 -62t78.5 -39.5t92.5 -14q49 0 109.5 10.5t119 27.5t108 38.5t77.5 44.5q-3 30 -13 68t-26.5 78.5t-39 80.5t-50.5 75zM527 559l-165 101l107 143l165 -103z" />
    <glyph glyph-name="uni0646.init" unicode="&#x646;" horiz-adv-x="456" arabic-form="initial" 
d="M0 0q-12 0 -26 5t-26 14.5t-20 24t-8 32.5v55q0 19 8 33.5t20 24t26 14t26 4.5h268q-6 21 -19 47t-29 51.5t-33 47.5t-29 35l104 164q20 -29 39.5 -67.5t35 -79.5t25 -81.5t9.5 -73.5q0 -31 -6 -64t-15 -66t-20 -63.5t-21 -56.5h-309zM242 635l-165 101l107 143l165 -103
z" />
    <glyph glyph-name="uni0646.medi" unicode="&#x646;" horiz-adv-x="560" arabic-form="medial" 
d="M383 0q-36 0 -57.5 3t-36.5 15t-25.5 36t-23.5 66h-14l-66 -120h-160q-10 0 -26 4.5t-31 13.5t-26 23t-11 32v58q0 19 11 33t26 23.5t30.5 14.5t25.5 5h194l27 241l155 83l-43 -262q3 -20 13 -32.5t24.5 -19t33 -8.5t38.5 -2h119v-207h-177zM272 604l-165 101l107 143
l165 -103z" />
    <glyph glyph-name="uni0646.fina" unicode="&#x646;" horiz-adv-x="1080" arabic-form="final" 
d="M954 0q-1 -30 -7 -64t-15.5 -68t-21.5 -65t-24 -54q-39 -27 -93.5 -54.5t-118 -50.5t-133.5 -37.5t-139 -14.5q-95 0 -157.5 27t-99 70.5t-51 98.5t-14.5 110q0 64 14 120t35 105.5t47 92.5t50 81l39 -15q-35 -81 -54.5 -148t-19.5 -131q0 -46 20.5 -82.5t54 -62
t77 -39.5t88.5 -14q52 0 114 10.5t122 27.5t110.5 39t78.5 45q-3 30 -13 69.5t-27 81.5t-40 84t-51 77l103 167q27 -43 47.5 -76.5t39.5 -75.5q9 -20 24.5 -33.5t40.5 -13.5h100v-207h-126zM550 459l-165 101l107 143l165 -103z" />
    <glyph glyph-name="uni0647.init" unicode="&#x647;" horiz-adv-x="882" arabic-form="initial" 
d="M725 135q0 20 -8 48.5t-21.5 59t-31 61t-35.5 53.5v-29.5t-2 -25.5q-7 -30 -25 -66t-46 -62q17 -6 38.5 -12.5t44.5 -12t45.5 -9.5t40.5 -5zM439 197q12 4 26 13.5t27.5 21t24 23.5t16.5 22q0 14 -8 37.5t-20.5 46t-28 39t-29.5 16.5q-35 0 -65.5 -9t-55.5 -23.5
t-44.5 -33t-31.5 -37.5q0 -13 13 -28.5t37.5 -31t59.5 -30t79 -26.5zM731 -55q-18 0 -61 5t-95 15t-104.5 25t-89.5 35q-24 -6 -52 -10.5t-56.5 -7.5t-55.5 -5t-49 -2h-168q-6 0 -19.5 1.5t-27.5 8.5t-24.5 19.5t-10.5 35.5v85q0 13 8.5 23.5t21 18t26.5 11.5t26 4h175
q-10 12 -13.5 26t-3.5 30q0 18 13 48t34.5 64t48.5 68.5t55 62.5l-12 3l33 167q3 13 11 21.5t18.5 13t21 6.5t17.5 2t17.5 -3.5t19.5 -8.5q65 -35 130 -89.5t116.5 -122t83.5 -144.5t32 -158q0 -32 -6.5 -66.5t-16.5 -67.5t-21.5 -62.5t-21.5 -51.5z" />
    <glyph glyph-name="uni0647.medi.alt2" unicode="&#x647;" horiz-adv-x="652" arabic-form="medial" 
d="M582 0q-21 0 -47 -2.5t-48.5 -9.5t-38 -20.5t-15.5 -34.5q0 -27 9.5 -51.5t24 -46.5t32.5 -42.5t35 -40.5l-75 -203h-10q-72 42 -123.5 93t-84.5 104.5t-48 104.5t-15 92q0 36 4 68.5t12 66.5l-11 9q-42 -43 -86.5 -65t-96.5 -22q-12 0 -26 5t-26 14.5t-20 24t-8 32.5v55
q0 19 8 33.5t20 24t26 14t26 4.5q85 0 142.5 19t96.5 52t63 76.5t41 92.5l67 -23q-17 -80 -36 -137t-47 -101q-10 -15 -28 -36.5t-32 -32.5q-11 -26 -16 -51.5t-5 -68.5q0 -29 11 -59t28.5 -57.5t39.5 -49t44 -32.5l9 5q-4 10 -7.5 27t-6.5 37.5t-4.5 41t-1.5 37.5
q0 63 17 111.5t47 81.5t71 50t89 17h70v-207h-70z" />
    <glyph glyph-name="uniFEE9" unicode="&#x647;" horiz-adv-x="652" arabic-form="isolated" 
d="M293 664q-4 -10 -6 -15.5t-2 -15.5q0 -6 7.5 -18.5t30.5 -26.5q23 -15 43.5 -26.5t38.5 -22.5q45 -27 76 -47.5t50 -43.5t27.5 -54t8.5 -78q0 -11 -1.5 -26.5t-3.5 -32t-4.5 -31.5t-5.5 -25q-11 -41 -25.5 -79.5t-34.5 -77.5q-17 -14 -43.5 -28.5t-61.5 -26t-78 -19
t-94 -7.5q-72 0 -104.5 38.5t-32.5 113.5q0 45 9 92t23 91.5t31 85t33 73.5q-7 7 -10 14.5t-3 23.5q0 13 11 38t27 52.5t34 53.5t32 41zM492 216q0 15 -16.5 33t-43.5 37t-61.5 38t-69.5 35q-14 8 -35 19.5t-30 19.5q-9 -13 -22.5 -37t-26 -51t-22 -53.5t-9.5 -44.5
q0 -6 4.5 -15t14.5 -16.5t27 -13t43 -5.5q39 0 82 5.5t80 13.5t61 17.5t24 17.5z" />
    <glyph glyph-name="uni0647.medi" unicode="&#x647;" horiz-adv-x="711" arabic-form="medial" 
d="M447 483q-18 -16 -45.5 -46.5t-56.5 -66.5t-55 -72t-41 -63q29 8 68 19.5t74.5 25t60 27t24.5 25.5q0 10 -1 29.5t-4 41.5t-8.5 43.5t-15.5 36.5zM515 -123q0 25 -15.5 43.5t-40.5 31.5t-57 21.5t-65 13.5t-63.5 7.5t-53.5 3.5q15 -25 41 -53.5t57 -52.5t64.5 -40
t65.5 -16q28 0 47.5 10.5t19.5 30.5zM586 0q3 -20 3 -47q0 -40 -14 -92t-40.5 -98t-63.5 -77.5t-82 -31.5q-61 0 -107 31.5t-77.5 81.5t-49 111.5t-21.5 121.5h-134q-12 0 -26 5t-26 14.5t-20 24t-8 32.5v55q0 19 8 33.5t20 24t26 14t26 4.5q57 0 98.5 2.5t73.5 10.5
q10 33 32 76t50 90.5t60.5 96.5t65.5 93.5t64 81.5t55 61q15 -15 28.5 -48t24 -71t16.5 -75.5t6 -61.5t-8.5 -54.5t-22.5 -64t-31 -69t-35 -68.5h234v-207h-125z" />
    <glyph glyph-name="uni0647.fina" unicode="&#x6be;" horiz-adv-x="809" arabic-form="final" 
d="M488 352l-8 220q-4 -8 -9 -18.5t-10.5 -21.5t-11 -20t-10.5 -12t-21 -10t-38.5 -17t-48 -21t-50 -20.5t-44 -17.5t-29.5 -11l-7 -13q24 -8 55.5 -15.5t66 -14t70 -12t67.5 -9.5zM676 0q-20 0 -39 6.5t-35.5 16.5t-30.5 23t-24 26q-20 25 -33 76t-18 110h-26l-81 -124
q-20 4 -46.5 9.5t-54 12t-55 13.5t-49.5 14q-33 11 -53.5 21.5t-31.5 23.5t-15 28t-4 35t13 54.5t31 71t37 68t31 45.5q10 12 30 23t44.5 21.5t52.5 21t54 20.5t52.5 19.5t49.5 19.5q-1 9 -2 21.5t-1.5 26t-1.5 26t-1 20.5l105 123l13 -211q1 -14 2.5 -40t4.5 -59.5t6 -72.5
t6.5 -77.5t7 -74.5t7.5 -64q2 -15 10 -27.5t17 -17.5q14 -10 32.5 -15.5t52.5 -5.5h76v-207h-133z" />
    <glyph glyph-name="uni0648" unicode="&#x648;" horiz-adv-x="772" arabic-form="isolated" 
d="M602 256q-8 19 -23.5 43t-34 46t-38.5 37t-37 15q-18 0 -35 -9t-31 -22.5t-23.5 -29t-12.5 -28.5q3 -8 17 -18.5t35 -19.5t48.5 -15t57.5 -6q11 0 34.5 2t42.5 5zM606 183q-8 -19 -20.5 -39t-29 -36t-35.5 -26.5t-41 -10.5q-45 0 -82.5 11t-64.5 31t-42 48.5t-15 64.5
q0 76 22.5 142t57.5 115t77.5 77t81.5 28q44 0 82 -39.5t65.5 -100t43.5 -131.5t16 -134q0 -62 -11.5 -127.5t-33.5 -127.5t-53.5 -117t-71 -96.5t-87.5 -65.5t-102 -24q-33 0 -77.5 9.5t-97 27t-110.5 42t-118 54.5l16 39q31 -9 55 -16.5t45 -12.5t39.5 -7.5t38.5 -2.5
q62 0 136.5 32.5t144.5 85t127 118t84 131.5q-2 14 -7 31t-9 27h-24z" />
    <glyph glyph-name="uni0648.fina" unicode="&#x648;" horiz-adv-x="917" arabic-form="final" 
d="M618 207q-5 21 -19 46.5t-32 47.5t-38.5 36.5t-38.5 14.5q-24 0 -42.5 -9t-32 -22t-21.5 -28t-12 -27q10 -17 39.5 -32t90.5 -23q6 -1 19.5 -1.5t29 -1l31 -1t26.5 -0.5zM731 0q-12 -80 -45.5 -160t-82 -143.5t-108.5 -103t-125 -39.5q-34 0 -81 10t-101.5 27.5
t-112.5 42t-114 53.5l16 39q31 -9 55 -16t45 -11.5t40.5 -6.5t39.5 -2q36 0 81 12t92 33t93.5 50.5t86.5 64.5t70.5 74t45.5 80q-26 0 -56.5 0.5t-62.5 3.5q-46 5 -85.5 15.5t-69 30.5t-46.5 50.5t-17 75.5q0 76 26.5 142.5t65.5 116t83.5 78t81.5 28.5q36 0 69.5 -30
t60 -78t44 -108.5t22.5 -121.5h175v-207h-186z" />
    <glyph glyph-name="uni0649" unicode="&#x649;" horiz-adv-x="1122" arabic-form="isolated" 
d="M975 406q-2 26 -20.5 37t-46.5 11q-18 0 -44.5 -10.5t-56 -27.5t-58.5 -38.5t-52 -44t-37.5 -44t-14.5 -37.5q0 -10 52 -28.5t161 -25.5q40 -3 72.5 -9t55 -22.5t34.5 -46.5t12 -79q0 -23 -6.5 -50.5t-16.5 -56.5t-22.5 -58t-24.5 -54q-41 -30 -104.5 -67t-138.5 -69.5
t-156 -54.5t-157 -22q-95 0 -158 27t-100.5 70.5t-52.5 98.5t-15 110q0 64 13.5 120t35 105.5t47 93t49.5 81.5l39 -16q-37 -81 -56.5 -149.5t-19.5 -134.5q0 -46 21 -82t55.5 -61t79.5 -38t93 -13q42 0 90 8t97 21t96 29.5t87.5 34t73 34.5t51.5 30q-12 4 -32 7t-44.5 5.5
t-52.5 4.5t-55 5q-42 4 -80 13.5t-66.5 25.5t-45 39.5t-16.5 55.5q0 54 19 115t51.5 120.5t75.5 114t90 96t95 66t92 24.5q74 0 74 -111q0 -10 -4 -28t-10 -39.5t-13 -44t-14 -41.5h-21z" />
    <glyph glyph-name="uni0649.init" unicode="&#x649;" horiz-adv-x="456" arabic-form="initial" 
d="M0 0q-12 0 -26 5t-26 14.5t-20 24t-8 32.5v55q0 19 8 33.5t20 24t26 14t26 4.5h268q-6 21 -19 47t-29 51.5t-33 47.5t-29 35l104 164q20 -29 39.5 -67.5t35 -79.5t25 -81.5t9.5 -73.5q0 -31 -6 -64t-15 -66t-20 -63.5t-21 -56.5h-309z" />
    <glyph glyph-name="uni0649.medi" unicode="&#x649;" horiz-adv-x="560" arabic-form="medial" 
d="M383 0q-36 0 -57.5 3t-36.5 15t-25.5 36t-23.5 66h-14l-66 -120h-160q-10 0 -26 4.5t-31 13.5t-26 23t-11 32v58q0 19 11 33t26 23.5t30.5 14.5t25.5 5h194l27 241l155 83l-43 -262q3 -20 13 -32.5t24.5 -19t33 -8.5t38.5 -2h119v-207h-177z" />
    <glyph glyph-name="uni0649.fina" unicode="&#x649;" horiz-adv-x="883" arabic-form="final" 
d="M883 124q20 -13 43.5 -32.5t46.5 -43.5q13 -14 29 -36.5t27 -46.5l-78 -224q-36 -28 -99.5 -55.5t-139.5 -49.5t-156.5 -35.5t-149.5 -13.5q-95 0 -158 27t-100.5 70.5t-52.5 98.5t-15 110q0 64 13 119t33.5 103.5t45 90.5t48.5 80l36 -14q-35 -81 -52 -147.5t-17 -131.5
q0 -45 20 -81t54 -61t79.5 -38.5t96.5 -13.5q78 0 155.5 8.5t144.5 22t118.5 31.5t77.5 38q-16 18 -48.5 38t-76 37t-95.5 29.5t-107 14.5q19 51 39.5 101t40.5 88h197v-83z" />
    <glyph glyph-name="uni064A" unicode="&#x64a;" horiz-adv-x="1122" arabic-form="isolated" 
d="M975 406q-2 26 -20.5 37t-46.5 11q-18 0 -44.5 -10.5t-56 -27.5t-58.5 -38.5t-52 -44t-37.5 -44t-14.5 -37.5q0 -10 52 -28.5t161 -25.5q40 -3 72.5 -9t55 -22.5t34.5 -46.5t12 -79q0 -23 -6.5 -50.5t-16.5 -56.5t-22.5 -58t-24.5 -54q-41 -30 -104.5 -67t-138.5 -69.5
t-156 -54.5t-157 -22q-95 0 -158 27t-100.5 70.5t-52.5 98.5t-15 110q0 64 13.5 120t35 105.5t47 93t49.5 81.5l39 -16q-37 -81 -56.5 -149.5t-19.5 -134.5q0 -46 21 -82t55.5 -61t79.5 -38t93 -13q42 0 90 8t97 21t96 29.5t87.5 34t73 34.5t51.5 30q-12 4 -32 7t-44.5 5.5
t-52.5 4.5t-55 5q-42 4 -80 13.5t-66.5 25.5t-45 39.5t-16.5 55.5q0 54 19 115t51.5 120.5t75.5 114t90 96t95 66t92 24.5q74 0 74 -111q0 -10 -4 -28t-10 -39.5t-13 -44t-14 -41.5h-21zM657 -681l-121 72l-55 -72l-150 89l103 137l119 -74l57 74l150 -92z" />
    <glyph glyph-name="uni064A.init" unicode="&#x64a;" horiz-adv-x="456" arabic-form="initial" 
d="M0 0q-12 0 -26 5t-26 14.5t-20 24t-8 32.5v55q0 19 8 33.5t20 24t26 14t26 4.5h268q-6 21 -19 47t-29 51.5t-33 47.5t-29 35l104 164q20 -29 39.5 -67.5t35 -79.5t25 -81.5t9.5 -73.5q0 -31 -6 -64t-15 -66t-20 -63.5t-21 -56.5h-309zM312 -353l-121 72l-55 -72l-150 89
l103 137l119 -74l57 74l150 -92z" />
    <glyph glyph-name="uni064A.medi" unicode="&#x64a;" horiz-adv-x="560" arabic-form="medial" 
d="M383 0q-36 0 -57.5 3t-36.5 15t-25.5 36t-23.5 66h-14l-66 -120h-160q-10 0 -26 4.5t-31 13.5t-26 23t-11 32v58q0 19 11 33t26 23.5t30.5 14.5t25.5 5h194l27 241l155 83l-43 -262q3 -20 13 -32.5t24.5 -19t33 -8.5t38.5 -2h119v-207h-177zM342 -323l-121 72l-55 -72
l-150 89l103 137l119 -74l57 74l150 -92z" />
    <glyph glyph-name="uni064A.fina" unicode="&#x64a;" horiz-adv-x="883" arabic-form="final" 
d="M883 124q20 -13 43.5 -32.5t46.5 -43.5q13 -14 29 -36.5t27 -46.5l-78 -224q-36 -28 -99.5 -55.5t-139.5 -49.5t-156.5 -35.5t-149.5 -13.5q-95 0 -158 27t-100.5 70.5t-52.5 98.5t-15 110q0 64 13 119t33.5 103.5t45 90.5t48.5 80l36 -14q-35 -81 -52 -147.5t-17 -131.5
q0 -45 20 -81t54 -61t79.5 -38.5t96.5 -13.5q78 0 155.5 8.5t144.5 22t118.5 31.5t77.5 38q-16 18 -48.5 38t-76 37t-95.5 29.5t-107 14.5q19 51 39.5 101t40.5 88h197v-83zM657 -681l-121 72l-55 -72l-150 89l103 137l119 -74l57 74l150 -92z" />
    <glyph glyph-name="uni066E.init" unicode="&#x66e;" horiz-adv-x="456" 
d="M0 0q-12 0 -26 5t-26 14.5t-20 24t-8 32.5v55q0 19 8 33.5t20 24t26 14t26 4.5h268q-6 21 -19 47t-29 51.5t-33 47.5t-29 35l104 164q20 -29 39.5 -67.5t35 -79.5t25 -81.5t9.5 -73.5q0 -31 -6 -64t-15 -66t-20 -63.5t-21 -56.5h-309z" />
    <glyph glyph-name="uni066E.medi" unicode="&#x66e;" horiz-adv-x="560" 
d="M383 0q-36 0 -57.5 3t-36.5 15t-25.5 36t-23.5 66h-14l-66 -120h-160q-10 0 -26 4.5t-31 13.5t-26 23t-11 32v58q0 19 11 33t26 23.5t30.5 14.5t25.5 5h194l27 241l155 83l-43 -262q3 -20 13 -32.5t24.5 -19t33 -8.5t38.5 -2h119v-207h-177z" />
    <glyph glyph-name="uni066E.fina" unicode="&#x66e;" horiz-adv-x="1371" 
d="M1255 0q-36 0 -58 3t-37 15t-25.5 36t-23.5 66h-14l-66 -120h-676q-87 0 -140.5 21.5t-83.5 53t-40.5 68.5t-10.5 68q0 74 25.5 138t68.5 132l36 -15q-17 -38 -30 -77.5t-13 -68.5q0 -18 8.5 -37.5t32.5 -36.5t68 -28t115 -11h673l27 242l155 83l-43 -263q3 -20 12.5 -32
t24 -19t33.5 -9t41 -2h57v-207h-116z" />
    <glyph glyph-name="uni0671" unicode="&#x671;" horiz-adv-x="554" arabic-form="isolated" 
d="M286 -27l-79 863l144 205q2 -41 4.5 -95t5.5 -115t6.5 -126t6.5 -127t6 -117.5t5 -98.5t3.5 -69t1.5 -30q0 -51 -10 -95.5t-23.5 -81.5t-29 -66t-25.5 -47h-16zM480 1158q2 1 6 5l6 6q0 5 -5.5 16t-15 22t-22.5 19t-28 8q-8 0 -22 -6.5t-30.5 -17t-33.5 -24.5t-32 -28
h177zM196 1081q-36 0 -58.5 18.5t-35.5 43.5q-13 -7 -22.5 -16.5t-17.5 -18.5q-11 -14 -18.5 -28.5t-15.5 -29.5q-6 3 -14.5 7.5t-13.5 7.5q7 22 15.5 46t25.5 50q15 23 33.5 37t41.5 26h31q4 -7 10.5 -16.5t15 -18.5t18.5 -15.5t21 -7.5h8q18 12 36.5 26t35.5 28
q40 31 79.5 56.5t73.5 25.5q16 0 35 -10t35.5 -25t27.5 -33.5t11 -35.5q0 -14 -7 -30t-17 -32t-22 -30t-21 -25h-291z" />
    <glyph glyph-name="uni0671.fina" unicode="&#x671;" horiz-adv-x="554" arabic-form="final" 
d="M327 0q-14 0 -27 4.5t-24.5 11.5t-20 14t-12.5 13q-17 21 -23 52t-10 76q-8 97 -15 175.5t-13 153.5t-13 154.5t-15 178.5l130 175l42 -746q2 -23 10 -39t32 -16h178v-207h-219zM480 1151q2 1 6 5l6 6q0 5 -5.5 16t-15 22t-22.5 19t-28 8q-8 0 -22 -6.5t-30.5 -17
t-33.5 -24.5t-32 -28h177zM196 1074q-36 0 -58.5 18.5t-35.5 43.5q-13 -7 -22.5 -16.5t-17.5 -18.5q-11 -14 -18.5 -28.5t-15.5 -29.5q-6 3 -14.5 7.5t-13.5 7.5q7 22 15.5 46t25.5 50q15 23 33.5 37t41.5 26h31q4 -7 10.5 -16.5t15 -18.5t18.5 -15.5t21 -7.5h8
q18 12 36.5 26t35.5 28q40 31 79.5 56.5t73.5 25.5q16 0 35 -10t35.5 -25t27.5 -33.5t11 -35.5q0 -14 -7 -30t-17 -32t-22 -30t-21 -25h-291z" />
    <glyph glyph-name="uni0672.fina" unicode="&#x672;" horiz-adv-x="557" 
d="M338 0q-14 0 -27 4.5t-24.5 11.5t-20 14t-12.5 13q-17 21 -23 52t-10 76q-8 97 -15 175.5t-13 153.5t-13 154.5t-15 178.5l130 175l42 -746q2 -23 10 -39t32 -16h178v-207h-219zM400 1123q-47 -8 -86.5 -23t-78.5 -38q-18 -11 -35 -20t-37 -9q-26 0 -46.5 13.5
t-35.5 30.5q-10 -7 -18.5 -14t-13.5 -15q-7 -11 -11 -23t-9 -26l-29 9q3 22 8 47.5t14 40.5q12 26 26 39t32 25l26 5q6 -6 14 -13.5t17 -14t19 -11.5t20 -5q9 0 15.5 2t11.5 4q-15 11 -24.5 25.5t-9.5 31.5q0 20 14 48t36 53.5t50 43t57 17.5q26 0 39 -14.5t13 -34.5
q0 -15 -6.5 -28.5t-19.5 -28.5q-15 13 -33 18.5t-31 5.5q-9 0 -19 -3.5t-18 -9.5t-13.5 -13t-5.5 -13q0 -9 8 -16t19.5 -12t25 -8t25.5 -3h6.5t7.5 1q20 3 50 11.5t65 20.5z" />
    <glyph glyph-name="uni0673.fina" unicode="&#x673;" horiz-adv-x="497" 
d="M278 0q-14 0 -27 4.5t-24.5 11.5t-20 14t-12.5 13q-17 21 -23 52t-10 76q-17 195 -32 397t-32 401l130 188l50 -895q2 -23 10 -39t32 -16h178v-207h-219zM399 -305q-47 -8 -86.5 -23t-78.5 -38q-18 -11 -35 -20t-37 -9q-26 0 -46.5 13.5t-35.5 30.5q-10 -7 -18.5 -14
t-13.5 -15q-7 -11 -11 -23t-9 -26l-29 9q3 22 8 47.5t14 40.5q12 26 26 39t32 25l26 5q6 -6 14 -13.5t17 -14t19 -11.5t20 -5q9 0 15.5 2t11.5 4q-15 11 -24.5 25.5t-9.5 31.5q0 20 14 48t36 53.5t50 43t57 17.5q26 0 39 -14.5t13 -34.5q0 -15 -6.5 -28.5t-19.5 -28.5
q-15 13 -33 18.5t-31 5.5q-9 0 -19 -3.5t-18 -9.5t-13.5 -13t-5.5 -13q0 -9 8 -16t19.5 -12t25 -8t25.5 -3h6.5t7.5 1q20 3 50 11.5t65 20.5z" />
    <glyph glyph-name="uni0675.fina" unicode="&#x675;" horiz-adv-x="497" 
d="M278 0q-14 0 -27 4.5t-24.5 11.5t-20 14t-12.5 13q-17 21 -23 52t-10 76q-8 97 -15 175.5t-13 153.5t-13 154.5t-15 178.5l130 175l42 -746q2 -23 10 -39t32 -16h178v-207h-219zM418 1150q-32 -8 -71 -19.5t-66 -25.5q-20 -10 -38 -28.5t-32 -38.5l-25 11q4 19 17 45
t32 44q-29 11 -48 30.5t-19 41.5t16 51t40 54.5t52 43.5t52 18q25 0 37.5 -13.5t12.5 -31.5q0 -26 -21 -51q-14 11 -31 17.5t-36 6.5q-21 0 -41 -12t-20 -35q0 -13 8.5 -23.5t22 -18t30 -11.5t31.5 -4q23 0 56.5 9t74.5 23z" />
    <glyph glyph-name="uni0676.fina" unicode="&#x676;" horiz-adv-x="917" 
d="M618 207q-5 21 -19 46.5t-32 47.5t-38.5 36.5t-38.5 14.5q-24 0 -42.5 -9t-32 -22t-21.5 -28t-12 -27q10 -17 39.5 -32t90.5 -23q6 -1 19.5 -1.5t29 -1l31 -1t26.5 -0.5zM731 0q-12 -80 -45.5 -160t-82 -143.5t-108.5 -103t-125 -39.5q-34 0 -81 10t-101.5 27.5
t-112.5 42t-114 53.5l16 39q31 -9 55 -16t45 -11.5t40.5 -6.5t39.5 -2q36 0 81 12t92 33t93.5 50.5t86.5 64.5t70.5 74t45.5 80q-26 0 -56.5 0.5t-62.5 3.5q-46 5 -85.5 15.5t-69 30.5t-46.5 50.5t-17 75.5q0 76 26.5 142.5t65.5 116t83.5 78t81.5 28.5q36 0 69.5 -30
t60 -78t44 -108.5t22.5 -121.5h175v-207h-186zM694 691q-32 -8 -71 -19.5t-66 -25.5q-20 -10 -38 -28.5t-32 -38.5l-25 11q4 19 17 45t32 44q-29 11 -48 30.5t-19 41.5t16 51t40 54.5t52 43.5t52 18q25 0 37.5 -13.5t12.5 -31.5q0 -26 -21 -51q-14 11 -31 17.5t-36 6.5
q-21 0 -41 -12t-20 -35q0 -13 8.5 -23.5t22 -18t30 -11.5t31.5 -4q23 0 56.5 9t74.5 23z" />
    <glyph glyph-name="uni0677" unicode="&#x677;" horiz-adv-x="794" arabic-form="isolated" 
d="M602 256q-8 19 -23.5 43t-34 46t-38.5 37t-37 15q-18 0 -35 -9t-31 -22.5t-23.5 -29t-12.5 -28.5q3 -8 17 -18.5t35 -19.5t48.5 -15t57.5 -6q11 0 34.5 2t42.5 5zM606 183q-8 -19 -20.5 -39t-29 -36t-35.5 -26.5t-41 -10.5q-45 0 -82.5 11t-64.5 31t-42 48.5t-15 64.5
q0 76 22.5 142t57.5 115t77.5 77t81.5 28q44 0 82 -39.5t65.5 -100t43.5 -131.5t16 -134q0 -62 -11.5 -127.5t-33.5 -127.5t-53.5 -117t-71 -96.5t-87.5 -65.5t-102 -24q-33 0 -77.5 9.5t-97 27t-110.5 42t-118 54.5l16 39q31 -9 55 -16.5t45 -12.5t39.5 -7.5t38.5 -2.5
q62 0 136.5 32.5t144.5 85t127 118t84 131.5q-2 14 -7 31t-9 27h-24zM756 757q-32 -8 -71 -19.5t-66 -25.5q-20 -10 -38 -28.5t-32 -38.5l-25 11q4 19 17 45t32 44q-29 11 -48 30.5t-19 41.5t16 51t40 54.5t52 43.5t52 18q25 0 37.5 -13.5t12.5 -31.5q0 -26 -21 -51
q-14 11 -31 17.5t-36 6.5q-21 0 -41 -12t-20 -35q0 -13 8.5 -23.5t22 -18t30 -11.5t31.5 -4q23 0 56.5 9t74.5 23zM235 654q72 69 90 140q-7 -2 -11.5 -2h-9.5q-32 0 -57 24t-25 68q0 22 8.5 41t22.5 33t32.5 22t38.5 8q21 0 41 -9.5t35.5 -27t25 -40.5t9.5 -50
q0 -35 -9.5 -64.5t-26.5 -56.5q-23 -37 -57.5 -66t-68.5 -48z" />
    <glyph glyph-name="uni0678.init" unicode="&#x678;" horiz-adv-x="456" 
d="M0 0q-12 0 -26 5t-26 14.5t-20 24t-8 32.5v55q0 19 8 33.5t20 24t26 14t26 4.5h268q-6 21 -19 47t-29 51.5t-33 47.5t-29 35l104 164q20 -29 39.5 -67.5t35 -79.5t25 -81.5t9.5 -73.5q0 -31 -6 -64t-15 -66t-20 -63.5t-21 -56.5h-309zM366 707q-32 -8 -71 -19.5
t-66 -25.5q-20 -10 -38 -28.5t-32 -38.5l-25 11q4 19 17 45t32 44q-29 11 -48 30.5t-19 41.5t16 51t40 54.5t52 43.5t52 18q25 0 37.5 -13.5t12.5 -31.5q0 -26 -21 -51q-14 11 -31 17.5t-36 6.5q-21 0 -41 -12t-20 -35q0 -13 8.5 -23.5t22 -18t30 -11.5t31.5 -4q23 0 56.5 9
t74.5 23z" />
    <glyph glyph-name="uni0678.medi" unicode="&#x678;" horiz-adv-x="560" 
d="M383 0q-36 0 -57.5 3t-36.5 15t-25.5 36t-23.5 66h-14l-66 -120h-160q-10 0 -26 4.5t-31 13.5t-26 23t-11 32v58q0 19 11 33t26 23.5t30.5 14.5t25.5 5h194l27 241l155 83l-43 -262q3 -20 13 -32.5t24.5 -19t33 -8.5t38.5 -2h119v-207h-177zM444 668q-32 -8 -71 -19.5
t-66 -25.5q-20 -10 -38 -28.5t-32 -38.5l-25 11q4 19 17 45t32 44q-29 11 -48 30.5t-19 41.5t16 51t40 54.5t52 43.5t52 18q25 0 37.5 -13.5t12.5 -31.5q0 -26 -21 -51q-14 11 -31 17.5t-36 6.5q-21 0 -41 -12t-20 -35q0 -13 8.5 -23.5t22 -18t30 -11.5t31.5 -4q23 0 56.5 9
t74.5 23z" />
    <glyph glyph-name="uni0678.fina" unicode="&#x678;" horiz-adv-x="883" 
d="M883 124q20 -13 43.5 -32.5t46.5 -43.5q13 -14 29 -36.5t27 -46.5l-78 -224q-36 -28 -99.5 -55.5t-139.5 -49.5t-156.5 -35.5t-149.5 -13.5q-95 0 -158 27t-100.5 70.5t-52.5 98.5t-15 110q0 64 13 119t33.5 103.5t45 90.5t48.5 80l36 -14q-35 -81 -52 -147.5t-17 -131.5
q0 -45 20 -81t54 -61t79.5 -38.5t96.5 -13.5q78 0 155.5 8.5t144.5 22t118.5 31.5t77.5 38q-16 18 -48.5 38t-76 37t-95.5 29.5t-107 14.5q19 51 39.5 101t40.5 88h197v-83zM881 359q-32 -8 -71 -19.5t-66 -25.5q-20 -10 -38 -28.5t-32 -38.5l-25 11q4 19 17 45t32 44
q-29 11 -48 30.5t-19 41.5t16 51t40 54.5t52 43.5t52 18q25 0 37.5 -13.5t12.5 -31.5q0 -26 -21 -51q-14 11 -31 17.5t-36 6.5q-21 0 -41 -12t-20 -35q0 -13 8.5 -23.5t22 -18t30 -11.5t31.5 -4q23 0 56.5 9t74.5 23z" />
    <glyph glyph-name="uni0679" unicode="&#x679;" horiz-adv-x="1275" arabic-form="isolated" 
d="M354 0q-86 0 -139.5 21.5t-83.5 53t-40.5 68.5t-10.5 68q0 37 6.5 71t18.5 66.5t29.5 65t39.5 67.5l36 -15q-17 -40 -30 -80.5t-13 -66.5q0 -17 8.5 -36.5t32.5 -36.5t68 -28t116 -11h700q0 21 -11 46.5t-28 50.5t-36.5 47t-36.5 37l104 168q21 -32 40 -70.5t34 -79
t23.5 -81t8.5 -75.5q0 -28 -4 -54t-11.5 -55t-19.5 -63t-27 -78h-774zM756 715q6 4 11 8t5 7q0 6 -4 16.5t-12.5 20t-22.5 16.5t-33 7q-17 0 -49 -22.5t-69 -52.5h174zM507 715q8 5 15 10t15 10l-21 211l45 60h5q1 -15 2.5 -40.5t3.5 -57t4.5 -68t4.5 -73.5q20 15 39.5 30
t38.5 27t36.5 19.5t34.5 7.5q14 0 31.5 -9t32.5 -22.5t25 -30.5t10 -32q0 -13 -6.5 -27.5t-16 -28.5t-20 -27.5t-19.5 -23.5h-284q-14 14 -30 26.5t-30 29.5l3 9h81z" />
    <glyph glyph-name="uni0679.init" unicode="&#x679;" horiz-adv-x="456" arabic-form="initial" 
d="M0 0q-12 0 -26 5t-26 14.5t-20 24t-8 32.5v55q0 19 8 33.5t20 24t26 14t26 4.5h268q-6 21 -19 47t-29 51.5t-33 47.5t-29 35l104 164q20 -29 39.5 -67.5t35 -79.5t25 -81.5t9.5 -73.5q0 -31 -6 -64t-15 -66t-20 -63.5t-21 -56.5h-309zM331 715q6 4 11 8t5 7q0 6 -4 16.5
t-12.5 20t-22.5 16.5t-33 7q-17 0 -49 -22.5t-69 -52.5h174zM82 715q8 5 15 10t15 10l-21 211l45 60h5q1 -15 2.5 -40.5t3.5 -57t4.5 -68t4.5 -73.5q20 15 39.5 30t38.5 27t36.5 19.5t34.5 7.5q14 0 31.5 -9t32.5 -22.5t25 -30.5t10 -32q0 -13 -6.5 -27.5t-16 -28.5
t-20 -27.5t-19.5 -23.5h-284q-14 14 -30 26.5t-30 29.5l3 9h81z" />
    <glyph glyph-name="uni0679.medi" unicode="&#x679;" horiz-adv-x="560" arabic-form="medial" 
d="M383 0q-36 0 -57.5 3t-36.5 15t-25.5 36t-23.5 66h-14l-66 -120h-160q-10 0 -26 4.5t-31 13.5t-26 23t-11 32v58q0 19 11 33t26 23.5t30.5 14.5t25.5 5h194l27 241l155 83l-43 -262q3 -20 13 -32.5t24.5 -19t33 -8.5t38.5 -2h119v-207h-177zM361 665q6 4 11 8t5 7
q0 6 -4 16.5t-12.5 20t-22.5 16.5t-33 7q-17 0 -49 -22.5t-69 -52.5h174zM112 665q8 5 15 10t15 10l-21 211l45 60h5q1 -15 2.5 -40.5t3.5 -57t4.5 -68t4.5 -73.5q20 15 39.5 30t38.5 27t36.5 19.5t34.5 7.5q14 0 31.5 -9t32.5 -22.5t25 -30.5t10 -32q0 -13 -6.5 -27.5
t-16 -28.5t-20 -27.5t-19.5 -23.5h-284q-14 14 -30 26.5t-30 29.5l3 9h81z" />
    <glyph glyph-name="uni0679.fina" unicode="&#x679;" horiz-adv-x="1371" arabic-form="final" 
d="M1255 0q-36 0 -58 3t-37 15t-25.5 36t-23.5 66h-14l-66 -120h-676q-87 0 -140.5 21.5t-83.5 53t-40.5 68.5t-10.5 68q0 74 25.5 138t68.5 132l36 -15q-17 -38 -30 -77.5t-13 -68.5q0 -18 8.5 -37.5t32.5 -36.5t68 -28t115 -11h673l27 242l155 83l-43 -263q3 -20 12.5 -32
t24 -19t33.5 -9t41 -2h57v-207h-116zM756 715q6 4 11 8t5 7q0 6 -4 16.5t-12.5 20t-22.5 16.5t-33 7q-17 0 -49 -22.5t-69 -52.5h174zM507 715q8 5 15 10t15 10l-21 211l45 60h5q1 -15 2.5 -40.5t3.5 -57t4.5 -68t4.5 -73.5q20 15 39.5 30t38.5 27t36.5 19.5t34.5 7.5
q14 0 31.5 -9t32.5 -22.5t25 -30.5t10 -32q0 -13 -6.5 -27.5t-16 -28.5t-20 -27.5t-19.5 -23.5h-284q-14 14 -30 26.5t-30 29.5l3 9h81z" />
    <glyph glyph-name="uni067A" unicode="&#x67a;" horiz-adv-x="1275" arabic-form="isolated" 
d="M354 0q-86 0 -139.5 21.5t-83.5 53t-40.5 68.5t-10.5 68q0 37 6.5 71t18.5 66.5t29.5 65t39.5 67.5l36 -15q-17 -40 -30 -80.5t-13 -66.5q0 -17 8.5 -36.5t32.5 -36.5t68 -28t116 -11h700q0 21 -11 46.5t-28 50.5t-36.5 47t-36.5 37l104 168q21 -32 40 -70.5t34 -79
t23.5 -81t8.5 -75.5q0 -28 -4 -54t-11.5 -55t-19.5 -63t-27 -78h-774zM654 632l-150 89l79 105l-88 52l103 137l150 -92l-79 -104l88 -53z" />
    <glyph glyph-name="uni067A.init" unicode="&#x67a;" horiz-adv-x="456" arabic-form="initial" 
d="M0 0q-12 0 -26 5t-26 14.5t-20 24t-8 32.5v55q0 19 8 33.5t20 24t26 14t26 4.5h268q-6 21 -19 47t-29 51.5t-33 47.5t-29 35l104 164q20 -29 39.5 -67.5t35 -79.5t25 -81.5t9.5 -73.5q0 -31 -6 -64t-15 -66t-20 -63.5t-21 -56.5h-309zM229 632l-150 89l79 105l-88 52
l103 137l150 -92l-79 -104l88 -53z" />
    <glyph glyph-name="uni067A.medi" unicode="&#x67a;" horiz-adv-x="560" arabic-form="medial" 
d="M383 0q-36 0 -57.5 3t-36.5 15t-25.5 36t-23.5 66h-14l-66 -120h-160q-10 0 -26 4.5t-31 13.5t-26 23t-11 32v58q0 19 11 33t26 23.5t30.5 14.5t25.5 5h194l27 241l155 83l-43 -262q3 -20 13 -32.5t24.5 -19t33 -8.5t38.5 -2h119v-207h-177zM259 582l-150 89l79 105
l-88 52l103 137l150 -92l-79 -104l88 -53z" />
    <glyph glyph-name="uni067A.fina" unicode="&#x67a;" horiz-adv-x="1371" arabic-form="final" 
d="M1255 0q-36 0 -58 3t-37 15t-25.5 36t-23.5 66h-14l-66 -120h-676q-87 0 -140.5 21.5t-83.5 53t-40.5 68.5t-10.5 68q0 74 25.5 138t68.5 132l36 -15q-17 -38 -30 -77.5t-13 -68.5q0 -18 8.5 -37.5t32.5 -36.5t68 -28t115 -11h673l27 242l155 83l-43 -263q3 -20 12.5 -32
t24 -19t33.5 -9t41 -2h57v-207h-116zM654 632l-150 89l79 105l-88 52l103 137l150 -92l-79 -104l88 -53z" />
    <glyph glyph-name="uni067B" unicode="&#x67b;" horiz-adv-x="1275" arabic-form="isolated" 
d="M354 0q-86 0 -139.5 21.5t-83.5 53t-40.5 68.5t-10.5 68q0 37 6.5 71t18.5 66.5t29.5 65t39.5 67.5l36 -15q-17 -40 -30 -80.5t-13 -66.5q0 -17 8.5 -36.5t32.5 -36.5t68 -28t116 -11h700q0 21 -11 46.5t-28 50.5t-36.5 47t-36.5 37l104 168q21 -32 40 -70.5t34 -79
t23.5 -81t8.5 -75.5q0 -28 -4 -54t-11.5 -55t-19.5 -63t-27 -78h-774zM654 -480l-150 89l79 105l-88 52l103 137l150 -92l-79 -104l88 -53z" />
    <glyph glyph-name="uni067B.init" unicode="&#x67b;" horiz-adv-x="456" arabic-form="initial" 
d="M0 0q-12 0 -26 5t-26 14.5t-20 24t-8 32.5v55q0 19 8 33.5t20 24t26 14t26 4.5h268q-6 21 -19 47t-29 51.5t-33 47.5t-29 35l104 164q20 -29 39.5 -67.5t35 -79.5t25 -81.5t9.5 -73.5q0 -31 -6 -64t-15 -66t-20 -63.5t-21 -56.5h-309zM229 -480l-150 89l79 105l-88 52
l103 137l150 -92l-79 -104l88 -53z" />
    <glyph glyph-name="uni067B.medi" unicode="&#x67b;" horiz-adv-x="560" arabic-form="medial" 
d="M383 0q-36 0 -57.5 3t-36.5 15t-25.5 36t-23.5 66h-14l-66 -120h-160q-10 0 -26 4.5t-31 13.5t-26 23t-11 32v58q0 19 11 33t26 23.5t30.5 14.5t25.5 5h194l27 241l155 83l-43 -262q3 -20 13 -32.5t24.5 -19t33 -8.5t38.5 -2h119v-207h-177zM259 -480l-150 89l79 105
l-88 52l103 137l150 -92l-79 -104l88 -53z" />
    <glyph glyph-name="uni067B.fina" unicode="&#x67b;" horiz-adv-x="1371" arabic-form="final" 
d="M1255 0q-36 0 -58 3t-37 15t-25.5 36t-23.5 66h-14l-66 -120h-676q-87 0 -140.5 21.5t-83.5 53t-40.5 68.5t-10.5 68q0 74 25.5 138t68.5 132l36 -15q-17 -38 -30 -77.5t-13 -68.5q0 -18 8.5 -37.5t32.5 -36.5t68 -28t115 -11h673l27 242l155 83l-43 -263q3 -20 12.5 -32
t24 -19t33.5 -9t41 -2h57v-207h-116zM654 -480l-150 89l79 105l-88 52l103 137l150 -92l-79 -104l88 -53z" />
    <glyph glyph-name="uni067C.init" unicode="&#x67c;" horiz-adv-x="456" 
d="M271 -64q0 -29 -5.5 -57.5t-16.5 -46.5q-23 -23 -54 -37.5t-70 -14.5q-15 0 -30 6.5t-27 19.5t-20 32t-8 45q0 31 8 65q6 28 18 52h-66q-12 0 -26 5t-26 14.5t-20 24t-8 32.5v55q0 19 8 33.5t20 24t26 14t26 4.5h268q-6 21 -19 47t-29 51.5t-33 47.5t-29 35l104 164
q20 -29 39.5 -67.5t35 -79.5t25 -81.5t9.5 -73.5q0 -31 -6 -64t-15 -66t-20 -63.5t-21 -56.5h-55q3 -5 6 -11q11 -26 11 -53zM136 -136q26 0 47.5 6.5t35.5 21.5q-1 44 -19 68t-52 24q-10 0 -20 -5.5t-18.5 -14.5t-13.5 -21.5t-5 -27.5q0 -26 12.5 -38.5t32.5 -12.5z
M357 652l-121 72l-55 -72l-150 89l103 137l119 -74l57 74l150 -92z" />
    <glyph glyph-name="uni067C.medi" unicode="&#x67c;" horiz-adv-x="560" 
d="M369 -16q0 -29 -5.5 -57.5t-16.5 -46.5q-23 -23 -54 -37.5t-70 -14.5q-15 0 -30 6.5t-27 19.5t-20 32t-8 45q0 31 8 65q0 2 1 4h-147q-10 0 -26 4.5t-31 13.5t-26 23t-11 32v58q0 19 11 33t26 23.5t30.5 14.5t25.5 5h223l27 241l155 83l-43 -262q3 -20 13 -32.5t24.5 -19
t33 -8.5t38.5 -2h90v-207h-148q-26 0 -44 1q1 -8 1 -17zM234 -88q26 0 47.5 6.5t35.5 21.5q-1 44 -19 68t-52 24q-10 0 -20 -5.5t-18.5 -14.5t-13.5 -21.5t-5 -27.5q0 -26 12.5 -38.5t32.5 -12.5zM403 621l-121 72l-55 -72l-150 89l103 137l119 -74l57 74l150 -92z" />
    <glyph glyph-name="uni067C.fina" unicode="&#x67c;" horiz-adv-x="1371" 
d="M738 -64q0 -29 -5.5 -57.5t-16.5 -46.5q-23 -23 -54 -37.5t-70 -14.5q-15 0 -30 6.5t-27 19.5t-20 32t-8 45q0 31 8 65q6 28 18 52h-178q-87 0 -140.5 21.5t-83.5 53t-40.5 68.5t-10.5 68q0 74 25.5 138t68.5 132l36 -15q-17 -38 -30 -77.5t-13 -68.5q0 -18 8.5 -37.5
t32.5 -36.5t68 -28t115 -11h673l27 242l155 83l-43 -263q3 -20 12.5 -32t24 -19t33.5 -9t41 -2h57v-207h-116q-36 0 -58 3t-37 15t-25.5 36t-23.5 66h-14l-66 -120h-310q3 -5 6 -11q11 -26 11 -53zM737 596l-121 72l-55 -72l-150 89l103 137l119 -74l57 74l150 -92z
M603 -136q26 0 47.5 6.5t35.5 21.5q-1 44 -19 68t-52 24q-10 0 -20 -5.5t-18.5 -14.5t-13.5 -21.5t-5 -27.5q0 -26 12.5 -38.5t32.5 -12.5z" />
    <glyph glyph-name="uni067D.init" unicode="&#x67d;" horiz-adv-x="456" 
d="M0 0q-12 0 -26 5t-26 14.5t-20 24t-8 32.5v55q0 19 8 33.5t20 24t26 14t26 4.5h268q-6 21 -19 47t-29 51.5t-33 47.5t-29 35l104 164q20 -29 39.5 -67.5t35 -79.5t25 -81.5t9.5 -73.5q0 -31 -6 -64t-15 -66t-20 -63.5t-21 -56.5h-309zM247 624l-153 93l100 133l153 -95z
M309 833l-121 72l-55 -72l-150 89l103 137l119 -74l57 74l150 -92z" />
    <glyph glyph-name="uni067D.medi" unicode="&#x67d;" horiz-adv-x="560" 
d="M383 0q-36 0 -57.5 3t-36.5 15t-25.5 36t-23.5 66h-14l-66 -120h-160q-10 0 -26 4.5t-31 13.5t-26 23t-11 32v58q0 19 11 33t26 23.5t30.5 14.5t25.5 5h194l27 241l155 83l-43 -262q3 -20 13 -32.5t24.5 -19t33 -8.5t38.5 -2h119v-207h-177zM277 572l-153 93l100 133
l153 -95zM339 781l-121 72l-55 -72l-150 89l103 137l119 -74l57 74l150 -92z" />
    <glyph glyph-name="uni067D.fina" unicode="&#x67d;" horiz-adv-x="1371" 
d="M1255 0q-36 0 -58 3t-37 15t-25.5 36t-23.5 66h-14l-66 -120h-676q-87 0 -140.5 21.5t-83.5 53t-40.5 68.5t-10.5 68q0 74 25.5 138t68.5 132l36 -15q-17 -38 -30 -77.5t-13 -68.5q0 -18 8.5 -37.5t32.5 -36.5t68 -28t115 -11h673l27 242l155 83l-43 -263q3 -20 12.5 -32
t24 -19t33.5 -9t41 -2h57v-207h-116zM672 454l-153 93l100 133l153 -95zM734 663l-121 72l-55 -72l-150 89l103 137l119 -74l57 74l150 -92z" />
    <glyph glyph-name="uni067E" unicode="&#x67e;" horiz-adv-x="1275" arabic-form="isolated" 
d="M354 0q-86 0 -139.5 21.5t-83.5 53t-40.5 68.5t-10.5 68q0 37 6.5 71t18.5 66.5t29.5 65t39.5 67.5l36 -15q-17 -40 -30 -80.5t-13 -66.5q0 -17 8.5 -36.5t32.5 -36.5t68 -28t116 -11h700q0 21 -11 46.5t-28 50.5t-36.5 47t-36.5 37l104 168q21 -32 40 -70.5t34 -79
t23.5 -81t8.5 -75.5q0 -28 -4 -54t-11.5 -55t-19.5 -63t-27 -78h-774zM672 -525l-153 93l100 133l153 -95zM734 -316l-121 72l-55 -72l-150 89l103 137l119 -74l57 74l150 -92z" />
    <glyph glyph-name="uni067E.init" unicode="&#x67e;" horiz-adv-x="456" arabic-form="initial" 
d="M0 0q-12 0 -26 5t-26 14.5t-20 24t-8 32.5v55q0 19 8 33.5t20 24t26 14t26 4.5h268q-6 21 -19 47t-29 51.5t-33 47.5t-29 35l104 164q20 -29 39.5 -67.5t35 -79.5t25 -81.5t9.5 -73.5q0 -31 -6 -64t-15 -66t-20 -63.5t-21 -56.5h-309zM247 -525l-153 93l100 133l153 -95z
M309 -316l-121 72l-55 -72l-150 89l103 137l119 -74l57 74l150 -92z" />
    <glyph glyph-name="uni067E.medi" unicode="&#x67e;" horiz-adv-x="560" arabic-form="medial" 
d="M383 0q-36 0 -57.5 3t-36.5 15t-25.5 36t-23.5 66h-14l-66 -120h-160q-10 0 -26 4.5t-31 13.5t-26 23t-11 32v58q0 19 11 33t26 23.5t30.5 14.5t25.5 5h194l27 241l155 83l-43 -262q3 -20 13 -32.5t24.5 -19t33 -8.5t38.5 -2h119v-207h-177zM279 -525l-153 93l100 133
l153 -95zM341 -316l-121 72l-55 -72l-150 89l103 137l119 -74l57 74l150 -92z" />
    <glyph glyph-name="uni067E.fina" unicode="&#x67e;" horiz-adv-x="1371" arabic-form="final" 
d="M1255 0q-36 0 -58 3t-37 15t-25.5 36t-23.5 66h-14l-66 -120h-676q-87 0 -140.5 21.5t-83.5 53t-40.5 68.5t-10.5 68q0 74 25.5 138t68.5 132l36 -15q-17 -38 -30 -77.5t-13 -68.5q0 -18 8.5 -37.5t32.5 -36.5t68 -28t115 -11h673l27 242l155 83l-43 -263q3 -20 12.5 -32
t24 -19t33.5 -9t41 -2h57v-207h-116zM672 -525l-153 93l100 133l153 -95zM734 -316l-121 72l-55 -72l-150 89l103 137l119 -74l57 74l150 -92z" />
    <glyph glyph-name="uni067F" unicode="&#x67f;" horiz-adv-x="1275" arabic-form="isolated" 
d="M354 0q-86 0 -139.5 21.5t-83.5 53t-40.5 68.5t-10.5 68q0 37 6.5 71t18.5 66.5t29.5 65t39.5 67.5l36 -15q-17 -40 -30 -80.5t-13 -66.5q0 -17 8.5 -36.5t32.5 -36.5t68 -28t116 -11h700q0 21 -11 46.5t-28 50.5t-36.5 47t-36.5 37l104 168q21 -32 40 -70.5t34 -79
t23.5 -81t8.5 -75.5q0 -28 -4 -54t-11.5 -55t-19.5 -63t-27 -78h-774zM542 783l96 -59l60 80l-96 56zM737 596l-121 72l-55 -72l-150 89l85 113l-94 55l103 137l120 -74l56 74l150 -92l-85 -111l94 -57z" />
    <glyph glyph-name="uni067F.init" unicode="&#x67f;" horiz-adv-x="456" arabic-form="initial" 
d="M0 0q-12 0 -26 5t-26 14.5t-20 24t-8 32.5v55q0 19 8 33.5t20 24t26 14t26 4.5h268q-6 21 -19 47t-29 51.5t-33 47.5t-29 35l104 164q20 -29 39.5 -67.5t35 -79.5t25 -81.5t9.5 -73.5q0 -31 -6 -64t-15 -66t-20 -63.5t-21 -56.5h-309zM117 839l96 -59l60 80l-96 56z
M312 652l-121 72l-55 -72l-150 89l85 113l-94 55l103 137l120 -74l56 74l150 -92l-85 -111l94 -57z" />
    <glyph glyph-name="uni067F.medi" unicode="&#x67f;" horiz-adv-x="560" arabic-form="medial" 
d="M383 0q-36 0 -57.5 3t-36.5 15t-25.5 36t-23.5 66h-14l-66 -120h-160q-10 0 -26 4.5t-31 13.5t-26 23t-11 32v58q0 19 11 33t26 23.5t30.5 14.5t25.5 5h194l27 241l155 83l-43 -262q3 -20 13 -32.5t24.5 -19t33 -8.5t38.5 -2h119v-207h-177zM147 808l96 -59l60 80l-96 56
zM342 621l-121 72l-55 -72l-150 89l85 113l-94 55l103 137l120 -74l56 74l150 -92l-85 -111l94 -57z" />
    <glyph glyph-name="uni067F.fina" unicode="&#x67f;" horiz-adv-x="1371" arabic-form="final" 
d="M1255 0q-36 0 -58 3t-37 15t-25.5 36t-23.5 66h-14l-66 -120h-676q-87 0 -140.5 21.5t-83.5 53t-40.5 68.5t-10.5 68q0 74 25.5 138t68.5 132l36 -15q-17 -38 -30 -77.5t-13 -68.5q0 -18 8.5 -37.5t32.5 -36.5t68 -28t115 -11h673l27 242l155 83l-43 -263q3 -20 12.5 -32
t24 -19t33.5 -9t41 -2h57v-207h-116zM542 783l96 -59l60 80l-96 56zM737 596l-121 72l-55 -72l-150 89l85 113l-94 55l103 137l120 -74l56 74l150 -92l-85 -111l94 -57z" />
    <glyph glyph-name="uni0680" unicode="&#x680;" horiz-adv-x="1275" arabic-form="isolated" 
d="M354 0q-86 0 -139.5 21.5t-83.5 53t-40.5 68.5t-10.5 68q0 37 6.5 71t18.5 66.5t29.5 65t39.5 67.5l36 -15q-17 -40 -30 -80.5t-13 -66.5q0 -17 8.5 -36.5t32.5 -36.5t68 -28t116 -11h700q0 21 -11 46.5t-28 50.5t-36.5 47t-36.5 37l104 168q21 -32 40 -70.5t34 -79
t23.5 -81t8.5 -75.5q0 -28 -4 -54t-11.5 -55t-19.5 -63t-27 -78h-774zM542 -330l96 -59l60 80l-96 56zM737 -517l-121 72l-55 -72l-150 89l85 113l-94 55l103 137l120 -74l56 74l150 -92l-85 -111l94 -57z" />
    <glyph glyph-name="uni0680.init" unicode="&#x680;" horiz-adv-x="456" arabic-form="initial" 
d="M0 0q-12 0 -26 5t-26 14.5t-20 24t-8 32.5v55q0 19 8 33.5t20 24t26 14t26 4.5h268q-6 21 -19 47t-29 51.5t-33 47.5t-29 35l104 164q20 -29 39.5 -67.5t35 -79.5t25 -81.5t9.5 -73.5q0 -31 -6 -64t-15 -66t-20 -63.5t-21 -56.5h-309zM117 -330l96 -59l60 80l-96 56z
M312 -517l-121 72l-55 -72l-150 89l85 113l-94 55l103 137l120 -74l56 74l150 -92l-85 -111l94 -57z" />
    <glyph glyph-name="uni0680.medi" unicode="&#x680;" horiz-adv-x="560" arabic-form="medial" 
d="M383 0q-36 0 -57.5 3t-36.5 15t-25.5 36t-23.5 66h-14l-66 -120h-160q-10 0 -26 4.5t-31 13.5t-26 23t-11 32v58q0 19 11 33t26 23.5t30.5 14.5t25.5 5h194l27 241l155 83l-43 -262q3 -20 13 -32.5t24.5 -19t33 -8.5t38.5 -2h119v-207h-177zM147 -309l96 -59l60 80
l-96 56zM342 -496l-121 72l-55 -72l-150 89l85 113l-94 55l103 137l120 -74l56 74l150 -92l-85 -111l94 -57z" />
    <glyph glyph-name="uni0680.fina" unicode="&#x680;" horiz-adv-x="1371" arabic-form="final" 
d="M1255 0q-36 0 -58 3t-37 15t-25.5 36t-23.5 66h-14l-66 -120h-676q-87 0 -140.5 21.5t-83.5 53t-40.5 68.5t-10.5 68q0 74 25.5 138t68.5 132l36 -15q-17 -38 -30 -77.5t-13 -68.5q0 -18 8.5 -37.5t32.5 -36.5t68 -28t115 -11h673l27 242l155 83l-43 -263q3 -20 12.5 -32
t24 -19t33.5 -9t41 -2h57v-207h-116zM542 -330l96 -59l60 80l-96 56zM737 -517l-121 72l-55 -72l-150 89l85 113l-94 55l103 137l120 -74l56 74l150 -92l-85 -111l94 -57z" />
    <glyph glyph-name="uni0681.init" unicode="&#x681;" horiz-adv-x="1082" 
d="M919 164q-20 0 -44.5 3.5t-48.5 7.5t-46 7.5t-37 3.5q-30 0 -56 -5.5t-49.5 -15t-45 -21.5t-43.5 -25q-33 -20 -72 -41t-87 -38.5t-106.5 -28.5t-131.5 -11h-152q-12 0 -26 5t-26 14.5t-20 24t-8 32.5v55q0 19 8 33.5t20 24t26 14t26 4.5h190q68 0 126.5 10t107 25
t87 31.5t67.5 29.5q-42 14 -82.5 30.5t-78.5 31t-72 24t-63 9.5q-23 0 -41 -8t-32 -19.5t-23.5 -23.5t-13.5 -19l-36 19q19 55 39.5 101t44.5 79t52 51t62 18q48 0 118 -25.5t148 -63.5q42 -20 89.5 -43.5t98.5 -43.5t103.5 -33.5t105.5 -13.5zM561 792q-32 -8 -71 -19.5
t-66 -25.5q-20 -10 -38 -28.5t-32 -38.5l-25 11q4 19 17 45t32 44q-29 11 -48 30.5t-19 41.5t16 51t40 54.5t52 43.5t52 18q25 0 37.5 -13.5t12.5 -31.5q0 -26 -21 -51q-14 11 -31 17.5t-36 6.5q-21 0 -41 -12t-20 -35q0 -13 8.5 -23.5t22 -18t30 -11.5t31.5 -4q23 0 56.5 9
t74.5 23z" />
    <glyph glyph-name="uni0681.medi" unicode="&#x681;" horiz-adv-x="1102" 
d="M802 0q-72 0 -112.5 9.5t-60 30.5t-24 55t-4.5 83v29q-57 -60 -110 -100t-106.5 -64t-110.5 -33.5t-123 -9.5h-151q-6 0 -18.5 5t-25 14.5t-22 24t-9.5 32.5v55q0 19 9.5 33.5t22 24t25 14t18.5 4.5h231q70 0 127.5 15.5t103 36.5t79.5 43t57 35l-44 11q-25 6 -61 16
t-75.5 19t-78.5 15.5t-70 6.5q-21 0 -36.5 -8.5t-26.5 -21t-19 -26.5t-14 -24l-36 20q19 64 38 113.5t41.5 83t49.5 51t62 17.5q45 0 104 -12.5t127 -30.5q94 -25 206.5 -47.5t249.5 -22.5l-71 -210q-33 0 -69.5 3.5t-65.5 8.5q-51 0 -82.5 -11.5t-59.5 -28.5q6 -30 37 -41
t90 -11h308v-207h-300zM561 792q-32 -8 -71 -19.5t-66 -25.5q-20 -10 -38 -28.5t-32 -38.5l-25 11q4 19 17 45t32 44q-29 11 -48 30.5t-19 41.5t16 51t40 54.5t52 43.5t52 18q25 0 37.5 -13.5t12.5 -31.5q0 -26 -21 -51q-14 11 -31 17.5t-36 6.5q-21 0 -41 -12t-20 -35
q0 -13 8.5 -23.5t22 -18t30 -11.5t31.5 -4q23 0 56.5 9t74.5 23z" />
    <glyph glyph-name="uni0681.fina" unicode="&#x681;" horiz-adv-x="962" 
d="M751 0q-59 0 -98 5t-62 24t-33 56t-10 101q0 20 2.5 43t6.5 45q-79 -29 -144.5 -79t-113 -113.5t-73.5 -137t-26 -149.5q0 -59 33.5 -101t92 -71.5t138.5 -47.5t173 -27.5t196 -13t207 -3.5l9 -38q-37 -14 -81 -30.5t-91 -32.5t-94 -31t-90 -26.5t-78.5 -18.5t-59.5 -7
q-97 0 -165.5 18.5t-115.5 50t-75 73t-43 87t-19.5 92t-4.5 88.5q0 99 19.5 177t48 137t60 99.5t55.5 65.5q10 10 26 24.5t34.5 29t38 28t36.5 22.5q-23 2 -53.5 4t-62 4t-61.5 3.5t-52 1.5q-35 0 -63.5 -8.5t-42.5 -27.5l-35 19q21 60 43.5 102.5t47.5 69.5t54 39.5
t65 12.5q22 0 49.5 -2t59.5 -6q66 -7 182.5 -14.5t291.5 -7.5l-76 -207q-20 -2 -43 -5t-46 -6.5t-44.5 -8t-38.5 -8.5q-3 -12 -5 -22t-2 -16q0 -18 15 -28t40 -14.5t56 -5.5t63 -1h170v-207h-211zM573 792q-32 -8 -71 -19.5t-66 -25.5q-20 -10 -38 -28.5t-32 -38.5l-25 11
q4 19 17 45t32 44q-29 11 -48 30.5t-19 41.5t16 51t40 54.5t52 43.5t52 18q25 0 37.5 -13.5t12.5 -31.5q0 -26 -21 -51q-14 11 -31 17.5t-36 6.5q-21 0 -41 -12t-20 -35q0 -13 8.5 -23.5t22 -18t30 -11.5t31.5 -4q23 0 56.5 9t74.5 23z" />
    <glyph glyph-name="uni0682.init" unicode="&#x682;" horiz-adv-x="1082" 
d="M919 164q-20 0 -44.5 3.5t-48.5 7.5t-46 7.5t-37 3.5q-30 0 -56 -5.5t-49.5 -15t-45 -21.5t-43.5 -25q-33 -20 -72 -41t-87 -38.5t-106.5 -28.5t-131.5 -11h-152q-12 0 -26 5t-26 14.5t-20 24t-8 32.5v55q0 19 8 33.5t20 24t26 14t26 4.5h190q68 0 126.5 10t107 25
t87 31.5t67.5 29.5q-42 14 -82.5 30.5t-78.5 31t-72 24t-63 9.5q-23 0 -41 -8t-32 -19.5t-23.5 -23.5t-13.5 -19l-36 19q19 55 39.5 101t44.5 79t52 51t62 18q48 0 118 -25.5t148 -63.5q42 -20 89.5 -43.5t98.5 -43.5t103.5 -33.5t105.5 -13.5zM474 682l-150 89l79 105
l-88 52l103 137l150 -92l-79 -104l88 -53z" />
    <glyph glyph-name="uni0682.medi" unicode="&#x682;" horiz-adv-x="1102" 
d="M802 0q-72 0 -112.5 9.5t-60 30.5t-24 55t-4.5 83v29q-57 -60 -110 -100t-106.5 -64t-110.5 -33.5t-123 -9.5h-151q-6 0 -18.5 5t-25 14.5t-22 24t-9.5 32.5v55q0 19 9.5 33.5t22 24t25 14t18.5 4.5h231q70 0 127.5 15.5t103 36.5t79.5 43t57 35l-44 11q-25 6 -61 16
t-75.5 19t-78.5 15.5t-70 6.5q-21 0 -36.5 -8.5t-26.5 -21t-19 -26.5t-14 -24l-36 20q19 64 38 113.5t41.5 83t49.5 51t62 17.5q45 0 104 -12.5t127 -30.5q94 -25 206.5 -47.5t249.5 -22.5l-71 -210q-33 0 -69.5 3.5t-65.5 8.5q-51 0 -82.5 -11.5t-59.5 -28.5q6 -30 37 -41
t90 -11h308v-207h-300zM474 682l-150 89l79 105l-88 52l103 137l150 -92l-79 -104l88 -53z" />
    <glyph glyph-name="uni0682.fina" unicode="&#x682;" horiz-adv-x="962" 
d="M751 0q-59 0 -98 5t-62 24t-33 56t-10 101q0 20 2.5 43t6.5 45q-79 -29 -144.5 -79t-113 -113.5t-73.5 -137t-26 -149.5q0 -59 33.5 -101t92 -71.5t138.5 -47.5t173 -27.5t196 -13t207 -3.5l9 -38q-37 -14 -81 -30.5t-91 -32.5t-94 -31t-90 -26.5t-78.5 -18.5t-59.5 -7
q-97 0 -165.5 18.5t-115.5 50t-75 73t-43 87t-19.5 92t-4.5 88.5q0 99 19.5 177t48 137t60 99.5t55.5 65.5q10 10 26 24.5t34.5 29t38 28t36.5 22.5q-23 2 -53.5 4t-62 4t-61.5 3.5t-52 1.5q-35 0 -63.5 -8.5t-42.5 -27.5l-35 19q21 60 43.5 102.5t47.5 69.5t54 39.5
t65 12.5q22 0 49.5 -2t59.5 -6q66 -7 182.5 -14.5t291.5 -7.5l-76 -207q-20 -2 -43 -5t-46 -6.5t-44.5 -8t-38.5 -8.5q-3 -12 -5 -22t-2 -16q0 -18 15 -28t40 -14.5t56 -5.5t63 -1h170v-207h-211zM486 682l-150 89l79 105l-88 52l103 137l150 -92l-79 -104l88 -53z" />
    <glyph glyph-name="uni0683" unicode="&#x683;" horiz-adv-x="1052" arabic-form="isolated" 
d="M1047 -507q-55 -21 -125 -46.5t-139.5 -47.5t-130 -37t-96.5 -15q-97 0 -165.5 18.5t-115.5 50t-75 73t-43 87t-19.5 92t-4.5 88.5q0 99 19.5 176t47 134.5t59 97t55.5 64.5q10 10 27 25t37 31.5t42.5 31.5t42.5 25q-23 1 -55.5 3t-66.5 3.5t-65.5 3t-53.5 1.5
q-35 0 -63.5 -12.5t-43.5 -34.5l-35 19q21 60 42 104t45.5 73t54.5 43.5t69 14.5q22 0 49.5 -2t59.5 -6q66 -7 182.5 -14.5t291.5 -7.5l-76 -207q-20 -2 -43 -4t-52 -7t-64.5 -14t-80.5 -23q-80 -26 -145.5 -75.5t-112.5 -114t-73 -139t-26 -150.5q0 -59 33 -101t91.5 -71.5
t138 -47.5t172.5 -27.5t195.5 -13t206.5 -3.5zM713 -241l-121 72l-55 -72l-150 89l103 137l119 -74l57 74l150 -92z" />
    <glyph glyph-name="uni0683.init" unicode="&#x683;" horiz-adv-x="1082" arabic-form="initial" 
d="M919 164q-20 0 -44.5 3.5t-48.5 7.5t-46 7.5t-37 3.5q-30 0 -56 -5.5t-49.5 -15t-45 -21.5t-43.5 -25q-33 -20 -72 -41t-87 -38.5t-106.5 -28.5t-131.5 -11h-152q-12 0 -26 5t-26 14.5t-20 24t-8 32.5v55q0 19 8 33.5t20 24t26 14t26 4.5h190q68 0 126.5 10t107 25
t87 31.5t67.5 29.5q-42 14 -82.5 30.5t-78.5 31t-72 24t-63 9.5q-23 0 -41 -8t-32 -19.5t-23.5 -23.5t-13.5 -19l-36 19q19 55 39.5 101t44.5 79t52 51t62 18q48 0 118 -25.5t148 -63.5q42 -20 89.5 -43.5t98.5 -43.5t103.5 -33.5t105.5 -13.5zM557 -317l-121 72l-55 -72
l-150 89l103 137l119 -74l57 74l150 -92z" />
    <glyph glyph-name="uni0683.medi" unicode="&#x683;" horiz-adv-x="1102" arabic-form="medial" 
d="M802 0q-72 0 -112.5 9.5t-60 30.5t-24 55t-4.5 83v29q-57 -60 -110 -100t-106.5 -64t-110.5 -33.5t-123 -9.5h-151q-6 0 -18.5 5t-25 14.5t-22 24t-9.5 32.5v55q0 19 9.5 33.5t22 24t25 14t18.5 4.5h231q70 0 127.5 15.5t103 36.5t79.5 43t57 35l-44 11q-25 6 -61 16
t-75.5 19t-78.5 15.5t-70 6.5q-21 0 -36.5 -8.5t-26.5 -21t-19 -26.5t-14 -24l-36 20q19 64 38 113.5t41.5 83t49.5 51t62 17.5q45 0 104 -12.5t127 -30.5q94 -25 206.5 -47.5t249.5 -22.5l-71 -210q-33 0 -69.5 3.5t-65.5 8.5q-51 0 -82.5 -11.5t-59.5 -28.5q6 -30 37 -41
t90 -11h308v-207h-300zM557 -317l-121 72l-55 -72l-150 89l103 137l119 -74l57 74l150 -92z" />
    <glyph glyph-name="uni0683.fina" unicode="&#x683;" horiz-adv-x="962" arabic-form="final" 
d="M751 0q-59 0 -98 5t-62 24t-33 56t-10 101q0 20 2.5 43t6.5 45q-79 -29 -144.5 -79t-113 -113.5t-73.5 -137t-26 -149.5q0 -59 33.5 -101t92 -71.5t138.5 -47.5t173 -27.5t196 -13t207 -3.5l9 -38q-37 -14 -81 -30.5t-91 -32.5t-94 -31t-90 -26.5t-78.5 -18.5t-59.5 -7
q-97 0 -165.5 18.5t-115.5 50t-75 73t-43 87t-19.5 92t-4.5 88.5q0 99 19.5 177t48 137t60 99.5t55.5 65.5q10 10 26 24.5t34.5 29t38 28t36.5 22.5q-23 2 -53.5 4t-62 4t-61.5 3.5t-52 1.5q-35 0 -63.5 -8.5t-42.5 -27.5l-35 19q21 60 43.5 102.5t47.5 69.5t54 39.5
t65 12.5q22 0 49.5 -2t59.5 -6q66 -7 182.5 -14.5t291.5 -7.5l-76 -207q-20 -2 -43 -5t-46 -6.5t-44.5 -8t-38.5 -8.5q-3 -12 -5 -22t-2 -16q0 -18 15 -28t40 -14.5t56 -5.5t63 -1h170v-207h-211zM667 -301l-121 72l-55 -72l-150 89l103 137l119 -74l57 74l150 -92z" />
    <glyph glyph-name="uni0684" unicode="&#x684;" horiz-adv-x="1052" arabic-form="isolated" 
d="M1047 -507q-55 -21 -125 -46.5t-139.5 -47.5t-130 -37t-96.5 -15q-97 0 -165.5 18.5t-115.5 50t-75 73t-43 87t-19.5 92t-4.5 88.5q0 99 19.5 176t47 134.5t59 97t55.5 64.5q10 10 27 25t37 31.5t42.5 31.5t42.5 25q-23 1 -55.5 3t-66.5 3.5t-65.5 3t-53.5 1.5
q-35 0 -63.5 -12.5t-43.5 -34.5l-35 19q21 60 42 104t45.5 73t54.5 43.5t69 14.5q22 0 49.5 -2t59.5 -6q66 -7 182.5 -14.5t291.5 -7.5l-76 -207q-20 -2 -43 -4t-52 -7t-64.5 -14t-80.5 -23q-80 -26 -145.5 -75.5t-112.5 -114t-73 -139t-26 -150.5q0 -59 33 -101t91.5 -71.5
t138 -47.5t172.5 -27.5t195.5 -13t206.5 -3.5zM618 -315l-150 89l79 105l-88 52l103 137l150 -92l-79 -104l88 -53z" />
    <glyph glyph-name="uni0684.init" unicode="&#x684;" horiz-adv-x="1082" arabic-form="initial" 
d="M919 164q-20 0 -44.5 3.5t-48.5 7.5t-46 7.5t-37 3.5q-30 0 -56 -5.5t-49.5 -15t-45 -21.5t-43.5 -25q-33 -20 -72 -41t-87 -38.5t-106.5 -28.5t-131.5 -11h-152q-12 0 -26 5t-26 14.5t-20 24t-8 32.5v55q0 19 8 33.5t20 24t26 14t26 4.5h190q68 0 126.5 10t107 25
t87 31.5t67.5 29.5q-42 14 -82.5 30.5t-78.5 31t-72 24t-63 9.5q-23 0 -41 -8t-32 -19.5t-23.5 -23.5t-13.5 -19l-36 19q19 55 39.5 101t44.5 79t52 51t62 18q48 0 118 -25.5t148 -63.5q42 -20 89.5 -43.5t98.5 -43.5t103.5 -33.5t105.5 -13.5zM474 -479l-150 89l79 105
l-88 52l103 137l150 -92l-79 -104l88 -53z" />
    <glyph glyph-name="uni0684.medi" unicode="&#x684;" horiz-adv-x="1102" arabic-form="medial" 
d="M802 0q-72 0 -112.5 9.5t-60 30.5t-24 55t-4.5 83v29q-57 -60 -110 -100t-106.5 -64t-110.5 -33.5t-123 -9.5h-151q-6 0 -18.5 5t-25 14.5t-22 24t-9.5 32.5v55q0 19 9.5 33.5t22 24t25 14t18.5 4.5h231q70 0 127.5 15.5t103 36.5t79.5 43t57 35l-44 11q-25 6 -61 16
t-75.5 19t-78.5 15.5t-70 6.5q-21 0 -36.5 -8.5t-26.5 -21t-19 -26.5t-14 -24l-36 20q19 64 38 113.5t41.5 83t49.5 51t62 17.5q45 0 104 -12.5t127 -30.5q94 -25 206.5 -47.5t249.5 -22.5l-71 -210q-33 0 -69.5 3.5t-65.5 8.5q-51 0 -82.5 -11.5t-59.5 -28.5q6 -30 37 -41
t90 -11h308v-207h-300zM474 -479l-150 89l79 105l-88 52l103 137l150 -92l-79 -104l88 -53z" />
    <glyph glyph-name="uni0684.fina" unicode="&#x684;" horiz-adv-x="962" arabic-form="final" 
d="M751 0q-59 0 -98 5t-62 24t-33 56t-10 101q0 20 2.5 43t6.5 45q-79 -29 -144.5 -79t-113 -113.5t-73.5 -137t-26 -149.5q0 -59 33.5 -101t92 -71.5t138.5 -47.5t173 -27.5t196 -13t207 -3.5l9 -38q-37 -14 -81 -30.5t-91 -32.5t-94 -31t-90 -26.5t-78.5 -18.5t-59.5 -7
q-97 0 -165.5 18.5t-115.5 50t-75 73t-43 87t-19.5 92t-4.5 88.5q0 99 19.5 177t48 137t60 99.5t55.5 65.5q10 10 26 24.5t34.5 29t38 28t36.5 22.5q-23 2 -53.5 4t-62 4t-61.5 3.5t-52 1.5q-35 0 -63.5 -8.5t-42.5 -27.5l-35 19q21 60 43.5 102.5t47.5 69.5t54 39.5
t65 12.5q22 0 49.5 -2t59.5 -6q66 -7 182.5 -14.5t291.5 -7.5l-76 -207q-20 -2 -43 -5t-46 -6.5t-44.5 -8t-38.5 -8.5q-3 -12 -5 -22t-2 -16q0 -18 15 -28t40 -14.5t56 -5.5t63 -1h170v-207h-211zM522 -364l-127 74l63 85l-71 43l87 115l127 -77l-65 -84l72 -43z" />
    <glyph glyph-name="uni0685.init" unicode="&#x685;" horiz-adv-x="1082" 
d="M919 164q-20 0 -44.5 3.5t-48.5 7.5t-46 7.5t-37 3.5q-30 0 -56 -5.5t-49.5 -15t-45 -21.5t-43.5 -25q-33 -20 -72 -41t-87 -38.5t-106.5 -28.5t-131.5 -11h-152q-12 0 -26 5t-26 14.5t-20 24t-8 32.5v55q0 19 8 33.5t20 24t26 14t26 4.5h190q68 0 126.5 10t107 25
t87 31.5t67.5 29.5q-42 14 -82.5 30.5t-78.5 31t-72 24t-63 9.5q-23 0 -41 -8t-32 -19.5t-23.5 -23.5t-13.5 -19l-36 19q19 55 39.5 101t44.5 79t52 51t62 18q48 0 118 -25.5t148 -63.5q42 -20 89.5 -43.5t98.5 -43.5t103.5 -33.5t105.5 -13.5zM448 930l-153 93l100 133
l153 -95zM560 720l-121 72l-55 -72l-150 89l103 137l119 -74l57 74l150 -92z" />
    <glyph glyph-name="uni0685.medi" unicode="&#x685;" horiz-adv-x="1102" 
d="M802 0q-72 0 -112.5 9.5t-60 30.5t-24 55t-4.5 83v29q-57 -60 -110 -100t-106.5 -64t-110.5 -33.5t-123 -9.5h-151q-6 0 -18.5 5t-25 14.5t-22 24t-9.5 32.5v55q0 19 9.5 33.5t22 24t25 14t18.5 4.5h231q70 0 127.5 15.5t103 36.5t79.5 43t57 35l-44 11q-25 6 -61 16
t-75.5 19t-78.5 15.5t-70 6.5q-21 0 -36.5 -8.5t-26.5 -21t-19 -26.5t-14 -24l-36 20q19 64 38 113.5t41.5 83t49.5 51t62 17.5q45 0 104 -12.5t127 -30.5q94 -25 206.5 -47.5t249.5 -22.5l-71 -210q-33 0 -69.5 3.5t-65.5 8.5q-51 0 -82.5 -11.5t-59.5 -28.5q6 -30 37 -41
t90 -11h308v-207h-300zM448 934l-153 93l100 133l153 -95zM560 724l-121 72l-55 -72l-150 89l103 137l119 -74l57 74l150 -92z" />
    <glyph glyph-name="uni0685.fina" unicode="&#x685;" horiz-adv-x="962" 
d="M751 0q-59 0 -98 5t-62 24t-33 56t-10 101q0 20 2.5 43t6.5 45q-79 -29 -144.5 -79t-113 -113.5t-73.5 -137t-26 -149.5q0 -59 33.5 -101t92 -71.5t138.5 -47.5t173 -27.5t196 -13t207 -3.5l9 -38q-37 -14 -81 -30.5t-91 -32.5t-94 -31t-90 -26.5t-78.5 -18.5t-59.5 -7
q-97 0 -165.5 18.5t-115.5 50t-75 73t-43 87t-19.5 92t-4.5 88.5q0 99 19.5 177t48 137t60 99.5t55.5 65.5q10 10 26 24.5t34.5 29t38 28t36.5 22.5q-23 2 -53.5 4t-62 4t-61.5 3.5t-52 1.5q-35 0 -63.5 -8.5t-42.5 -27.5l-35 19q21 60 43.5 102.5t47.5 69.5t54 39.5
t65 12.5q22 0 49.5 -2t59.5 -6q66 -7 182.5 -14.5t291.5 -7.5l-76 -207q-20 -2 -43 -5t-46 -6.5t-44.5 -8t-38.5 -8.5q-3 -12 -5 -22t-2 -16q0 -18 15 -28t40 -14.5t56 -5.5t63 -1h170v-207h-211zM460 931l-153 93l100 133l153 -95zM572 721l-121 72l-55 -72l-150 89
l103 137l119 -74l57 74l150 -92z" />
    <glyph glyph-name="uni0686" unicode="&#x686;" horiz-adv-x="1052" arabic-form="isolated" 
d="M1047 -507q-55 -21 -125 -46.5t-139.5 -47.5t-130 -37t-96.5 -15q-97 0 -165.5 18.5t-115.5 50t-75 73t-43 87t-19.5 92t-4.5 88.5q0 99 19.5 176t47 134.5t59 97t55.5 64.5q10 10 27 25t37 31.5t42.5 31.5t42.5 25q-23 1 -55.5 3t-66.5 3.5t-65.5 3t-53.5 1.5
q-35 0 -63.5 -12.5t-43.5 -34.5l-35 19q21 60 42 104t45.5 73t54.5 43.5t69 14.5q22 0 49.5 -2t59.5 -6q66 -7 182.5 -14.5t291.5 -7.5l-76 -207q-20 -2 -43 -4t-52 -7t-64.5 -14t-80.5 -23q-80 -26 -145.5 -75.5t-112.5 -114t-73 -139t-26 -150.5q0 -59 33 -101t91.5 -71.5
t138 -47.5t172.5 -27.5t195.5 -13t206.5 -3.5zM641 -348l-153 93l100 133l153 -95zM703 -139l-121 72l-55 -72l-150 89l103 137l119 -74l57 74l150 -92z" />
    <glyph glyph-name="uni0686.init" unicode="&#x686;" horiz-adv-x="1082" arabic-form="initial" 
d="M919 164q-20 0 -44.5 3.5t-48.5 7.5t-46 7.5t-37 3.5q-30 0 -56 -5.5t-49.5 -15t-45 -21.5t-43.5 -25q-33 -20 -72 -41t-87 -38.5t-106.5 -28.5t-131.5 -11h-152q-12 0 -26 5t-26 14.5t-20 24t-8 32.5v55q0 19 8 33.5t20 24t26 14t26 4.5h190q68 0 126.5 10t107 25
t87 31.5t67.5 29.5q-42 14 -82.5 30.5t-78.5 31t-72 24t-63 9.5q-23 0 -41 -8t-32 -19.5t-23.5 -23.5t-13.5 -19l-36 19q19 55 39.5 101t44.5 79t52 51t62 18q48 0 118 -25.5t148 -63.5q42 -20 89.5 -43.5t98.5 -43.5t103.5 -33.5t105.5 -13.5zM492 -524l-153 93l100 133
l153 -95zM554 -315l-121 72l-55 -72l-150 89l103 137l119 -74l57 74l150 -92z" />
    <glyph glyph-name="uni0686.medi" unicode="&#x686;" horiz-adv-x="1102" arabic-form="medial" 
d="M802 0q-72 0 -112.5 9.5t-60 30.5t-24 55t-4.5 83v29q-57 -60 -110 -100t-106.5 -64t-110.5 -33.5t-123 -9.5h-151q-6 0 -18.5 5t-25 14.5t-22 24t-9.5 32.5v55q0 19 9.5 33.5t22 24t25 14t18.5 4.5h231q70 0 127.5 15.5t103 36.5t79.5 43t57 35l-44 11q-25 6 -61 16
t-75.5 19t-78.5 15.5t-70 6.5q-21 0 -36.5 -8.5t-26.5 -21t-19 -26.5t-14 -24l-36 20q19 64 38 113.5t41.5 83t49.5 51t62 17.5q45 0 104 -12.5t127 -30.5q94 -25 206.5 -47.5t249.5 -22.5l-71 -210q-33 0 -69.5 3.5t-65.5 8.5q-51 0 -82.5 -11.5t-59.5 -28.5q6 -30 37 -41
t90 -11h308v-207h-300zM492 -524l-153 93l100 133l153 -95zM554 -315l-121 72l-55 -72l-150 89l103 137l119 -74l57 74l150 -92z" />
    <glyph glyph-name="uni0686.fina" unicode="&#x686;" horiz-adv-x="962" arabic-form="final" 
d="M751 0q-59 0 -98 5t-62 24t-33 56t-10 101q0 20 2.5 43t6.5 45q-79 -29 -144.5 -79t-113 -113.5t-73.5 -137t-26 -149.5q0 -59 33.5 -101t92 -71.5t138.5 -47.5t173 -27.5t196 -13t207 -3.5l9 -38q-37 -14 -81 -30.5t-91 -32.5t-94 -31t-90 -26.5t-78.5 -18.5t-59.5 -7
q-97 0 -165.5 18.5t-115.5 50t-75 73t-43 87t-19.5 92t-4.5 88.5q0 99 19.5 177t48 137t60 99.5t55.5 65.5q10 10 26 24.5t34.5 29t38 28t36.5 22.5q-23 2 -53.5 4t-62 4t-61.5 3.5t-52 1.5q-35 0 -63.5 -8.5t-42.5 -27.5l-35 19q21 60 43.5 102.5t47.5 69.5t54 39.5
t65 12.5q22 0 49.5 -2t59.5 -6q66 -7 182.5 -14.5t291.5 -7.5l-76 -207q-20 -2 -43 -5t-46 -6.5t-44.5 -8t-38.5 -8.5q-3 -12 -5 -22t-2 -16q0 -18 15 -28t40 -14.5t56 -5.5t63 -1h170v-207h-211zM622 -283l-85 -111l-128 78l84 112zM587 -217l-98 58l-45 -58l-126 75
l86 116l98 -60l45 60l128 -78z" />
    <glyph glyph-name="uni0687" unicode="&#x687;" horiz-adv-x="1052" arabic-form="isolated" 
d="M1047 -507q-55 -21 -125 -46.5t-139.5 -47.5t-130 -37t-96.5 -15q-97 0 -165.5 18.5t-115.5 50t-75 73t-43 87t-19.5 92t-4.5 88.5q0 99 19.5 176t47 134.5t59 97t55.5 64.5q10 10 27 25t37 31.5t42.5 31.5t42.5 25q-23 1 -55.5 3t-66.5 3.5t-65.5 3t-53.5 1.5
q-35 0 -63.5 -12.5t-43.5 -34.5l-35 19q21 60 42 104t45.5 73t54.5 43.5t69 14.5q22 0 49.5 -2t59.5 -6q66 -7 182.5 -14.5t291.5 -7.5l-76 -207q-20 -2 -43 -4t-52 -7t-64.5 -14t-80.5 -23q-80 -26 -145.5 -75.5t-112.5 -114t-73 -139t-26 -150.5q0 -59 33 -101t91.5 -71.5
t138 -47.5t172.5 -27.5t195.5 -13t206.5 -3.5zM522 -145l96 -59l60 80l-96 56zM717 -332l-121 72l-55 -72l-150 89l85 113l-94 55l103 137l120 -74l56 74l150 -92l-85 -111l94 -57z" />
    <glyph glyph-name="uni0687.init" unicode="&#x687;" horiz-adv-x="1082" arabic-form="initial" 
d="M919 164q-20 0 -44.5 3.5t-48.5 7.5t-46 7.5t-37 3.5q-30 0 -56 -5.5t-49.5 -15t-45 -21.5t-43.5 -25q-33 -20 -72 -41t-87 -38.5t-106.5 -28.5t-131.5 -11h-152q-12 0 -26 5t-26 14.5t-20 24t-8 32.5v55q0 19 8 33.5t20 24t26 14t26 4.5h190q68 0 126.5 10t107 25
t87 31.5t67.5 29.5q-42 14 -82.5 30.5t-78.5 31t-72 24t-63 9.5q-23 0 -41 -8t-32 -19.5t-23.5 -23.5t-13.5 -19l-36 19q19 55 39.5 101t44.5 79t52 51t62 18q48 0 118 -25.5t148 -63.5q42 -20 89.5 -43.5t98.5 -43.5t103.5 -33.5t105.5 -13.5zM362 -310l96 -59l60 80
l-96 56zM557 -497l-121 72l-55 -72l-150 89l85 113l-94 55l103 137l120 -74l56 74l150 -92l-85 -111l94 -57z" />
    <glyph glyph-name="uni0687.medi" unicode="&#x687;" horiz-adv-x="1102" arabic-form="medial" 
d="M802 0q-72 0 -112.5 9.5t-60 30.5t-24 55t-4.5 83v29q-57 -60 -110 -100t-106.5 -64t-110.5 -33.5t-123 -9.5h-151q-6 0 -18.5 5t-25 14.5t-22 24t-9.5 32.5v55q0 19 9.5 33.5t22 24t25 14t18.5 4.5h231q70 0 127.5 15.5t103 36.5t79.5 43t57 35l-44 11q-25 6 -61 16
t-75.5 19t-78.5 15.5t-70 6.5q-21 0 -36.5 -8.5t-26.5 -21t-19 -26.5t-14 -24l-36 20q19 64 38 113.5t41.5 83t49.5 51t62 17.5q45 0 104 -12.5t127 -30.5q94 -25 206.5 -47.5t249.5 -22.5l-71 -210q-33 0 -69.5 3.5t-65.5 8.5q-51 0 -82.5 -11.5t-59.5 -28.5q6 -30 37 -41
t90 -11h308v-207h-300zM362 -310l96 -59l60 80l-96 56zM557 -497l-121 72l-55 -72l-150 89l85 113l-94 55l103 137l120 -74l56 74l150 -92l-85 -111l94 -57z" />
    <glyph glyph-name="uni0687.fina" unicode="&#x687;" horiz-adv-x="962" arabic-form="final" 
d="M751 0q-59 0 -98 5t-62 24t-33 56t-10 101q0 20 2.5 43t6.5 45q-79 -29 -144.5 -79t-113 -113.5t-73.5 -137t-26 -149.5q0 -59 33.5 -101t92 -71.5t138.5 -47.5t173 -27.5t196 -13t207 -3.5l9 -38q-37 -14 -81 -30.5t-91 -32.5t-94 -31t-90 -26.5t-78.5 -18.5t-59.5 -7
q-97 0 -165.5 18.5t-115.5 50t-75 73t-43 87t-19.5 92t-4.5 88.5q0 99 19.5 177t48 137t60 99.5t55.5 65.5q10 10 26 24.5t34.5 29t38 28t36.5 22.5q-23 2 -53.5 4t-62 4t-61.5 3.5t-52 1.5q-35 0 -63.5 -8.5t-42.5 -27.5l-35 19q21 60 43.5 102.5t47.5 69.5t54 39.5
t65 12.5q22 0 49.5 -2t59.5 -6q66 -7 182.5 -14.5t291.5 -7.5l-76 -207q-20 -2 -43 -5t-46 -6.5t-44.5 -8t-38.5 -8.5q-3 -12 -5 -22t-2 -16q0 -18 15 -28t40 -14.5t56 -5.5t63 -1h170v-207h-211zM451 -216l75 -47l48 62l-76 45zM695 -259l-86 -113l-98 59l-45 -59l-127 76
l69 91l-77 45l88 115l96 -59l44 59l129 -76l-71 -90z" />
    <glyph glyph-name="uni0688" unicode="&#x688;" horiz-adv-x="739" arabic-form="isolated" 
d="M328 637q6 32 20 41.5t25 9.5q14 0 25 -5.5t18 -10.5q58 -43 102.5 -97.5t74.5 -113t45.5 -116t15.5 -106.5q0 -35 -6 -67.5t-15.5 -61.5t-20 -53.5t-19.5 -42.5q-16 -8 -53.5 -17.5t-85.5 -17.5t-102.5 -13.5t-103.5 -5.5q-47 0 -79 4t-51.5 16.5t-28.5 36t-9 62.5
q0 15 3 36t8.5 44.5t12 48t13.5 46.5l34 -11q0 -45 27.5 -60.5t92.5 -15.5q41 0 94 5t100 12t79 14t32 12q0 26 -14 55t-37.5 57t-53 54t-61 46t-62 31.5t-54.5 11.5zM494 920q6 4 11 8t5 7q0 6 -4 16.5t-12.5 20t-22.5 16.5t-33 7q-17 0 -49 -22.5t-69 -52.5h174zM245 920
q8 5 15 10t15 10l-21 211l45 60h5q1 -15 2.5 -40.5t3.5 -57t4.5 -68t4.5 -73.5q20 15 39.5 30t38.5 27t36.5 19.5t34.5 7.5q14 0 31.5 -9t32.5 -22.5t25 -30.5t10 -32q0 -13 -6.5 -27.5t-16 -28.5t-20 -27.5t-19.5 -23.5h-284q-14 14 -30 26.5t-30 29.5l3 9h81z" />
    <glyph glyph-name="uni0688.fina" unicode="&#x688;" horiz-adv-x="906" arabic-form="final" 
d="M768 0q-26 0 -49.5 11.5t-38.5 31.5t-24 52.5t-17 75.5h-25q-11 -45 -27 -88.5t-32 -74.5q-16 -7 -46.5 -16t-71.5 -17t-89 -13.5t-98 -5.5q-40 0 -71.5 4t-53.5 14t-33.5 27t-11.5 43q0 30 5 64.5t13 69t17 67.5t17 59l41 -11v-65q0 -23 22 -39.5t78 -16.5
q41 0 87.5 3.5t89.5 9.5t78.5 13.5t53.5 15.5q6 12 13.5 32.5t9.5 46.5l-66 332l103 146q20 -128 39.5 -248t39.5 -248q4 -25 19.5 -46.5t49.5 -21.5h116v-207h-138zM724 946q6 4 11 8t5 7q0 6 -4 16.5t-12.5 20t-22.5 16.5t-33 7q-17 0 -49 -22.5t-69 -52.5h174zM475 946
q8 5 15 10t15 10l-21 211l45 60h5q1 -15 2.5 -40.5t3.5 -57t4.5 -68t4.5 -73.5q20 15 39.5 30t38.5 27t36.5 19.5t34.5 7.5q14 0 31.5 -9t32.5 -22.5t25 -30.5t10 -32q0 -13 -6.5 -27.5t-16 -28.5t-20 -27.5t-19.5 -23.5h-284q-14 14 -30 26.5t-30 29.5l3 9h81z" />
    <glyph glyph-name="uni0689.fina" unicode="&#x689;" horiz-adv-x="906" 
d="M454 -104q0 -29 -5.5 -57.5t-16.5 -46.5q-23 -23 -54 -37.5t-70 -14.5q-15 0 -30 6.5t-27 19.5t-20 32t-8 45q0 31 8 65q6 25 16 48q-38 0 -69 4t-53 14t-33.5 27t-11.5 43q0 30 5 64.5t13 69t17 67.5t17 59l41 -11v-65q0 -23 22 -39.5t78 -16.5q41 0 87.5 3.5t89.5 9.5
t78.5 13.5t53.5 15.5q6 12 13.5 32.5t9.5 46.5l-66 332l103 146q20 -128 39.5 -248t39.5 -248q4 -25 19.5 -46.5t49.5 -21.5h116v-207h-138q-26 0 -49.5 11.5t-38.5 31.5t-24 52.5t-17 75.5h-25q-11 -45 -27 -88.5t-32 -74.5q-16 -7 -46.5 -16t-71.5 -17q-4 0 -7 -1
q7 -12 13 -25q11 -26 11 -53zM319 -176q26 0 47.5 6.5t35.5 21.5q-1 44 -19 68t-52 24q-10 0 -20 -5.5t-18.5 -14.5t-13.5 -21.5t-5 -27.5q0 -26 12.5 -38.5t32.5 -12.5z" />
    <glyph glyph-name="uni068A.fina" unicode="&#x68a;" horiz-adv-x="906" 
d="M768 0q-26 0 -49.5 11.5t-38.5 31.5t-24 52.5t-17 75.5h-25q-11 -45 -27 -88.5t-32 -74.5q-16 -7 -46.5 -16t-71.5 -17t-89 -13.5t-98 -5.5q-40 0 -71.5 4t-53.5 14t-33.5 27t-11.5 43q0 30 5 64.5t13 69t17 67.5t17 59l41 -11v-65q0 -23 22 -39.5t78 -16.5
q41 0 87.5 3.5t89.5 9.5t78.5 13.5t53.5 15.5q6 12 13.5 32.5t9.5 46.5l-66 332l103 146q20 -128 39.5 -248t39.5 -248q4 -25 19.5 -46.5t49.5 -21.5h116v-207h-138zM397 -357l-165 101l107 143l165 -103z" />
    <glyph glyph-name="uni068B.fina" unicode="&#x68b;" horiz-adv-x="906" 
d="M768 0q-26 0 -49.5 11.5t-38.5 31.5t-24 52.5t-17 75.5h-25q-11 -45 -27 -88.5t-32 -74.5q-16 -7 -46.5 -16t-71.5 -17t-89 -13.5t-98 -5.5q-40 0 -71.5 4t-53.5 14t-33.5 27t-11.5 43q0 30 5 64.5t13 69t17 67.5t17 59l41 -11v-65q0 -23 22 -39.5t78 -16.5
q41 0 87.5 3.5t89.5 9.5t78.5 13.5t53.5 15.5q6 12 13.5 32.5t9.5 46.5l-66 332l103 146q20 -128 39.5 -248t39.5 -248q4 -25 19.5 -46.5t49.5 -21.5h116v-207h-138zM397 -357l-165 101l107 143l165 -103zM724 946q6 4 11 8t5 7q0 6 -4 16.5t-12.5 20t-22.5 16.5t-33 7
q-17 0 -49 -22.5t-69 -52.5h174zM475 946q8 5 15 10t15 10l-21 211l45 60h5q1 -15 2.5 -40.5t3.5 -57t4.5 -68t4.5 -73.5q20 15 39.5 30t38.5 27t36.5 19.5t34.5 7.5q14 0 31.5 -9t32.5 -22.5t25 -30.5t10 -32q0 -13 -6.5 -27.5t-16 -28.5t-20 -27.5t-19.5 -23.5h-284
q-14 14 -30 26.5t-30 29.5l3 9h81z" />
    <glyph glyph-name="uni068C" unicode="&#x68c;" horiz-adv-x="739" arabic-form="isolated" 
d="M328 637q6 32 20 41.5t25 9.5q14 0 25 -5.5t18 -10.5q58 -43 102.5 -97.5t74.5 -113t45.5 -116t15.5 -106.5q0 -35 -6 -67.5t-15.5 -61.5t-20 -53.5t-19.5 -42.5q-16 -8 -53.5 -17.5t-85.5 -17.5t-102.5 -13.5t-103.5 -5.5q-47 0 -79 4t-51.5 16.5t-28.5 36t-9 62.5
q0 15 3 36t8.5 44.5t12 48t13.5 46.5l34 -11q0 -45 27.5 -60.5t92.5 -15.5q41 0 94 5t100 12t79 14t32 12q0 26 -14 55t-37.5 57t-53 54t-61 46t-62 31.5t-54.5 11.5zM462 846l-121 72l-55 -72l-150 89l103 137l119 -74l57 74l150 -92z" />
    <glyph glyph-name="uni068C.fina" unicode="&#x68c;" horiz-adv-x="906" arabic-form="final" 
d="M768 0q-26 0 -49.5 11.5t-38.5 31.5t-24 52.5t-17 75.5h-25q-11 -45 -27 -88.5t-32 -74.5q-16 -7 -46.5 -16t-71.5 -17t-89 -13.5t-98 -5.5q-40 0 -71.5 4t-53.5 14t-33.5 27t-11.5 43q0 30 5 64.5t13 69t17 67.5t17 59l41 -11v-65q0 -23 22 -39.5t78 -16.5
q41 0 87.5 3.5t89.5 9.5t78.5 13.5t53.5 15.5q6 12 13.5 32.5t9.5 46.5l-66 332l103 146q20 -128 39.5 -248t39.5 -248q4 -25 19.5 -46.5t49.5 -21.5h116v-207h-138zM657 876l-121 72l-55 -72l-150 89l103 137l119 -74l57 74l150 -92z" />
    <glyph glyph-name="uni068D" unicode="&#x68d;" horiz-adv-x="739" arabic-form="isolated" 
d="M328 637q6 32 20 41.5t25 9.5q14 0 25 -5.5t18 -10.5q58 -43 102.5 -97.5t74.5 -113t45.5 -116t15.5 -106.5q0 -35 -6 -67.5t-15.5 -61.5t-20 -53.5t-19.5 -42.5q-16 -8 -53.5 -17.5t-85.5 -17.5t-102.5 -13.5t-103.5 -5.5q-47 0 -79 4t-51.5 16.5t-28.5 36t-9 62.5
q0 15 3 36t8.5 44.5t12 48t13.5 46.5l34 -11q0 -45 27.5 -60.5t92.5 -15.5q41 0 94 5t100 12t79 14t32 12q0 26 -14 55t-37.5 57t-53 54t-61 46t-62 31.5t-54.5 11.5zM462 -340l-121 72l-55 -72l-150 89l103 137l119 -74l57 74l150 -92z" />
    <glyph glyph-name="uni068D.fina" unicode="&#x68d;" horiz-adv-x="906" arabic-form="final" 
d="M768 0q-26 0 -49.5 11.5t-38.5 31.5t-24 52.5t-17 75.5h-25q-11 -45 -27 -88.5t-32 -74.5q-16 -7 -46.5 -16t-71.5 -17t-89 -13.5t-98 -5.5q-40 0 -71.5 4t-53.5 14t-33.5 27t-11.5 43q0 30 5 64.5t13 69t17 67.5t17 59l41 -11v-65q0 -23 22 -39.5t78 -16.5
q41 0 87.5 3.5t89.5 9.5t78.5 13.5t53.5 15.5q6 12 13.5 32.5t9.5 46.5l-66 332l103 146q20 -128 39.5 -248t39.5 -248q4 -25 19.5 -46.5t49.5 -21.5h116v-207h-138zM467 -340l-121 72l-55 -72l-150 89l103 137l119 -74l57 74l150 -92z" />
    <glyph glyph-name="uni068E" unicode="&#x68e;" horiz-adv-x="739" arabic-form="isolated" 
d="M328 637q6 32 20 41.5t25 9.5q14 0 25 -5.5t18 -10.5q58 -43 102.5 -97.5t74.5 -113t45.5 -116t15.5 -106.5q0 -35 -6 -67.5t-15.5 -61.5t-20 -53.5t-19.5 -42.5q-16 -8 -53.5 -17.5t-85.5 -17.5t-102.5 -13.5t-103.5 -5.5q-47 0 -79 4t-51.5 16.5t-28.5 36t-9 62.5
q0 15 3 36t8.5 44.5t12 48t13.5 46.5l34 -11q0 -45 27.5 -60.5t92.5 -15.5q41 0 94 5t100 12t79 14t32 12q0 26 -14 55t-37.5 57t-53 54t-61 46t-62 31.5t-54.5 11.5zM353 1038l-153 93l100 133l153 -95zM465 828l-121 72l-55 -72l-150 89l103 137l119 -74l57 74l150 -92z
" />
    <glyph glyph-name="uni068E.fina" unicode="&#x68e;" horiz-adv-x="906" arabic-form="final" 
d="M768 0q-26 0 -49.5 11.5t-38.5 31.5t-24 52.5t-17 75.5h-25q-11 -45 -27 -88.5t-32 -74.5q-16 -7 -46.5 -16t-71.5 -17t-89 -13.5t-98 -5.5q-40 0 -71.5 4t-53.5 14t-33.5 27t-11.5 43q0 30 5 64.5t13 69t17 67.5t17 59l41 -11v-65q0 -23 22 -39.5t78 -16.5
q41 0 87.5 3.5t89.5 9.5t78.5 13.5t53.5 15.5q6 12 13.5 32.5t9.5 46.5l-66 332l103 146q20 -128 39.5 -248t39.5 -248q4 -25 19.5 -46.5t49.5 -21.5h116v-207h-138zM548 1068l-153 93l100 133l153 -95zM660 858l-121 72l-55 -72l-150 89l103 137l119 -74l57 74l150 -92z
" />
    <glyph glyph-name="uni068F.fina" unicode="&#x68f;" horiz-adv-x="906" 
d="M768 0q-26 0 -49.5 11.5t-38.5 31.5t-24 52.5t-17 75.5h-25q-11 -45 -27 -88.5t-32 -74.5q-16 -7 -46.5 -16t-71.5 -17t-89 -13.5t-98 -5.5q-40 0 -71.5 4t-53.5 14t-33.5 27t-11.5 43q0 30 5 64.5t13 69t17 67.5t17 59l41 -11v-65q0 -23 22 -39.5t78 -16.5
q41 0 87.5 3.5t89.5 9.5t78.5 13.5t53.5 15.5q6 12 13.5 32.5t9.5 46.5l-66 332l103 146q20 -128 39.5 -248t39.5 -248q4 -25 19.5 -46.5t49.5 -21.5h116v-207h-138zM592 854l-153 93l100 133l153 -95zM654 1063l-121 72l-55 -72l-150 89l103 137l119 -74l57 74l150 -92z
" />
    <glyph glyph-name="uni0690.fina" unicode="&#x690;" horiz-adv-x="906" 
d="M768 0q-26 0 -49.5 11.5t-38.5 31.5t-24 52.5t-17 75.5h-25q-11 -45 -27 -88.5t-32 -74.5q-16 -7 -46.5 -16t-71.5 -17t-89 -13.5t-98 -5.5q-40 0 -71.5 4t-53.5 14t-33.5 27t-11.5 43q0 30 5 64.5t13 69t17 67.5t17 59l41 -11v-65q0 -23 22 -39.5t78 -16.5
q41 0 87.5 3.5t89.5 9.5t78.5 13.5t53.5 15.5q6 12 13.5 32.5t9.5 46.5l-66 332l103 146q20 -128 39.5 -248t39.5 -248q4 -25 19.5 -46.5t49.5 -21.5h116v-207h-138zM462 1063l96 -59l60 80l-96 56zM657 876l-121 72l-55 -72l-150 89l85 113l-94 55l103 137l120 -74l56 74
l150 -92l-85 -111l94 -57z" />
    <glyph glyph-name="uni06EE.fina" unicode="&#x6ee;" horiz-adv-x="906" 
d="M768 0q-26 0 -49.5 11.5t-38.5 31.5t-24 52.5t-17 75.5h-25q-11 -45 -27 -88.5t-32 -74.5q-16 -7 -46.5 -16t-71.5 -17t-89 -13.5t-98 -5.5q-40 0 -71.5 4t-53.5 14t-33.5 27t-11.5 43q0 30 5 64.5t13 69t17 67.5t17 59l41 -11v-65q0 -23 22 -39.5t78 -16.5
q41 0 87.5 3.5t89.5 9.5t78.5 13.5t53.5 15.5q6 12 13.5 32.5t9.5 46.5l-66 332l103 146q20 -128 39.5 -248t39.5 -248q4 -25 19.5 -46.5t49.5 -21.5h116v-207h-138zM672 814l-119 190l-8 -2l-96 -183q-5 4 -13.5 10.5t-17.5 13.5t-17 13t-13 10l128 255l76 9l155 -254z" />
    <glyph glyph-name="uni0691" unicode="&#x691;" horiz-adv-x="717" arabic-form="isolated" 
d="M481 514q31 -30 64 -70.5t60 -91t44.5 -110t17.5 -128.5q0 -50 -12.5 -105t-35 -108.5t-53.5 -102.5t-68.5 -86t-80.5 -59t-89 -22q-30 0 -70 9t-87 26t-100 40.5t-109 53.5l16 40q55 -18 94.5 -28t80.5 -10q37 0 83.5 19.5t94 51t93 70t81 76t57 71t21.5 53.5
q0 13 -19.5 40.5t-49.5 60t-65.5 64t-66.5 52.5zM597 764q6 4 11 8t5 7q0 6 -4 16.5t-12.5 20t-22.5 16.5t-33 7q-17 0 -49 -22.5t-69 -52.5h174zM348 764q8 5 15 10t15 10l-21 211l45 60h5q1 -15 2.5 -40.5t3.5 -57t4.5 -68t4.5 -73.5q20 15 39.5 30t38.5 27t36.5 19.5
t34.5 7.5q14 0 31.5 -9t32.5 -22.5t25 -30.5t10 -32q0 -13 -6.5 -27.5t-16 -28.5t-20 -27.5t-19.5 -23.5h-284q-14 14 -30 26.5t-30 29.5l3 9h81z" />
    <glyph glyph-name="uni0691.fina" unicode="&#x691;" horiz-adv-x="848" arabic-form="final" 
d="M782 0q-23 0 -48.5 9t-47.5 35l-16 -9q0 -40 -12 -91t-34.5 -104.5t-53 -105t-68 -91.5t-80 -64.5t-88.5 -24.5q-30 0 -71 9.5t-89.5 27t-102.5 42t-110 54.5l17 40q28 -9 51 -16t42.5 -11.5t37.5 -6.5t37 -2q41 0 90 18.5t98.5 48.5t95.5 66.5t81.5 73t57 68t21.5 50.5
q0 4 -5.5 16.5t-14.5 28.5t-20.5 34t-23.5 33t-25 33t-26 37t-24.5 36.5t-20.5 30.5l104 197q11 -18 24.5 -40.5t20.5 -33.5q28 -43 51.5 -76.5t47.5 -57t51.5 -35.5t63.5 -12h55v-207h-66zM659 763q6 4 11 8t5 7q0 6 -4 16.5t-12.5 20t-22.5 16.5t-33 7q-17 0 -49 -22.5
t-69 -52.5h174zM410 763q8 5 15 10t15 10l-21 211l45 60h5q1 -15 2.5 -40.5t3.5 -57t4.5 -68t4.5 -73.5q20 15 39.5 30t38.5 27t36.5 19.5t34.5 7.5q14 0 31.5 -9t32.5 -22.5t25 -30.5t10 -32q0 -13 -6.5 -27.5t-16 -28.5t-20 -27.5t-19.5 -23.5h-284q-14 14 -30 26.5
t-30 29.5l3 9h81z" />
    <glyph glyph-name="uni0692.fina" unicode="&#x692;" horiz-adv-x="848" 
d="M782 0q-23 0 -48.5 9t-47.5 35l-16 -9q0 -40 -12 -91t-34.5 -104.5t-53 -105t-68 -91.5t-80 -64.5t-88.5 -24.5q-30 0 -71 9.5t-89.5 27t-102.5 42t-110 54.5l17 40q28 -9 51 -16t42.5 -11.5t37.5 -6.5t37 -2q41 0 90 18.5t98.5 48.5t95.5 66.5t81.5 73t57 68t21.5 50.5
q0 4 -5.5 16.5t-14.5 28.5t-20.5 34t-23.5 33t-25 33t-26 37t-24.5 36.5t-20.5 30.5l104 197q11 -18 24.5 -40.5t20.5 -33.5q28 -43 51.5 -76.5t47.5 -57t51.5 -35.5t63.5 -12h55v-207h-66zM535 609l-76 -9l-159 259l78 67l121 -193h11l93 180l63 -50z" />
    <glyph glyph-name="uni0693.fina" unicode="&#x693;" horiz-adv-x="848" 
d="M782 0q-23 0 -48.5 9t-47.5 35l-16 -9q0 -40 -12 -91t-35 -104q-16 -39 -36 -76q12 -3 27 -11q19 -12 35 -31t27 -44.5t11 -52.5q0 -29 -5.5 -57.5t-16.5 -46.5q-23 -23 -54 -37.5t-70 -14.5q-15 0 -30 6.5t-27 19.5t-20 32t-8 45q0 15 1 30q-17 -13 -35 -23
q-42 -25 -88 -25q-30 0 -71 9.5t-89.5 27t-102.5 42t-110 54.5l17 40q28 -9 51 -16t42.5 -11.5t37.5 -6.5t37 -2q41 0 90 18.5t98.5 48.5t95.5 66.5t81.5 73t57 68t21.5 50.5q0 4 -5.5 16.5t-14.5 28.5t-20.5 34t-23.5 33t-25 33t-26 37t-24.5 36.5t-20.5 30.5l104 197
q11 -18 24.5 -40.5t20.5 -33.5q28 -43 51.5 -76.5t47.5 -57t51.5 -35.5t63.5 -12h55v-207h-66zM552 -447q26 0 47.5 6.5t35.5 21.5q-1 44 -19 68t-52 24q-10 0 -20 -5.5t-18.5 -14.5t-13.5 -21.5t-5 -27.5q0 -26 12.5 -38.5t32.5 -12.5z" />
    <glyph glyph-name="uni0694.fina" unicode="&#x694;" horiz-adv-x="848" 
d="M782 0q-23 0 -48.5 9t-47.5 35l-16 -9q0 -40 -12 -91t-34.5 -104.5t-53 -105t-68 -91.5t-80 -64.5t-88.5 -24.5q-30 0 -71 9.5t-89.5 27t-102.5 42t-110 54.5l17 40q28 -9 51 -16t42.5 -11.5t37.5 -6.5t37 -2q41 0 90 18.5t98.5 48.5t95.5 66.5t81.5 73t57 68t21.5 50.5
q0 4 -5.5 16.5t-14.5 28.5t-20.5 34t-23.5 33t-25 33t-26 37t-24.5 36.5t-20.5 30.5l104 197q11 -18 24.5 -40.5t20.5 -33.5q28 -43 51.5 -76.5t47.5 -57t51.5 -35.5t63.5 -12h55v-207h-66zM337 -748l-165 101l107 143l165 -103z" />
    <glyph glyph-name="uni0695.fina" unicode="&#x695;" horiz-adv-x="848" 
d="M782 0q-23 0 -48.5 9t-47.5 35l-16 -9q0 -40 -12 -91t-34.5 -104.5t-53 -105t-68 -91.5t-80 -64.5t-88.5 -24.5q-30 0 -71 9.5t-89.5 27t-102.5 42t-110 54.5l17 40q28 -9 51 -16t42.5 -11.5t37.5 -6.5t37 -2q41 0 90 18.5t98.5 48.5t95.5 66.5t81.5 73t57 68t21.5 50.5
q0 4 -5.5 16.5t-14.5 28.5t-20.5 34t-23.5 33t-25 33t-26 37t-24.5 36.5t-20.5 30.5l104 197q11 -18 24.5 -40.5t20.5 -33.5q28 -43 51.5 -76.5t47.5 -57t51.5 -35.5t63.5 -12h55v-207h-66zM337 -811l-76 -9l-159 259l78 67l121 -193h11l93 180l63 -50z" />
    <glyph glyph-name="uni0696.fina" unicode="&#x696;" horiz-adv-x="848" 
d="M782 0q-23 0 -48.5 9t-47.5 35l-16 -9q0 -40 -12 -91t-34.5 -104.5t-53 -105t-68 -91.5t-80 -64.5t-88.5 -24.5q-30 0 -71 9.5t-89.5 27t-102.5 42t-110 54.5l17 40q28 -9 51 -16t42.5 -11.5t37.5 -6.5t37 -2q41 0 90 18.5t98.5 48.5t95.5 66.5t81.5 73t57 68t21.5 50.5
q0 4 -5.5 16.5t-14.5 28.5t-20.5 34t-23.5 33t-25 33t-26 37t-24.5 36.5t-20.5 30.5l104 197q11 -18 24.5 -40.5t20.5 -33.5q28 -43 51.5 -76.5t47.5 -57t51.5 -35.5t63.5 -12h55v-207h-66zM644 -594l-165 101l107 143l165 -103zM287 -101l-165 101l107 143l165 -103z" />
    <glyph glyph-name="uni0697.fina" unicode="&#x697;" horiz-adv-x="848" 
d="M782 0q-23 0 -48.5 9t-47.5 35l-16 -9q0 -40 -12 -91t-34.5 -104.5t-53 -105t-68 -91.5t-80 -64.5t-88.5 -24.5q-30 0 -71 9.5t-89.5 27t-102.5 42t-110 54.5l17 40q28 -9 51 -16t42.5 -11.5t37.5 -6.5t37 -2q41 0 90 18.5t98.5 48.5t95.5 66.5t81.5 73t57 68t21.5 50.5
q0 4 -5.5 16.5t-14.5 28.5t-20.5 34t-23.5 33t-25 33t-26 37t-24.5 36.5t-20.5 30.5l104 197q11 -18 24.5 -40.5t20.5 -33.5q28 -43 51.5 -76.5t47.5 -57t51.5 -35.5t63.5 -12h55v-207h-66zM605 576l-121 72l-55 -72l-150 89l103 137l119 -74l57 74l150 -92z" />
    <glyph glyph-name="uni06EF.fina" unicode="&#x6ef;" horiz-adv-x="848" 
d="M782 0q-23 0 -48.5 9t-47.5 35l-16 -9q0 -40 -12 -91t-34.5 -104.5t-53 -105t-68 -91.5t-80 -64.5t-88.5 -24.5q-30 0 -71 9.5t-89.5 27t-102.5 42t-110 54.5l17 40q28 -9 51 -16t42.5 -11.5t37.5 -6.5t37 -2q41 0 90 18.5t98.5 48.5t95.5 66.5t81.5 73t57 68t21.5 50.5
q0 4 -5.5 16.5t-14.5 28.5t-20.5 34t-23.5 33t-25 33t-26 37t-24.5 36.5t-20.5 30.5l104 197q11 -18 24.5 -40.5t20.5 -33.5q28 -43 51.5 -76.5t47.5 -57t51.5 -35.5t63.5 -12h55v-207h-66zM620 515l-119 190l-8 -2l-96 -183q-5 4 -13.5 10.5t-17.5 13.5t-17 13t-13 10
l128 255l76 9l155 -254z" />
    <glyph glyph-name="uni0698" unicode="&#x698;" horiz-adv-x="717" arabic-form="isolated" 
d="M481 514q31 -30 64 -70.5t60 -91t44.5 -110t17.5 -128.5q0 -50 -12.5 -105t-35 -108.5t-53.5 -102.5t-68.5 -86t-80.5 -59t-89 -22q-30 0 -70 9t-87 26t-100 40.5t-109 53.5l16 40q55 -18 94.5 -28t80.5 -10q37 0 83.5 19.5t94 51t93 70t81 76t57 71t21.5 53.5
q0 13 -19.5 40.5t-49.5 60t-65.5 64t-66.5 52.5zM468 838l-153 93l100 133l153 -95zM580 628l-121 72l-55 -72l-150 89l103 137l119 -74l57 74l150 -92z" />
    <glyph glyph-name="uni0698.fina" unicode="&#x698;" horiz-adv-x="848" arabic-form="final" 
d="M782 0q-23 0 -48.5 9t-47.5 35l-16 -9q0 -40 -12 -91t-34.5 -104.5t-53 -105t-68 -91.5t-80 -64.5t-88.5 -24.5q-30 0 -71 9.5t-89.5 27t-102.5 42t-110 54.5l17 40q28 -9 51 -16t42.5 -11.5t37.5 -6.5t37 -2q41 0 90 18.5t98.5 48.5t95.5 66.5t81.5 73t57 68t21.5 50.5
q0 4 -5.5 16.5t-14.5 28.5t-20.5 34t-23.5 33t-25 33t-26 37t-24.5 36.5t-20.5 30.5l104 197q11 -18 24.5 -40.5t20.5 -33.5q28 -43 51.5 -76.5t47.5 -57t51.5 -35.5t63.5 -12h55v-207h-66zM496 738l-153 93l100 133l153 -95zM608 528l-121 72l-55 -72l-150 89l103 137
l119 -74l57 74l150 -92z" />
    <glyph glyph-name="uni0699.fina" unicode="&#x699;" horiz-adv-x="848" 
d="M782 0q-23 0 -48.5 9t-47.5 35l-16 -9q0 -40 -12 -91t-34.5 -104.5t-53 -105t-68 -91.5t-80 -64.5t-88.5 -24.5q-30 0 -71 9.5t-89.5 27t-102.5 42t-110 54.5l17 40q28 -9 51 -16t42.5 -11.5t37.5 -6.5t37 -2q41 0 90 18.5t98.5 48.5t95.5 66.5t81.5 73t57 68t21.5 50.5
q0 4 -5.5 16.5t-14.5 28.5t-20.5 34t-23.5 33t-25 33t-26 37t-24.5 36.5t-20.5 30.5l104 197q11 -18 24.5 -40.5t20.5 -33.5q28 -43 51.5 -76.5t47.5 -57t51.5 -35.5t63.5 -12h55v-207h-66zM410 763l96 -59l60 80l-96 56zM605 576l-121 72l-55 -72l-150 89l85 113l-94 55
l103 137l120 -74l56 74l150 -92l-85 -111l94 -57z" />
    <glyph glyph-name="uni069A.init" unicode="&#x69a;" horiz-adv-x="1221" 
d="M1070 492q7 -15 18 -44t21.5 -65t18.5 -74t8 -70q0 -45 -10 -91t-31 -84q-24 -42 -42 -65t-41 -23q-15 0 -47 12t-69.5 31.5t-75 44t-65.5 48.5q-25 -23 -67.5 -39t-90 -25.5t-93.5 -13.5t-79 -4q-40 0 -53.5 17t-13.5 40h-9q-20 -22 -58.5 -38t-86.5 -27t-101.5 -16.5
t-102.5 -5.5q-8 0 -21 3t-26.5 10t-23 17t-9.5 25v101q0 9 8 18.5t20 16.5t26 11.5t26 4.5q18 0 42 0.5t47 2.5q40 3 86 9.5t88 17t75 26t48 36.5q29 42 53 84.5t44 97.5l68 -24q-14 -55 -29.5 -100t-32.5 -79q-3 -6 -7 -15t-7 -14q2 -4 11 -7t20 -3q25 0 56 2.5t61 8
t56.5 13.5t42.5 19q18 13 34 37.5t29.5 53.5t24 58t17.5 50l66 -19q-5 -26 -11 -53t-12.5 -52.5t-13.5 -48.5t-14 -41q15 -13 43 -30.5t56.5 -33.5t53 -27.5t32.5 -11.5t13 2.5t5 7.5q0 2 -0.5 7t-1.5 13q-3 23 -16 64t-45 92zM787 614l-165 101l107 143l165 -103zM787 -341
l-165 101l107 143l165 -103z" />
    <glyph glyph-name="uni069A.medi" unicode="&#x69a;" horiz-adv-x="1252" 
d="M1166 0q-15 0 -34.5 5t-38.5 16t-35 27.5t-25 39.5h-13q-11 -32 -19.5 -55t-13.5 -33q-22 -41 -41.5 -54t-39.5 -13q-13 0 -31 17.5t-37.5 44.5t-38.5 59.5t-32 63.5q-26 -27 -69 -45.5t-91.5 -30t-96 -16t-83.5 -4.5q-33 0 -49.5 18t-16.5 44h-8q-23 -21 -62 -37
t-87 -26.5t-101 -15.5t-103 -5q-30 0 -55 16t-25 53v74q0 10 7 21t18 20.5t25.5 16t29.5 6.5h13.5t19.5 0.5t19 0.5h14q46 1 95.5 7.5t93.5 17.5t79.5 27.5t53.5 38.5q27 32 52 79.5t45 102.5l68 -24q-8 -30 -14.5 -53.5t-14 -44.5t-15.5 -40.5t-17 -41.5q-2 -5 -9.5 -17.5
t-7.5 -17.5q0 -2 5 -3t12 -1.5t14.5 -1t11.5 -0.5q24 0 53.5 2t57.5 6.5t53 12t40 18.5q18 13 34.5 39t30 56t24.5 60t18 51l66 -19q-10 -49 -22 -96t-23 -82q7 -17 19 -38t24.5 -40.5t23.5 -32.5t16 -13q8 0 11.5 4.5t6.5 10.5q8 19 19.5 54.5t23.5 77.5t23.5 84.5
t20.5 75.5l67 -15q-8 -58 -18 -108t-21 -92q15 -31 47 -38t80 -7h59v-207h-86zM787 614l-165 101l107 143l165 -103zM787 -340l-165 101l107 143l165 -103z" />
    <glyph glyph-name="uni069A.fina" unicode="&#x69a;" horiz-adv-x="1663" 
d="M1578 0q-17 0 -36.5 5t-38 16t-34.5 28.5t-26 42.5h-12q-6 -23 -13.5 -47t-18.5 -45q-21 -41 -42 -54t-40 -13q-12 0 -30.5 18t-38.5 45.5t-38.5 60t-31.5 61.5q-22 -24 -54 -42.5t-68.5 -32.5t-74.5 -23t-72 -13v-22q0 -23 -5.5 -54t-14.5 -64t-22 -65.5t-28 -60.5
q-36 -26 -85.5 -52t-107.5 -46.5t-123.5 -33t-133.5 -12.5q-87 0 -146 24t-95.5 62.5t-52 87t-15.5 98.5q0 63 8.5 110.5t24 87.5t36.5 77.5t47 81.5l39 -15q-23 -54 -34 -110t-11 -101q0 -38 14.5 -72t43 -60.5t72 -42t100.5 -15.5q50 0 107.5 8.5t112.5 23.5t103 34.5
t78 42.5q0 30 -11.5 71t-32 86t-48 90t-58.5 83l103 168q31 -50 57.5 -98.5t41.5 -95.5q8 -1 26 -1.5t30 -0.5q22 0 51 4.5t58 12t54.5 17t40.5 20.5q18 13 34.5 39t30 56t24.5 60t18 51l66 -19q-9 -49 -21.5 -96t-23.5 -82q7 -17 19 -38t25 -40.5t24 -32.5t15 -13
q11 0 18 15q9 21 20 56.5t23 76.5t23.5 82.5t20.5 76.5l67 -15q-8 -58 -18.5 -108t-20.5 -92q15 -31 48 -38t81 -7h57v-207h-85zM1197 614l-165 101l107 143l165 -103zM1197 -342l-165 101l107 143l165 -103z" />
    <glyph glyph-name="uni069B.init" unicode="&#x69b;" horiz-adv-x="1221" 
d="M1070 492q7 -15 18 -44t21.5 -65t18.5 -74t8 -70q0 -45 -10 -91t-31 -84q-24 -42 -42 -65t-41 -23q-15 0 -47 12t-69.5 31.5t-75 44t-65.5 48.5q-25 -23 -67.5 -39t-90 -25.5t-93.5 -13.5t-79 -4q-40 0 -53.5 17t-13.5 40h-9q-20 -22 -58.5 -38t-86.5 -27t-101.5 -16.5
t-102.5 -5.5q-8 0 -21 3t-26.5 10t-23 17t-9.5 25v101q0 9 8 18.5t20 16.5t26 11.5t26 4.5q18 0 42 0.5t47 2.5q40 3 86 9.5t88 17t75 26t48 36.5q29 42 53 84.5t44 97.5l68 -24q-14 -55 -29.5 -100t-32.5 -79q-3 -6 -7 -15t-7 -14q2 -4 11 -7t20 -3q25 0 56 2.5t61 8
t56.5 13.5t42.5 19q18 13 34 37.5t29.5 53.5t24 58t17.5 50l66 -19q-5 -26 -11 -53t-12.5 -52.5t-13.5 -48.5t-14 -41q15 -13 43 -30.5t56.5 -33.5t53 -27.5t32.5 -11.5t13 2.5t5 7.5q0 2 -0.5 7t-1.5 13q-3 23 -16 64t-45 92zM792 -525l-153 93l100 133l153 -95zM854 -316
l-121 72l-55 -72l-150 89l103 137l119 -74l57 74l150 -92z" />
    <glyph glyph-name="uni069B.medi" unicode="&#x69b;" horiz-adv-x="1252" 
d="M1166 0q-15 0 -34.5 5t-38.5 16t-35 27.5t-25 39.5h-13q-11 -32 -19.5 -55t-13.5 -33q-22 -41 -41.5 -54t-39.5 -13q-13 0 -31 17.5t-37.5 44.5t-38.5 59.5t-32 63.5q-26 -27 -69 -45.5t-91.5 -30t-96 -16t-83.5 -4.5q-33 0 -49.5 18t-16.5 44h-8q-23 -21 -62 -37
t-87 -26.5t-101 -15.5t-103 -5q-30 0 -55 16t-25 53v74q0 10 7 21t18 20.5t25.5 16t29.5 6.5h13.5t19.5 0.5t19 0.5h14q46 1 95.5 7.5t93.5 17.5t79.5 27.5t53.5 38.5q27 32 52 79.5t45 102.5l68 -24q-8 -30 -14.5 -53.5t-14 -44.5t-15.5 -40.5t-17 -41.5q-2 -5 -9.5 -17.5
t-7.5 -17.5q0 -2 5 -3t12 -1.5t14.5 -1t11.5 -0.5q24 0 53.5 2t57.5 6.5t53 12t40 18.5q18 13 34.5 39t30 56t24.5 60t18 51l66 -19q-10 -49 -22 -96t-23 -82q7 -17 19 -38t24.5 -40.5t23.5 -32.5t16 -13q8 0 11.5 4.5t6.5 10.5q8 19 19.5 54.5t23.5 77.5t23.5 84.5
t20.5 75.5l67 -15q-8 -58 -18 -108t-21 -92q15 -31 47 -38t80 -7h59v-207h-86zM792 -535l-153 93l100 133l153 -95zM854 -326l-121 72l-55 -72l-150 89l103 137l119 -74l57 74l150 -92z" />
    <glyph glyph-name="uni069B.fina" unicode="&#x69b;" horiz-adv-x="1663" 
d="M1578 0q-17 0 -36.5 5t-38 16t-34.5 28.5t-26 42.5h-12q-6 -23 -13.5 -47t-18.5 -45q-21 -41 -42 -54t-40 -13q-12 0 -30.5 18t-38.5 45.5t-38.5 60t-31.5 61.5q-22 -24 -54 -42.5t-68.5 -32.5t-74.5 -23t-72 -13v-22q0 -23 -5.5 -54t-14.5 -64t-22 -65.5t-28 -60.5
q-36 -26 -85.5 -52t-107.5 -46.5t-123.5 -33t-133.5 -12.5q-87 0 -146 24t-95.5 62.5t-52 87t-15.5 98.5q0 63 8.5 110.5t24 87.5t36.5 77.5t47 81.5l39 -15q-23 -54 -34 -110t-11 -101q0 -38 14.5 -72t43 -60.5t72 -42t100.5 -15.5q50 0 107.5 8.5t112.5 23.5t103 34.5
t78 42.5q0 30 -11.5 71t-32 86t-48 90t-58.5 83l103 168q31 -50 57.5 -98.5t41.5 -95.5q8 -1 26 -1.5t30 -0.5q22 0 51 4.5t58 12t54.5 17t40.5 20.5q18 13 34.5 39t30 56t24.5 60t18 51l66 -19q-9 -49 -21.5 -96t-23.5 -82q7 -17 19 -38t25 -40.5t24 -32.5t15 -13
q11 0 18 15q9 21 20 56.5t23 76.5t23.5 82.5t20.5 76.5l67 -15q-8 -58 -18.5 -108t-20.5 -92q15 -31 48 -38t81 -7h57v-207h-85zM1202 -535l-153 93l100 133l153 -95zM1264 -326l-121 72l-55 -72l-150 89l103 137l119 -74l57 74l150 -92z" />
    <glyph glyph-name="uni069C.init" unicode="&#x69c;" horiz-adv-x="1221" 
d="M1070 492q7 -15 18 -44t21.5 -65t18.5 -74t8 -70q0 -45 -10 -91t-31 -84q-24 -42 -42 -65t-41 -23q-15 0 -47 12t-69.5 31.5t-75 44t-65.5 48.5q-25 -23 -67.5 -39t-90 -25.5t-93.5 -13.5t-79 -4q-40 0 -53.5 17t-13.5 40h-9q-20 -22 -58.5 -38t-86.5 -27t-101.5 -16.5
t-102.5 -5.5q-8 0 -21 3t-26.5 10t-23 17t-9.5 25v101q0 9 8 18.5t20 16.5t26 11.5t26 4.5q18 0 42 0.5t47 2.5q40 3 86 9.5t88 17t75 26t48 36.5q29 42 53 84.5t44 97.5l68 -24q-14 -55 -29.5 -100t-32.5 -79q-3 -6 -7 -15t-7 -14q2 -4 11 -7t20 -3q25 0 56 2.5t61 8
t56.5 13.5t42.5 19q18 13 34 37.5t29.5 53.5t24 58t17.5 50l66 -19q-5 -26 -11 -53t-12.5 -52.5t-13.5 -48.5t-14 -41q15 -13 43 -30.5t56.5 -33.5t53 -27.5t32.5 -11.5t13 2.5t5 7.5q0 2 -0.5 7t-1.5 13q-3 23 -16 64t-45 92zM748 823l-153 93l100 133l153 -95zM860 613
l-121 72l-55 -72l-150 89l103 137l119 -74l57 74l150 -92zM792 -525l-153 93l100 133l153 -95zM854 -316l-121 72l-55 -72l-150 89l103 137l119 -74l57 74l150 -92z" />
    <glyph glyph-name="uni069C.medi" unicode="&#x69c;" horiz-adv-x="1252" 
d="M1166 0q-15 0 -34.5 5t-38.5 16t-35 27.5t-25 39.5h-13q-11 -32 -19.5 -55t-13.5 -33q-22 -41 -41.5 -54t-39.5 -13q-13 0 -31 17.5t-37.5 44.5t-38.5 59.5t-32 63.5q-26 -27 -69 -45.5t-91.5 -30t-96 -16t-83.5 -4.5q-33 0 -49.5 18t-16.5 44h-8q-23 -21 -62 -37
t-87 -26.5t-101 -15.5t-103 -5q-30 0 -55 16t-25 53v74q0 10 7 21t18 20.5t25.5 16t29.5 6.5h13.5t19.5 0.5t19 0.5h14q46 1 95.5 7.5t93.5 17.5t79.5 27.5t53.5 38.5q27 32 52 79.5t45 102.5l68 -24q-8 -30 -14.5 -53.5t-14 -44.5t-15.5 -40.5t-17 -41.5q-2 -5 -9.5 -17.5
t-7.5 -17.5q0 -2 5 -3t12 -1.5t14.5 -1t11.5 -0.5q24 0 53.5 2t57.5 6.5t53 12t40 18.5q18 13 34.5 39t30 56t24.5 60t18 51l66 -19q-10 -49 -22 -96t-23 -82q7 -17 19 -38t24.5 -40.5t23.5 -32.5t16 -13q8 0 11.5 4.5t6.5 10.5q8 19 19.5 54.5t23.5 77.5t23.5 84.5
t20.5 75.5l67 -15q-8 -58 -18 -108t-21 -92q15 -31 47 -38t80 -7h59v-207h-86zM748 823l-153 93l100 133l153 -95zM860 613l-121 72l-55 -72l-150 89l103 137l119 -74l57 74l150 -92zM792 -535l-153 93l100 133l153 -95zM854 -326l-121 72l-55 -72l-150 89l103 137l119 -74
l57 74l150 -92z" />
    <glyph glyph-name="uni069C.fina" unicode="&#x69c;" horiz-adv-x="1663" 
d="M1578 0q-17 0 -36.5 5t-38 16t-34.5 28.5t-26 42.5h-12q-6 -23 -13.5 -47t-18.5 -45q-21 -41 -42 -54t-40 -13q-12 0 -30.5 18t-38.5 45.5t-38.5 60t-31.5 61.5q-22 -24 -54 -42.5t-68.5 -32.5t-74.5 -23t-72 -13v-22q0 -23 -5.5 -54t-14.5 -64t-22 -65.5t-28 -60.5
q-36 -26 -85.5 -52t-107.5 -46.5t-123.5 -33t-133.5 -12.5q-87 0 -146 24t-95.5 62.5t-52 87t-15.5 98.5q0 63 8.5 110.5t24 87.5t36.5 77.5t47 81.5l39 -15q-23 -54 -34 -110t-11 -101q0 -38 14.5 -72t43 -60.5t72 -42t100.5 -15.5q50 0 107.5 8.5t112.5 23.5t103 34.5
t78 42.5q0 30 -11.5 71t-32 86t-48 90t-58.5 83l103 168q31 -50 57.5 -98.5t41.5 -95.5q8 -1 26 -1.5t30 -0.5q22 0 51 4.5t58 12t54.5 17t40.5 20.5q18 13 34.5 39t30 56t24.5 60t18 51l66 -19q-9 -49 -21.5 -96t-23.5 -82q7 -17 19 -38t25 -40.5t24 -32.5t15 -13
q11 0 18 15q9 21 20 56.5t23 76.5t23.5 82.5t20.5 76.5l67 -15q-8 -58 -18.5 -108t-20.5 -92q15 -31 48 -38t81 -7h57v-207h-85zM1158 823l-153 93l100 133l153 -95zM1270 613l-121 72l-55 -72l-150 89l103 137l119 -74l57 74l150 -92zM1202 -535l-153 93l100 133l153 -95z
M1264 -326l-121 72l-55 -72l-150 89l103 137l119 -74l57 74l150 -92z" />
    <glyph glyph-name="uni069D.init" unicode="&#x69d;" horiz-adv-x="1460" 
d="M1209 207q5 5 9.5 12.5t4.5 10.5q0 8 -22 35.5t-56.5 57.5t-75.5 53.5t-79 23.5q-27 0 -70.5 -20t-91.5 -49t-93.5 -62.5t-75.5 -61.5h550zM482 0q-38 -39 -71.5 -91.5t-55.5 -108.5l-70 24q6 24 15.5 49t20 48t20.5 43.5t18 35.5h-98q-21 0 -36.5 12t-24.5 27
q-34 -17 -85.5 -28t-114.5 -11q-12 0 -26 5t-26 14.5t-20 24t-8 32.5v55q0 16 7.5 30t19.5 24t26 16t27 6q133 0 206.5 25.5t104.5 67.5q27 36 45.5 78t28.5 69l70 -24q-7 -36 -18 -72.5t-23 -64.5q-10 -23 -22.5 -46.5t-18.5 -32.5h131q43 38 94.5 80t106 83t110.5 78
t108.5 65t99 44.5t82.5 16.5q21 0 49.5 -11.5t58.5 -30t59 -43t52 -51t37 -53t14 -49.5q0 -38 -15.5 -84t-39 -92t-50 -88t-47.5 -72h-741zM907 -317l-121 72l-55 -72l-150 89l103 137l119 -74l57 74l150 -92z" />
    <glyph glyph-name="uni069D.medi" unicode="&#x69d;" horiz-adv-x="1525" 
d="M1209 207q4 4 9 11t5 12q0 6 -10 20.5t-27.5 33.5t-41 39.5t-49.5 37.5t-53 28t-52 11q-27 0 -70.5 -20t-91.5 -49t-93.5 -62.5t-75.5 -61.5h550zM482 0q-38 -39 -71.5 -91.5t-55.5 -108.5l-70 24q6 24 15.5 48.5t20 48t20.5 44t18 35.5h-98q-21 0 -36.5 12t-24.5 27
q-34 -17 -85.5 -28t-114.5 -11q-12 0 -26 5t-26 14.5t-20 24t-8 32.5v55q0 16 7.5 30t19.5 24t26 16t27 6q133 0 206.5 25.5t104.5 67.5q27 36 45.5 78t28.5 69l70 -24q-7 -36 -18 -72.5t-23 -64.5q-10 -23 -22.5 -46.5t-18.5 -32.5h131q43 38 94.5 80t106 83t110.5 78
t108.5 65t99 44.5t82.5 16.5q21 0 49.5 -11.5t58.5 -30t59 -43t52 -51t37 -53t14 -49.5q0 -33 -10 -67.5t-22 -61.5h182v-207h-1043zM907 -317l-121 72l-55 -72l-150 89l103 137l119 -74l57 74l150 -92z" />
    <glyph glyph-name="uni069D.fina" unicode="&#x69d;" horiz-adv-x="2008" 
d="M1676 207q5 7 9 14t4 10t-10 16.5t-27.5 32.5t-41 39.5t-50 38.5t-55 29.5t-56.5 11.5t-68.5 -18.5t-85 -47t-89.5 -62t-81 -64.5h551zM923 0v-6q0 -28 -7 -63t-17.5 -70t-23.5 -68t-26 -57q-41 -25 -91.5 -49.5t-109 -44.5t-123.5 -32.5t-134 -12.5q-93 0 -153 25
t-95.5 65.5t-49 91.5t-13.5 102q0 54 8 98t23 84.5t36.5 79.5t49.5 83l39 -15q-22 -53 -33.5 -108t-11.5 -103t19 -84t51.5 -59.5t76 -35.5t92.5 -12q46 0 102 8.5t111.5 23.5t105 34.5t83.5 41.5q0 36 -11.5 80.5t-32 91t-49 92.5t-61.5 85l106 170q11 -13 23 -34t23.5 -45
t21.5 -48t18 -42q11 -28 21.5 -44t33.5 -16h46q39 34 88 74.5t103 81.5t110.5 79t110 67.5t102.5 47t88 17.5q20 0 47.5 -11t57.5 -30t59.5 -43t52.5 -51t37.5 -54t14.5 -51q0 -32 -9.5 -65.5t-23.5 -61.5h199v-207h-1085zM1377 -317l-121 72l-55 -72l-150 89l103 137
l119 -74l57 74l150 -92z" />
    <glyph glyph-name="uni069E.init" unicode="&#x69e;" horiz-adv-x="1460" 
d="M1209 207q5 5 9.5 12.5t4.5 10.5q0 8 -22 35.5t-56.5 57.5t-75.5 53.5t-79 23.5q-27 0 -70.5 -20t-91.5 -49t-93.5 -62.5t-75.5 -61.5h550zM482 0q-38 -39 -71.5 -91.5t-55.5 -108.5l-70 24q6 24 15.5 49t20 48t20.5 43.5t18 35.5h-98q-21 0 -36.5 12t-24.5 27
q-34 -17 -85.5 -28t-114.5 -11q-12 0 -26 5t-26 14.5t-20 24t-8 32.5v55q0 16 7.5 30t19.5 24t26 16t27 6q133 0 206.5 25.5t104.5 67.5q27 36 45.5 78t28.5 69l70 -24q-7 -36 -18 -72.5t-23 -64.5q-10 -23 -22.5 -46.5t-18.5 -32.5h131q43 38 94.5 80t106 83t110.5 78
t108.5 65t99 44.5t82.5 16.5q21 0 49.5 -11.5t58.5 -30t59 -43t52 -51t37 -53t14 -49.5q0 -38 -15.5 -84t-39 -92t-50 -88t-47.5 -72h-741zM798 887l-153 93l100 133l153 -95zM910 677l-121 72l-55 -72l-150 89l103 137l119 -74l57 74l150 -92z" />
    <glyph glyph-name="uni069E.medi" unicode="&#x69e;" horiz-adv-x="1525" 
d="M1209 207q4 4 9 11t5 12q0 6 -10 20.5t-27.5 33.5t-41 39.5t-49.5 37.5t-53 28t-52 11q-27 0 -70.5 -20t-91.5 -49t-93.5 -62.5t-75.5 -61.5h550zM482 0q-38 -39 -71.5 -91.5t-55.5 -108.5l-70 24q6 24 15.5 48.5t20 48t20.5 44t18 35.5h-98q-21 0 -36.5 12t-24.5 27
q-34 -17 -85.5 -28t-114.5 -11q-12 0 -26 5t-26 14.5t-20 24t-8 32.5v55q0 16 7.5 30t19.5 24t26 16t27 6q133 0 206.5 25.5t104.5 67.5q27 36 45.5 78t28.5 69l70 -24q-7 -36 -18 -72.5t-23 -64.5q-10 -23 -22.5 -46.5t-18.5 -32.5h131q43 38 94.5 80t106 83t110.5 78
t108.5 65t99 44.5t82.5 16.5q21 0 49.5 -11.5t58.5 -30t59 -43t52 -51t37 -53t14 -49.5q0 -33 -10 -67.5t-22 -61.5h182v-207h-1043zM798 887l-153 93l100 133l153 -95zM910 677l-121 72l-55 -72l-150 89l103 137l119 -74l57 74l150 -92z" />
    <glyph glyph-name="uni069E.fina" unicode="&#x69e;" horiz-adv-x="2008" 
d="M1676 207q5 7 9 14t4 10t-10 16.5t-27.5 32.5t-41 39.5t-50 38.5t-55 29.5t-56.5 11.5t-68.5 -18.5t-85 -47t-89.5 -62t-81 -64.5h551zM923 0v-6q0 -28 -7 -63t-17.5 -70t-23.5 -68t-26 -57q-41 -25 -91.5 -49.5t-109 -44.5t-123.5 -32.5t-134 -12.5q-93 0 -153 25
t-95.5 65.5t-49 91.5t-13.5 102q0 54 8 98t23 84.5t36.5 79.5t49.5 83l39 -15q-22 -53 -33.5 -108t-11.5 -103t19 -84t51.5 -59.5t76 -35.5t92.5 -12q46 0 102 8.5t111.5 23.5t105 34.5t83.5 41.5q0 36 -11.5 80.5t-32 91t-49 92.5t-61.5 85l106 170q11 -13 23 -34t23.5 -45
t21.5 -48t18 -42q11 -28 21.5 -44t33.5 -16h46q39 34 88 74.5t103 81.5t110.5 79t110 67.5t102.5 47t88 17.5q20 0 47.5 -11t57.5 -30t59.5 -43t52.5 -51t37.5 -54t14.5 -51q0 -32 -9.5 -65.5t-23.5 -61.5h199v-207h-1085zM1268 904l-153 93l100 133l153 -95zM1380 694
l-121 72l-55 -72l-150 89l103 137l119 -74l57 74l150 -92z" />
    <glyph glyph-name="uni069F.medi" unicode="&#x69f;" horiz-adv-x="1129" 
d="M814 207q6 7 10 14t4 9q0 4 -10 18.5t-27.5 33.5t-40.5 39.5t-48.5 38t-52.5 29t-52 11.5q-30 0 -72 -18.5t-88 -47t-91.5 -62.5t-81.5 -65h550zM0 0q-12 0 -25.5 5t-25.5 12.5t-19.5 17.5t-7.5 20v100q0 11 9 20.5t21 16.5t25.5 11t22.5 4h84l59 40v83l-54 577
q-15 12 -25 26.5t-15.5 29t-7.5 27.5t-2 22l111 145h16q0 -23 7.5 -41.5t26.5 -38.5t52 -45t83 -61l-116 -141l15 -426q-1 -25 -3.5 -48.5t-7.5 -49.5q57 42 120.5 89t127 87t124.5 66t113 26q22 0 50.5 -11.5t59 -30.5t59.5 -44t52 -52t37 -53.5t14 -49.5q0 -14 -3 -30.5
t-7.5 -33.5t-10.5 -33t-12 -29h182v-207h-1129zM598 903l-153 93l100 133l153 -95zM710 693l-121 72l-55 -72l-150 89l103 137l119 -74l57 74l150 -92z" />
    <glyph glyph-name="uni069F.fina" unicode="&#x69f;" horiz-adv-x="1491" 
d="M1177 207q6 7 10 14t4 9q0 4 -10 18.5t-27.5 33.5t-40.5 39.5t-48.5 38t-52.5 29t-52 11.5q-30 0 -72 -18.5t-88 -47t-91.5 -62.5t-81.5 -65h550zM347 0q-28 0 -68 19t-83.5 46.5t-85 57.5t-72.5 52l9 32h400l59 40v83l-54 577q-15 12 -25 26.5t-15.5 29t-7.5 27.5t-2 22
l111 145h16q0 -23 7.5 -41.5t26.5 -38.5t52 -45t83 -61l-116 -141l15 -426q-1 -25 -3.5 -48.5t-7.5 -49.5q57 42 120.5 89t127 87t124.5 66t113 26q22 0 50.5 -11.5t59 -30.5t59.5 -44t52 -52t37 -53.5t14 -49.5q0 -29 -10.5 -63t-23.5 -63h182v-207h-1144zM950 903l-153 93
l100 133l153 -95zM1062 693l-121 72l-55 -72l-150 89l103 137l119 -74l57 74l150 -92z" />
    <glyph glyph-name="uni06A0.init" unicode="&#x6a0;" horiz-adv-x="939" 
d="M795 77q-29 -5 -77.5 -13t-107 -17t-121 -18t-118.5 -16q-33 -4 -84 -6.5t-105 -4t-103.5 -2t-78.5 -0.5q-12 0 -26 5t-26 14.5t-20 24t-8 32.5v55q0 19 8 33.5t20 24t26 14t26 4.5q22 0 52.5 0.5t61.5 1t59 2t46 3.5q-12 22 -25.5 47.5t-13.5 59.5t12.5 73.5t34.5 78.5
t51 75t62 64t68 44.5t68 16.5q48 0 86.5 -16t70.5 -42t59 -60.5t51 -70.5l-20 -19q-32 29 -69.5 47t-75.5 18q-28 0 -61.5 -1.5t-68.5 -7.5t-70 -17.5t-67 -31.5q9 -46 34.5 -84.5t58 -68t67.5 -49t62 -26.5q5 0 29.5 3t59 7.5t75 9t76.5 9l64 8t37 4.5zM376 948l-153 93
l100 133l153 -95zM488 738l-121 72l-55 -72l-150 89l103 137l119 -74l57 74l150 -92z" />
    <glyph glyph-name="uni06A0.medi" unicode="&#x6a0;" horiz-adv-x="841" 
d="M673 0q-38 0 -71 3t-62.5 13.5t-56 30t-51.5 53.5q-30 -23 -69.5 -41.5t-84 -31.5t-91.5 -20t-91 -7h-96q-14 0 -28 5.5t-25.5 15.5t-19 22.5t-7.5 26.5v77q0 11 7.5 22t19 19.5t25.5 13.5t28 5h82q34 0 72 4t74 10.5t67.5 16t54.5 21.5q-8 14 -21 32t-28.5 33.5
t-31.5 26.5t-29 11q-12 0 -23 -2.5t-22 -6.5l-32 17l73 227q30 15 72 25t87 10q19 0 47.5 -6.5t60.5 -19t63.5 -29.5t57 -38.5t41.5 -46t16 -51.5q0 -18 -5 -46.5t-14.5 -59t-24.5 -57.5t-36 -42q19 -14 51 -21.5t54 -7.5h135v-207h-168zM373 938l-153 93l100 133l153 -95z
M485 728l-121 72l-55 -72l-150 89l103 137l119 -74l57 74l150 -92z" />
    <glyph glyph-name="uni06A0.fina" unicode="&#x6a0;" horiz-adv-x="831" 
d="M685 0q-41 0 -83.5 1.5t-80 9t-66.5 23.5t-43 46l-22 33q-51 -36 -95 -77t-76.5 -85.5t-51 -91.5t-18.5 -96q0 -64 41 -111t130 -77.5t229.5 -45.5t339.5 -15l9 -38q-37 -18 -91 -43t-112.5 -48t-114 -39t-95.5 -16q-92 0 -158 17.5t-111 47.5t-71.5 70.5t-40.5 86
t-18.5 94.5t-4.5 96q0 86 19.5 156t47 125t58 94.5t52.5 64.5q11 13 24.5 26t29.5 27q-6 11 -18 24.5t-26 25t-29.5 19.5t-29.5 8q-20 0 -45 -9l-32 17q8 22 19.5 52.5t23.5 63t23.5 63.5t20.5 55q23 14 56.5 25t77.5 11q21 0 50.5 -6.5t61.5 -18t64 -28t57 -36.5
t40.5 -43.5t15.5 -49.5q0 -20 -6 -44.5t-16.5 -49t-24 -45.5t-28.5 -33q21 -16 52 -22.5t65 -6.5h147v-207h-146zM390 930l-153 93l100 133l153 -95zM502 720l-121 72l-55 -72l-150 89l103 137l119 -74l57 74l150 -92z" />
    <glyph glyph-name="uni06A1.init" unicode="&#x6a1;" horiz-adv-x="734" 
d="M503 458q-6 21 -20.5 45.5t-33 46.5t-39 36.5t-39.5 14.5t-38 -9t-34.5 -22.5t-26 -29.5t-12.5 -30q8 -11 28 -21t45.5 -18.5t54.5 -13.5t55 -5q12 0 29 2t31 4zM0 0q-12 0 -26 5t-26 14.5t-20 24t-8 32.5v55q0 19 8 33.5t20 24t26 14t26 4.5h542q1 10 1.5 19.5t0.5 15.5
q0 30 -6 66t-14 61h-24q-9 -15 -20.5 -30.5t-24.5 -28t-28 -20.5t-31 -8q-33 0 -72.5 7t-73.5 22.5t-57 41.5t-23 64q0 72 26 137t65.5 114.5t86.5 79t89 29.5q45 0 84 -40t67.5 -102t44.5 -137.5t16 -147.5q0 -24 -3 -51.5t-10.5 -67t-22 -95t-36.5 -136.5h-577z" />
    <glyph glyph-name="uni06A1.medi" unicode="&#x6a1;" horiz-adv-x="815" 
d="M413 425q-21 0 -44.5 -7t-45.5 -18.5t-40.5 -27.5t-30.5 -34q0 -7 4 -19.5t14.5 -28.5t30 -35t52.5 -40q18 4 45.5 13t56 19.5t52.5 22.5t35 23q-4 19 -17.5 42.5t-32 43t-39.5 33t-40 13.5zM0 0q-8 0 -21 3.5t-26.5 12t-23 21.5t-9.5 32v67q0 19 9.5 32.5t23 22
t26.5 12.5t21 4h162q-1 4 -1 10v11q0 32 14 72.5t38 83.5t56.5 84t70 73.5t78.5 52t81 19.5q25 0 51 -20.5t47 -55t34.5 -79t13.5 -92.5q0 -9 -3.5 -22.5t-9 -29t-11.5 -31t-12 -26.5q-6 -12 -14 -25t-19 -25h239v-207h-815z" />
    <glyph glyph-name="uni06A1.fina" unicode="&#x6a1;" horiz-adv-x="1642" 
d="M1247 425q-20 0 -44 -6t-47 -17.5t-43 -27.5t-33 -35q1 -7 4.5 -19.5t14.5 -29t30.5 -35.5t52.5 -40q18 4 45.5 13t55.5 20t51.5 22.5t34.5 22.5q-3 21 -17.5 44t-33 42.5t-38 32.5t-33.5 13zM354 0q-86 0 -139.5 21.5t-83.5 53t-40.5 68.5t-10.5 68q0 37 6.5 71
t18.5 66.5t29.5 65t39.5 67.5l36 -15q-8 -19 -16 -39.5t-14 -40t-9.5 -37t-3.5 -30.5q0 -17 8.5 -36.5t32.5 -36.5t68.5 -28t116.5 -11h597v21q0 32 13.5 72.5t37.5 83.5t56.5 84t69.5 73.5t78 52t81 19.5q27 0 53.5 -22.5t47.5 -58t33.5 -80t12.5 -87.5q0 -11 -4 -26
t-9.5 -31t-12 -31t-11.5 -25q-6 -12 -16 -24t-20 -21h242v-207h-1288z" />
    <glyph glyph-name="uni06A2.init" unicode="&#x6a2;" horiz-adv-x="734" 
d="M503 458q-6 21 -20.5 45.5t-33 46.5t-39 36.5t-39.5 14.5t-38 -9t-34.5 -22.5t-26 -29.5t-12.5 -30q8 -11 28 -21t45.5 -18.5t54.5 -13.5t55 -5q12 0 29 2t31 4zM0 0q-12 0 -26 5t-26 14.5t-20 24t-8 32.5v55q0 19 8 33.5t20 24t26 14t26 4.5h542q1 10 1.5 19.5t0.5 15.5
q0 30 -6 66t-14 61h-24q-9 -15 -20.5 -30.5t-24.5 -28t-28 -20.5t-31 -8q-33 0 -72.5 7t-73.5 22.5t-57 41.5t-23 64q0 72 26 137t65.5 114.5t86.5 79t89 29.5q45 0 84 -40t67.5 -102t44.5 -137.5t16 -147.5q0 -24 -3 -51.5t-10.5 -67t-22 -95t-36.5 -136.5h-577zM387 -340
l-165 101l107 143l165 -103z" />
    <glyph glyph-name="uni06A2.medi" unicode="&#x6a2;" horiz-adv-x="815" 
d="M413 425q-21 0 -44.5 -7t-45.5 -18.5t-40.5 -27.5t-30.5 -34q0 -7 4 -19.5t14.5 -28.5t30 -35t52.5 -40q18 4 45.5 13t56 19.5t52.5 22.5t35 23q-4 19 -17.5 42.5t-32 43t-39.5 33t-40 13.5zM0 0q-8 0 -21 3.5t-26.5 12t-23 21.5t-9.5 32v67q0 19 9.5 32.5t23 22
t26.5 12.5t21 4h162q-1 4 -1 10v11q0 32 14 72.5t38 83.5t56.5 84t70 73.5t78.5 52t81 19.5q25 0 51 -20.5t47 -55t34.5 -79t13.5 -92.5q0 -9 -3.5 -22.5t-9 -29t-11.5 -31t-12 -26.5q-6 -12 -14 -25t-19 -25h239v-207h-815zM392 -340l-165 101l107 143l165 -103z" />
    <glyph glyph-name="uni06A2.fina" unicode="&#x6a2;" horiz-adv-x="1642" 
d="M1247 425q-20 0 -44 -6t-47 -17.5t-43 -27.5t-33 -35q1 -7 4.5 -19.5t14.5 -29t30.5 -35.5t52.5 -40q18 4 45.5 13t55.5 20t51.5 22.5t34.5 22.5q-3 21 -17.5 44t-33 42.5t-38 32.5t-33.5 13zM354 0q-86 0 -139.5 21.5t-83.5 53t-40.5 68.5t-10.5 68q0 37 6.5 71
t18.5 66.5t29.5 65t39.5 67.5l36 -15q-8 -19 -16 -39.5t-14 -40t-9.5 -37t-3.5 -30.5q0 -17 8.5 -36.5t32.5 -36.5t68.5 -28t116.5 -11h597v21q0 32 13.5 72.5t37.5 83.5t56.5 84t69.5 73.5t78 52t81 19.5q27 0 53.5 -22.5t47.5 -58t33.5 -80t12.5 -87.5q0 -11 -4 -26
t-9.5 -31t-12 -31t-11.5 -25q-6 -12 -16 -24t-20 -21h242v-207h-1288zM1277 -340l-165 101l107 143l165 -103z" />
    <glyph glyph-name="uni06A3.init" unicode="&#x6a3;" horiz-adv-x="734" 
d="M503 458q-6 21 -20.5 45.5t-33 46.5t-39 36.5t-39.5 14.5t-38 -9t-34.5 -22.5t-26 -29.5t-12.5 -30q8 -11 28 -21t45.5 -18.5t54.5 -13.5t55 -5q12 0 29 2t31 4zM0 0q-12 0 -26 5t-26 14.5t-20 24t-8 32.5v55q0 19 8 33.5t20 24t26 14t26 4.5h542q1 10 1.5 19.5t0.5 15.5
q0 30 -6 66t-14 61h-24q-9 -15 -20.5 -30.5t-24.5 -28t-28 -20.5t-31 -8q-33 0 -72.5 7t-73.5 22.5t-57 41.5t-23 64q0 72 26 137t65.5 114.5t86.5 79t89 29.5q45 0 84 -40t67.5 -102t44.5 -137.5t16 -147.5q0 -24 -3 -51.5t-10.5 -67t-22 -95t-36.5 -136.5h-577zM387 -340
l-165 101l107 143l165 -103zM387 854l-165 101l107 143l165 -103z" />
    <glyph glyph-name="uni06A3.medi" unicode="&#x6a3;" horiz-adv-x="815" 
d="M413 425q-21 0 -44.5 -7t-45.5 -18.5t-40.5 -27.5t-30.5 -34q0 -7 4 -19.5t14.5 -28.5t30 -35t52.5 -40q18 4 45.5 13t56 19.5t52.5 22.5t35 23q-4 19 -17.5 42.5t-32 43t-39.5 33t-40 13.5zM0 0q-8 0 -21 3.5t-26.5 12t-23 21.5t-9.5 32v67q0 19 9.5 32.5t23 22
t26.5 12.5t21 4h162q-1 4 -1 10v11q0 32 14 72.5t38 83.5t56.5 84t70 73.5t78.5 52t81 19.5q25 0 51 -20.5t47 -55t34.5 -79t13.5 -92.5q0 -9 -3.5 -22.5t-9 -29t-11.5 -31t-12 -26.5q-6 -12 -14 -25t-19 -25h239v-207h-815zM437 -340l-165 101l107 143l165 -103zM437 719
l-165 101l107 143l165 -103z" />
    <glyph glyph-name="uni06A3.fina" unicode="&#x6a3;" horiz-adv-x="1642" 
d="M1247 425q-20 0 -44 -6t-47 -17.5t-43 -27.5t-33 -35q1 -7 4.5 -19.5t14.5 -29t30.5 -35.5t52.5 -40q18 4 45.5 13t55.5 20t51.5 22.5t34.5 22.5q-3 21 -17.5 44t-33 42.5t-38 32.5t-33.5 13zM354 0q-86 0 -139.5 21.5t-83.5 53t-40.5 68.5t-10.5 68q0 37 6.5 71
t18.5 66.5t29.5 65t39.5 67.5l36 -15q-8 -19 -16 -39.5t-14 -40t-9.5 -37t-3.5 -30.5q0 -17 8.5 -36.5t32.5 -36.5t68.5 -28t116.5 -11h597v21q0 32 13.5 72.5t37.5 83.5t56.5 84t69.5 73.5t78 52t81 19.5q27 0 53.5 -22.5t47.5 -58t33.5 -80t12.5 -87.5q0 -11 -4 -26
t-9.5 -31t-12 -31t-11.5 -25q-6 -12 -16 -24t-20 -21h242v-207h-1288zM737 -340l-165 101l107 143l165 -103zM1277 719l-165 101l107 143l165 -103z" />
    <glyph glyph-name="uni06A4" unicode="&#x6a4;" horiz-adv-x="1445" arabic-form="isolated" 
d="M1089 601q-23 0 -42 -9t-34 -22.5t-25.5 -29.5t-14.5 -29q7 -10 25 -20.5t43 -19t54.5 -14t58.5 -5.5q13 0 29.5 2t30.5 4q-6 21 -19 45.5t-30 46.5t-36.5 36.5t-39.5 14.5zM354 0q-86 0 -139.5 21.5t-83.5 53t-40.5 68.5t-10.5 68q0 69 23 132.5t71 137.5l36 -15
q-8 -17 -14.5 -37.5t-12 -40.5t-8.5 -38t-3 -30q0 -14 6.5 -33t29 -37t66 -30.5t117.5 -12.5h862q1 10 1.5 19.5t0.5 15.5q0 30 -6 66t-14 61h-17q-10 -15 -20.5 -30.5t-23 -28t-26.5 -20.5t-31 -8q-33 0 -73.5 7t-76.5 22.5t-60 41.5t-24 64q0 45 12 89.5t32 84.5t46.5 74
t56 59t60.5 39t59 14q45 0 84 -40t67 -102t44 -137.5t16 -147.5q0 -24 -3 -51.5t-10.5 -67t-22 -95t-36.5 -136.5h-934zM1101 1063l-153 93l100 133l153 -95zM1213 853l-121 72l-55 -72l-150 89l103 137l119 -74l57 74l150 -92z" />
    <glyph glyph-name="uni06A4.init" unicode="&#x6a4;" horiz-adv-x="734" arabic-form="initial" 
d="M503 458q-6 21 -20.5 45.5t-33 46.5t-39 36.5t-39.5 14.5t-38 -9t-34.5 -22.5t-26 -29.5t-12.5 -30q8 -11 28 -21t45.5 -18.5t54.5 -13.5t55 -5q12 0 29 2t31 4zM0 0q-12 0 -26 5t-26 14.5t-20 24t-8 32.5v55q0 19 8 33.5t20 24t26 14t26 4.5h542q1 10 1.5 19.5t0.5 15.5
q0 30 -6 66t-14 61h-24q-9 -15 -20.5 -30.5t-24.5 -28t-28 -20.5t-31 -8q-33 0 -72.5 7t-73.5 22.5t-57 41.5t-23 64q0 72 26 137t65.5 114.5t86.5 79t89 29.5q45 0 84 -40t67.5 -102t44.5 -137.5t16 -147.5q0 -24 -3 -51.5t-10.5 -67t-22 -95t-36.5 -136.5h-577zM372 1063
l-153 93l100 133l153 -95zM484 853l-121 72l-55 -72l-150 89l103 137l119 -74l57 74l150 -92z" />
    <glyph glyph-name="uni06A4.medi" unicode="&#x6a4;" horiz-adv-x="815" arabic-form="medial" 
d="M413 425q-21 0 -44.5 -7t-45.5 -18.5t-40.5 -27.5t-30.5 -34q0 -7 4 -19.5t14.5 -28.5t30 -35t52.5 -40q18 4 45.5 13t56 19.5t52.5 22.5t35 23q-4 19 -17.5 42.5t-32 43t-39.5 33t-40 13.5zM0 0q-8 0 -21 3.5t-26.5 12t-23 21.5t-9.5 32v67q0 19 9.5 32.5t23 22
t26.5 12.5t21 4h162q-1 4 -1 10v11q0 32 14 72.5t38 83.5t56.5 84t70 73.5t78.5 52t81 19.5q25 0 51 -20.5t47 -55t34.5 -79t13.5 -92.5q0 -9 -3.5 -22.5t-9 -29t-11.5 -31t-12 -26.5q-6 -12 -14 -25t-19 -25h239v-207h-815zM447 928l-153 93l100 133l153 -95zM559 718
l-121 72l-55 -72l-150 89l103 137l119 -74l57 74l150 -92z" />
    <glyph glyph-name="uni06A4.fina" unicode="&#x6a4;" horiz-adv-x="1642" arabic-form="final" 
d="M1247 425q-20 0 -44 -6t-47 -17.5t-43 -27.5t-33 -35q1 -7 4.5 -19.5t14.5 -29t30.5 -35.5t52.5 -40q18 4 45.5 13t55.5 20t51.5 22.5t34.5 22.5q-3 21 -17.5 44t-33 42.5t-38 32.5t-33.5 13zM354 0q-86 0 -139.5 21.5t-83.5 53t-40.5 68.5t-10.5 68q0 37 6.5 71
t18.5 66.5t29.5 65t39.5 67.5l36 -15q-8 -19 -16 -39.5t-14 -40t-9.5 -37t-3.5 -30.5q0 -17 8.5 -36.5t32.5 -36.5t68.5 -28t116.5 -11h597v21q0 32 13.5 72.5t37.5 83.5t56.5 84t69.5 73.5t78 52t81 19.5q27 0 53.5 -22.5t47.5 -58t33.5 -80t12.5 -87.5q0 -11 -4 -26
t-9.5 -31t-12 -31t-11.5 -25q-6 -12 -16 -24t-20 -21h242v-207h-1288zM1287 928l-153 93l100 133l153 -95zM1399 718l-121 72l-55 -72l-150 89l103 137l119 -74l57 74l150 -92z" />
    <glyph glyph-name="uni06A5.init" unicode="&#x6a5;" horiz-adv-x="734" 
d="M503 458q-6 21 -20.5 45.5t-33 46.5t-39 36.5t-39.5 14.5t-38 -9t-34.5 -22.5t-26 -29.5t-12.5 -30q8 -11 28 -21t45.5 -18.5t54.5 -13.5t55 -5q12 0 29 2t31 4zM0 0q-12 0 -26 5t-26 14.5t-20 24t-8 32.5v55q0 19 8 33.5t20 24t26 14t26 4.5h542q1 10 1.5 19.5t0.5 15.5
q0 30 -6 66t-14 61h-24q-9 -15 -20.5 -30.5t-24.5 -28t-28 -20.5t-31 -8q-33 0 -72.5 7t-73.5 22.5t-57 41.5t-23 64q0 72 26 137t65.5 114.5t86.5 79t89 29.5q45 0 84 -40t67.5 -102t44.5 -137.5t16 -147.5q0 -24 -3 -51.5t-10.5 -67t-22 -95t-36.5 -136.5h-577zM392 -525
l-153 93l100 133l153 -95zM454 -316l-121 72l-55 -72l-150 89l103 137l119 -74l57 74l150 -92z" />
    <glyph glyph-name="uni06A5.medi" unicode="&#x6a5;" horiz-adv-x="815" 
d="M413 425q-21 0 -44.5 -7t-45.5 -18.5t-40.5 -27.5t-30.5 -34q0 -7 4 -19.5t14.5 -28.5t30 -35t52.5 -40q18 4 45.5 13t56 19.5t52.5 22.5t35 23q-4 19 -17.5 42.5t-32 43t-39.5 33t-40 13.5zM0 0q-8 0 -21 3.5t-26.5 12t-23 21.5t-9.5 32v67q0 19 9.5 32.5t23 22
t26.5 12.5t21 4h162q-1 4 -1 10v11q0 32 14 72.5t38 83.5t56.5 84t70 73.5t78.5 52t81 19.5q25 0 51 -20.5t47 -55t34.5 -79t13.5 -92.5q0 -9 -3.5 -22.5t-9 -29t-11.5 -31t-12 -26.5q-6 -12 -14 -25t-19 -25h239v-207h-815zM442 -525l-153 93l100 133l153 -95zM504 -316
l-121 72l-55 -72l-150 89l103 137l119 -74l57 74l150 -92z" />
    <glyph glyph-name="uni06A5.fina" unicode="&#x6a5;" horiz-adv-x="1642" 
d="M1247 425q-20 0 -44 -6t-47 -17.5t-43 -27.5t-33 -35q1 -7 4.5 -19.5t14.5 -29t30.5 -35.5t52.5 -40q18 4 45.5 13t55.5 20t51.5 22.5t34.5 22.5q-3 21 -17.5 44t-33 42.5t-38 32.5t-33.5 13zM354 0q-86 0 -139.5 21.5t-83.5 53t-40.5 68.5t-10.5 68q0 37 6.5 71
t18.5 66.5t29.5 65t39.5 67.5l36 -15q-8 -19 -16 -39.5t-14 -40t-9.5 -37t-3.5 -30.5q0 -17 8.5 -36.5t32.5 -36.5t68.5 -28t116.5 -11h597v21q0 32 13.5 72.5t37.5 83.5t56.5 84t69.5 73.5t78 52t81 19.5q27 0 53.5 -22.5t47.5 -58t33.5 -80t12.5 -87.5q0 -11 -4 -26
t-9.5 -31t-12 -31t-11.5 -25q-6 -12 -16 -24t-20 -21h242v-207h-1288zM1282 -525l-153 93l100 133l153 -95zM1344 -316l-121 72l-55 -72l-150 89l103 137l119 -74l57 74l150 -92z" />
    <glyph glyph-name="uni06A6" unicode="&#x6a6;" horiz-adv-x="1445" arabic-form="isolated" 
d="M1089 601q-23 0 -42 -9t-34 -22.5t-25.5 -29.5t-14.5 -29q7 -10 25 -20.5t43 -19t54.5 -14t58.5 -5.5q13 0 29.5 2t30.5 4q-6 21 -19 45.5t-30 46.5t-36.5 36.5t-39.5 14.5zM354 0q-86 0 -139.5 21.5t-83.5 53t-40.5 68.5t-10.5 68q0 69 23 132.5t71 137.5l36 -15
q-8 -17 -14.5 -37.5t-12 -40.5t-8.5 -38t-3 -30q0 -14 6.5 -33t29 -37t66 -30.5t117.5 -12.5h862q1 10 1.5 19.5t0.5 15.5q0 30 -6 66t-14 61h-17q-10 -15 -20.5 -30.5t-23 -28t-26.5 -20.5t-31 -8q-33 0 -73.5 7t-76.5 22.5t-60 41.5t-24 64q0 45 12 89.5t32 84.5t46.5 74
t56 59t60.5 39t59 14q45 0 84 -40t67 -102t44 -137.5t16 -147.5q0 -24 -3 -51.5t-10.5 -67t-22 -95t-36.5 -136.5h-934zM1034 1058l96 -59l60 80l-96 56zM1229 871l-121 72l-55 -72l-150 89l85 113l-94 55l103 137l120 -74l56 74l150 -92l-85 -111l94 -57z" />
    <glyph glyph-name="uni06A6.init" unicode="&#x6a6;" horiz-adv-x="734" arabic-form="initial" 
d="M503 458q-6 21 -20.5 45.5t-33 46.5t-39 36.5t-39.5 14.5t-38 -9t-34.5 -22.5t-26 -29.5t-12.5 -30q8 -11 28 -21t45.5 -18.5t54.5 -13.5t55 -5q12 0 29 2t31 4zM0 0q-12 0 -26 5t-26 14.5t-20 24t-8 32.5v55q0 19 8 33.5t20 24t26 14t26 4.5h542q1 10 1.5 19.5t0.5 15.5
q0 30 -6 66t-14 61h-24q-9 -15 -20.5 -30.5t-24.5 -28t-28 -20.5t-31 -8q-33 0 -72.5 7t-73.5 22.5t-57 41.5t-23 64q0 72 26 137t65.5 114.5t86.5 79t89 29.5q45 0 84 -40t67.5 -102t44.5 -137.5t16 -147.5q0 -24 -3 -51.5t-10.5 -67t-22 -95t-36.5 -136.5h-577zM301 1058
l96 -59l60 80l-96 56zM496 871l-121 72l-55 -72l-150 89l85 113l-94 55l103 137l120 -74l56 74l150 -92l-85 -111l94 -57z" />
    <glyph glyph-name="uni06A6.medi" unicode="&#x6a6;" horiz-adv-x="815" arabic-form="medial" 
d="M413 425q-21 0 -44.5 -7t-45.5 -18.5t-40.5 -27.5t-30.5 -34q0 -7 4 -19.5t14.5 -28.5t30 -35t52.5 -40q18 4 45.5 13t56 19.5t52.5 22.5t35 23q-4 19 -17.5 42.5t-32 43t-39.5 33t-40 13.5zM0 0q-8 0 -21 3.5t-26.5 12t-23 21.5t-9.5 32v67q0 19 9.5 32.5t23 22
t26.5 12.5t21 4h162q-1 4 -1 10v11q0 32 14 72.5t38 83.5t56.5 84t70 73.5t78.5 52t81 19.5q25 0 51 -20.5t47 -55t34.5 -79t13.5 -92.5q0 -9 -3.5 -22.5t-9 -29t-11.5 -31t-12 -26.5q-6 -12 -14 -25t-19 -25h239v-207h-815zM381 923l96 -59l60 80l-96 56zM576 736l-121 72
l-55 -72l-150 89l85 113l-94 55l103 137l120 -74l56 74l150 -92l-85 -111l94 -57z" />
    <glyph glyph-name="uni06A6.fina" unicode="&#x6a6;" horiz-adv-x="1642" arabic-form="final" 
d="M1247 425q-20 0 -44 -6t-47 -17.5t-43 -27.5t-33 -35q1 -7 4.5 -19.5t14.5 -29t30.5 -35.5t52.5 -40q18 4 45.5 13t55.5 20t51.5 22.5t34.5 22.5q-3 21 -17.5 44t-33 42.5t-38 32.5t-33.5 13zM354 0q-86 0 -139.5 21.5t-83.5 53t-40.5 68.5t-10.5 68q0 37 6.5 71
t18.5 66.5t29.5 65t39.5 67.5l36 -15q-8 -19 -16 -39.5t-14 -40t-9.5 -37t-3.5 -30.5q0 -17 8.5 -36.5t32.5 -36.5t68.5 -28t116.5 -11h597v21q0 32 13.5 72.5t37.5 83.5t56.5 84t69.5 73.5t78 52t81 19.5q27 0 53.5 -22.5t47.5 -58t33.5 -80t12.5 -87.5q0 -11 -4 -26
t-9.5 -31t-12 -31t-11.5 -25q-6 -12 -16 -24t-20 -21h242v-207h-1288zM1220 923l96 -59l60 80l-96 56zM1415 736l-121 72l-55 -72l-150 89l85 113l-94 55l103 137l120 -74l56 74l150 -92l-85 -111l94 -57z" />
    <glyph glyph-name="uni066F.init" unicode="&#x66f;" horiz-adv-x="734" 
d="M503 458q-6 21 -20.5 45.5t-33 46.5t-39 36.5t-39.5 14.5t-38 -9t-34.5 -22.5t-26 -29.5t-12.5 -30q8 -11 28 -21t45.5 -18.5t54.5 -13.5t55 -5q12 0 29 2t31 4zM0 0q-12 0 -26 5t-26 14.5t-20 24t-8 32.5v55q0 19 8 33.5t20 24t26 14t26 4.5h542q1 10 1.5 19.5t0.5 15.5
q0 30 -6 66t-14 61h-24q-9 -15 -20.5 -30.5t-24.5 -28t-28 -20.5t-31 -8q-33 0 -72.5 7t-73.5 22.5t-57 41.5t-23 64q0 72 26 137t65.5 114.5t86.5 79t89 29.5q45 0 84 -40t67.5 -102t44.5 -137.5t16 -147.5q0 -24 -3 -51.5t-10.5 -67t-22 -95t-36.5 -136.5h-577z" />
    <glyph glyph-name="uni066F.medi" unicode="&#x66f;" horiz-adv-x="815" 
d="M413 425q-21 0 -44.5 -7t-45.5 -18.5t-40.5 -27.5t-30.5 -34q0 -7 4 -19.5t14.5 -28.5t30 -35t52.5 -40q18 4 45.5 13t56 19.5t52.5 22.5t35 23q-4 19 -17.5 42.5t-32 43t-39.5 33t-40 13.5zM0 0q-8 0 -21 3.5t-26.5 12t-23 21.5t-9.5 32v67q0 19 9.5 32.5t23 22
t26.5 12.5t21 4h162q-1 4 -1 10v11q0 32 14 72.5t38 83.5t56.5 84t70 73.5t78.5 52t81 19.5q25 0 51 -20.5t47 -55t34.5 -79t13.5 -92.5q0 -9 -3.5 -22.5t-9 -29t-11.5 -31t-12 -26.5q-6 -12 -14 -25t-19 -25h239v-207h-815z" />
    <glyph glyph-name="uni066F.fina" unicode="&#x66f;" horiz-adv-x="1098" 
d="M623 271q11 -23 50.5 -37t98.5 -22q9 -1 24.5 -2t32 -1.5t32.5 -1t27 -0.5q-15 33 -35.5 61.5t-42 49.5t-43.5 32.5t-40 11.5q-21 0 -38.5 -11t-31 -26t-22.5 -30.5t-12 -23.5zM998 0q-8 -66 -23 -119t-37 -108q-38 -31 -90.5 -67.5t-118 -68t-144 -52.5t-168.5 -21
q-97 0 -162 22.5t-104 62.5t-55 94.5t-16 117.5q0 65 13.5 122.5t34 106.5t44.5 89.5t45 72.5l39 -15q-28 -60 -46 -120t-18 -137q0 -56 25.5 -94.5t65 -62.5t86.5 -34.5t89 -10.5q73 0 142.5 14t129.5 36.5t107.5 50t77.5 54.5q3 19 3.5 34t1.5 35q-14 0 -36.5 0.5t-47.5 1
t-50 2t-43 4.5q-47 7 -86 16.5t-66.5 25.5t-42.5 41.5t-15 64.5q0 77 21.5 148t56 126t77 87.5t83.5 32.5q44 0 84 -31t71 -80.5t51.5 -111t25.5 -122.5h95v-207h-100z" />
    <glyph glyph-name="uni06A7.fina" unicode="&#x6a7;" horiz-adv-x="1098" 
d="M623 271q11 -23 50.5 -37t98.5 -22q9 -1 24.5 -2t32 -1.5t32.5 -1t27 -0.5q-15 33 -35.5 61.5t-42 49.5t-43.5 32.5t-40 11.5q-21 0 -38.5 -11t-31 -26t-22.5 -30.5t-12 -23.5zM998 0q-8 -66 -23 -119t-37 -108q-38 -31 -90.5 -67.5t-118 -68t-144 -52.5t-168.5 -21
q-97 0 -162 22.5t-104 62.5t-55 94.5t-16 117.5q0 65 13.5 122.5t34 106.5t44.5 89.5t45 72.5l39 -15q-28 -60 -46 -120t-18 -137q0 -56 25.5 -94.5t65 -62.5t86.5 -34.5t89 -10.5q73 0 142.5 14t129.5 36.5t107.5 50t77.5 54.5q3 19 3.5 34t1.5 35q-14 0 -36.5 0.5t-47.5 1
t-50 2t-43 4.5q-47 7 -86 16.5t-66.5 25.5t-42.5 41.5t-15 64.5q0 77 21.5 148t56 126t77 87.5t83.5 32.5q44 0 84 -31t71 -80.5t51.5 -111t25.5 -122.5h95v-207h-100zM799 695l-165 101l107 143l165 -103z" />
    <glyph glyph-name="uni06A8.fina" unicode="&#x6a8;" horiz-adv-x="1098" 
d="M623 271q11 -23 50.5 -37t98.5 -22q9 -1 24.5 -2t32 -1.5t32.5 -1t27 -0.5q-15 33 -35.5 61.5t-42 49.5t-43.5 32.5t-40 11.5q-21 0 -38.5 -11t-31 -26t-22.5 -30.5t-12 -23.5zM998 0q-8 -66 -23 -119t-37 -108q-38 -31 -90.5 -67.5t-118 -68t-144 -52.5t-168.5 -21
q-97 0 -162 22.5t-104 62.5t-55 94.5t-16 117.5q0 65 13.5 122.5t34 106.5t44.5 89.5t45 72.5l39 -15q-28 -60 -46 -120t-18 -137q0 -56 25.5 -94.5t65 -62.5t86.5 -34.5t89 -10.5q73 0 142.5 14t129.5 36.5t107.5 50t77.5 54.5q3 19 3.5 34t1.5 35q-14 0 -36.5 0.5t-47.5 1
t-50 2t-43 4.5q-47 7 -86 16.5t-66.5 25.5t-42.5 41.5t-15 64.5q0 77 21.5 148t56 126t77 87.5t83.5 32.5q44 0 84 -31t71 -80.5t51.5 -111t25.5 -122.5h95v-207h-100zM741 865l-153 93l100 133l153 -95zM853 655l-121 72l-55 -72l-150 89l103 137l119 -74l57 74l150 -92z
" />
    <glyph glyph-name="uni06A9" unicode="&#x6a9;" horiz-adv-x="1345" arabic-form="isolated" 
d="M1315 975q-64 -26 -139.5 -56.5t-153.5 -62.5t-154.5 -64t-141.5 -60q47 -33 105 -74.5t114.5 -86.5t105.5 -91t79 -88q26 -37 42 -73t16 -86q0 -30 -6.5 -60t-16 -59.5t-20.5 -58t-20 -55.5h-767q-85 0 -139 20t-85 51t-42.5 68.5t-11.5 71.5q0 72 24.5 136t69.5 134
l36 -15q-18 -43 -30.5 -83t-12.5 -66q0 -49 54.5 -79.5t167.5 -30.5h705q-10 33 -46 67.5t-84 68.5t-101 66.5t-96 61.5l-6 -47l-120 60q-34 17 -53 54t-19 91q0 47 19.5 104t57.5 117q12 18 59 45t115 58.5t151 66t166 69.5q25 10 56 22.5t63.5 26t63.5 26t55 23.5z" />
    <glyph glyph-name="uni06A9.init" unicode="&#x6a9;" horiz-adv-x="785" arabic-form="initial" 
d="M760 974q-65 -26 -140.5 -56.5t-153 -62t-153 -63.5t-140.5 -60q45 -32 103 -73t116 -86.5t107.5 -92t78.5 -88.5q26 -37 41 -73t15 -86q0 -30 -6 -60t-15.5 -60t-20.5 -58.5t-21 -54.5h-571q-12 0 -26 5t-26 14.5t-20 24t-8 32.5v55q0 19 8 33.5t20 24t26 14t26 4.5h541
q-4 19 -21.5 40.5t-44.5 44t-60 46t-68 47t-69.5 45t-63.5 41.5l-6 -47q-30 15 -59.5 30.5t-59.5 29.5q-35 17 -53.5 54t-18.5 91q0 47 19 102.5t57 116.5q10 18 46.5 41t92.5 50t129 58t156 65q26 10 67.5 27t86 35t85 35t64.5 27z" />
    <glyph glyph-name="uni06A9.medi" unicode="&#x6a9;" horiz-adv-x="878" arabic-form="medial" 
d="M726 0q-24 0 -43 9.5t-35 27.5t-31 43t-32 55q-10 18 -19 35t-21 37l-15 -2q0 -38 -15.5 -87.5t-52.5 -117.5h-462q-12 0 -26 5t-26 14.5t-20 24t-8 32.5v55q0 19 8 33.5t20 24t26 14t26 4.5h455q-7 30 -27.5 63.5t-50 68t-67 68.5t-79.5 64l-5 -47l-120 60
q-40 21 -56 57.5t-16 87.5q0 47 18.5 102.5t56.5 116.5q12 16 52 39.5t101.5 53t140.5 64t168 72.5q20 9 55 23.5t74 31t76.5 32t63.5 25.5l-65 -217q-58 -24 -132.5 -54.5t-153.5 -62.5t-156.5 -64.5t-140.5 -60.5q48 -32 89 -61t81 -62.5t82.5 -73.5t94.5 -94
q38 -38 65 -69.5t49 -58.5q16 -21 32.5 -39.5t32.5 -33t32.5 -23t33.5 -8.5h94v-207h-152z" />
    <glyph glyph-name="uni06A9.fina" unicode="&#x6a9;" horiz-adv-x="1463" arabic-form="final" 
d="M1306 0q-28 0 -49.5 16t-41 44t-40 66t-45.5 81l-15 -2q0 -47 -18 -97t-50 -108h-689q-85 0 -139 20t-85 51t-42.5 68.5t-11.5 71.5q0 72 24.5 136.5t69.5 133.5l36 -15q-19 -46 -31 -84.5t-12 -64.5q0 -49 54.5 -79.5t167.5 -30.5h651q-7 30 -27 63t-49.5 67.5
t-67.5 68.5t-80 66l-5 -48l-120 61q-38 20 -54.5 56t-16.5 84q0 44 17.5 102t56.5 121q7 12 42 32.5t90 48t126 59.5t149.5 66t161.5 68.5t162 66.5q-5 -18 -14 -47.5t-18.5 -61t-18 -61t-14.5 -47.5q-64 -26 -137.5 -56t-150 -61.5t-152 -63t-143.5 -61.5
q54 -33 101.5 -68.5t90 -73t81 -75.5t74.5 -74q72 -73 114.5 -118t70.5 -70.5t48.5 -34.5t48.5 -9h57v-207h-157z" />
    <glyph glyph-name="uni06AA.init" unicode="&#x6aa;" horiz-adv-x="1711" 
d="M1576 38q-163 -14 -333.5 -22t-334 -11.5t-312 -4t-267.5 -0.5h-329q-18 0 -35 6t-31 15.5t-22.5 20.5t-8.5 20v91q0 6 5 15.5t16 18t30 14.5t46 6h203.5t260 1t289 3t290.5 5.5t265 9.5t212 14q-3 22 -18 41.5t-37.5 33.5t-51 22.5t-60.5 8.5q-52 0 -113.5 -1.5
t-121.5 -4.5q-26 -1 -67.5 -3t-87 -3.5t-88 -2.5t-68.5 -1q-78 0 -153.5 1t-150 7t-149 19.5t-150.5 37.5q9 33 18.5 71.5t19 75.5t19 71t18.5 58q6 15 56 49.5t133 84.5t192.5 113.5t234.5 136.5l-46 -217q-113 -66 -228.5 -134t-242.5 -143q80 -19 171 -23.5t188 -4.5
q32 0 77 0.5t93.5 1.5t94.5 2.5t80 2.5q70 3 146 7t151 4q53 0 98.5 -20.5t79.5 -53.5t53 -73.5t19 -80.5q0 -20 -5.5 -57t-13.5 -79t-17 -82t-17 -67z" />
    <glyph glyph-name="uni06AA.medi" unicode="&#x6aa;" horiz-adv-x="1770" 
d="M1770 0h-236q-35 0 -52.5 10t-22.5 19q-82 -7 -175 -12t-192 -8.5t-200.5 -5t-199 -2.5t-188 -1h-167.5h-337q-15 0 -31.5 4.5t-30 12.5t-22 17.5t-8.5 20.5v107q0 9 8.5 17t22 14.5t30 10t31.5 3.5q62 0 145 0.5t179 1t201.5 2t212.5 3.5t212.5 4.5t201.5 5.5t178.5 6.5
t144.5 8.5q-7 45 -49 68.5t-106 23.5q-52 0 -102.5 -2.5t-118.5 -4.5q-27 -1 -70.5 -2t-89.5 -1.5t-88.5 -1t-68.5 -0.5q-78 0 -153.5 1t-150 7t-149 19.5t-150.5 37.5q9 33 18.5 71.5t19 75.5t19 71t18.5 58q6 15 56 49.5t133 84.5t192.5 113.5t234.5 136.5l-46 -217
q-113 -66 -228.5 -134t-242.5 -143q80 -19 171 -23.5t188 -4.5q32 0 77.5 0.5t94.5 1t96.5 1.5t82.5 2q33 1 71 1.5l76 1t72.5 0.5h60.5q53 0 99.5 -19t81 -49t54.5 -66.5t20 -71.5q0 -11 -2 -26.5t-5.5 -31.5t-7.5 -31.5t-8 -27.5h195v-207z" />
    <glyph glyph-name="uni06AA.fina" unicode="&#x6aa;" horiz-adv-x="2058" 
d="M2058 0h-236q-9 0 -18.5 4t-13.5 7q-161 -17 -320 -28.5t-308 -18t-285.5 -9.5t-251.5 -3q-39 0 -83 1.5t-86 4.5t-77 7t-56 9q-27 10 -62 28t-73 40t-76 46t-71 45l11 32h636q125 0 259 2.5t272.5 8.5t278 16t275.5 25q-3 22 -18 40.5t-37.5 32t-51 21t-60.5 7.5
q-52 0 -104.5 -0.5t-114.5 -5.5q-26 -2 -67 -3t-86 -1.5t-87 -0.5h-68q-78 0 -153.5 1t-150 7t-149 19.5t-150.5 37.5q9 33 18.5 71.5t19 75.5t19 71t18.5 58q6 15 56 49.5t133 84.5t192.5 113.5t234.5 136.5l-46 -217q-113 -66 -228.5 -134t-242.5 -143q80 -19 171 -23.5
t188 -4.5q32 0 77 0.5t93 1.5t93.5 2.5t79.5 2.5q70 3 137.5 4.5t142.5 1.5q53 0 99 -18t80.5 -46.5t54.5 -64t20 -70.5q0 -11 -2 -26.5t-5.5 -31.5t-7.5 -31.5t-8 -27.5h195v-207z" />
    <glyph glyph-name="uni06AB.init" unicode="&#x6ab;" horiz-adv-x="785" 
d="M651 814q0 -29 -5.5 -57.5t-16.5 -46.5q-23 -23 -54 -37.5t-70 -14.5q-15 0 -30 6.5t-27 19.5t-20 32t-8 45q0 31 8 64q2 9 4 17q-60 -25 -119 -50q-75 -32 -140 -60q45 -32 103 -73t116 -86.5t107.5 -92t78.5 -88.5q26 -37 41 -73t15 -86q0 -30 -6 -60t-15.5 -60
t-20.5 -58.5t-21 -54.5h-571q-12 0 -26 5t-26 14.5t-20 24t-8 32.5v55q0 19 8 33.5t20 24t26 14t26 4.5h541q-4 19 -21.5 40.5t-44.5 44t-60 46t-68 47t-69.5 45t-63.5 41.5l-6 -47q-30 15 -59.5 30.5t-59.5 29.5q-35 17 -53.5 54t-18.5 91q0 47 19 102.5t57 116.5
q10 18 46.5 41t92.5 50t129 58t156 65q26 10 67.5 27t86 35t85 35t64.5 27l-60 -212q-65 -26 -141 -57q-4 -2 -9 -3q1 -2 3 -3q16 -19 27 -44.5t11 -52.5zM516 742q26 0 47.5 6.5t35.5 21.5q-1 44 -19 68t-52 24q-10 0 -20 -5.5t-18.5 -14.5t-13.5 -21.5t-5 -27.5
q0 -26 12.5 -38.5t32.5 -12.5z" />
    <glyph glyph-name="uni06AB.medi" unicode="&#x6ab;" horiz-adv-x="878" 
d="M674 813q0 -29 -5.5 -57.5t-16.5 -46.5q-23 -23 -54 -37.5t-70 -14.5q-15 0 -30 6.5t-27 19.5t-20 32t-8 45q0 31 8 64q2 9 4 17q-62 -25 -123 -51q-77 -32 -140 -60q48 -32 89 -61t81 -62.5t82.5 -73.5t94.5 -94q38 -38 65 -69.5t49 -58.5q16 -21 32.5 -39.5t32.5 -33
t32.5 -23t33.5 -8.5h94v-207h-152q-24 0 -43 9.5t-35 27.5t-31 43t-32 55q-10 18 -19 35t-21 37l-15 -2q0 -38 -15.5 -87.5t-52.5 -117.5h-462q-12 0 -26 5t-26 14.5t-20 24t-8 32.5v55q0 19 8 33.5t20 24t26 14t26 4.5h455q-7 30 -27.5 63.5t-50 68t-67 68.5t-79.5 64
l-5 -47l-120 60q-40 21 -56 57.5t-16 87.5q0 47 18.5 102.5t56.5 116.5q12 16 52 39.5t101.5 53t140.5 64t168 72.5q20 9 55 23.5t74 31t76.5 32t63.5 25.5l-65 -217q-58 -24 -133 -55q-4 -2 -9 -4l3 -3q16 -19 27 -44.5t11 -52.5zM539 741q26 0 47.5 6.5t35.5 21.5
q-1 44 -19 68t-52 24q-10 0 -20 -5.5t-18.5 -14.5t-13.5 -21.5t-5 -27.5q0 -26 12.5 -38.5t32.5 -12.5z" />
    </font>
</defs>
</svg>
